M48
; DRILL file {KiCad 9.0.5} date 2025-11-16T12:38:09+0330
; FORMAT={-:-/ absolute / metric / decimal}
; #@! TF.CreationDate,2025-11-16T12:38:09+03:30
; #@! TF.GenerationSoftware,Kicad,Pcbnew,9.0.5
; #@! TF.FileFunction,Plated,1,2,PTH
FMAT,2
METRIC
; #@! TA.AperFunction,Plated,PTH,ViaDrill
T1C0.200
; #@! TA.AperFunction,Plated,PTH,ViaDrill
T2C0.300
; #@! TA.AperFunction,Plated,PTH,ComponentDrill
T3C0.600
; #@! TA.AperFunction,Plated,PTH,ComponentDrill
T4C1.000
%
G90
G05
T1
X122.75Y-100.671
X123.55Y-94.9
X131.25Y-102.8
X131.95Y-102.8
X132.55Y-94.6
X132.55Y-95.3
X132.55Y-96.0
X132.65Y-102.8
X133.35Y-102.8
X134.05Y-102.8
X134.7Y-96.05
X134.7Y-97.55
X134.75Y-102.8
X135.45Y-102.8
X135.775Y-105.0
X136.15Y-102.8
X136.2Y-96.05
X136.2Y-97.55
X137.4Y-102.8
X138.75Y-91.15
X141.1Y-100.25
X141.225Y-95.0
X142.1Y-95.6
X142.1Y-96.3
X142.1Y-97.0
X142.1Y-97.7
X142.142Y-99.097
X142.15Y-101.65
X142.158Y-98.398
X142.231Y-99.792
X142.26Y-100.491
X145.1Y-102.4
X150.9Y-99.2
X151.5Y-104.4
X151.7Y-99.2
X152.5Y-99.2
X154.55Y-93.85
X155.3Y-86.3
X155.3Y-110.3
X158.05Y-104.4
X164.4Y-110.2
T2
X128.0Y-92.4
X160.0Y-95.15
X160.0Y-99.95
T4
X123.56Y-84.0
X123.56Y-86.54
X123.56Y-110.0
X123.56Y-112.54
X126.1Y-84.0
X126.1Y-86.54
X126.1Y-110.0
X126.1Y-112.54
X128.64Y-84.0
X128.64Y-86.54
X128.64Y-110.0
X128.64Y-112.54
X131.18Y-84.0
X131.18Y-86.54
X131.18Y-110.0
X131.18Y-112.54
X133.72Y-84.0
X133.72Y-86.54
X133.72Y-110.0
X133.72Y-112.54
X136.26Y-84.0
X136.26Y-86.54
X136.26Y-110.0
X136.26Y-112.54
X138.8Y-84.0
X138.8Y-86.54
X138.8Y-110.0
X138.8Y-112.54
X141.34Y-84.0
X141.34Y-86.54
X141.34Y-110.0
X141.34Y-112.54
X143.88Y-84.0
X143.88Y-86.54
X143.88Y-110.0
X143.88Y-112.54
X146.42Y-84.0
X146.42Y-86.54
X146.42Y-110.0
X146.42Y-112.54
X148.96Y-84.0
X148.96Y-86.54
X148.96Y-110.0
X148.96Y-112.54
X151.5Y-84.0
X151.5Y-86.54
X151.5Y-110.0
X151.5Y-112.54
T3
G00X161.575Y-93.23
M15
G01X162.675Y-93.23
M16
G05
G00X161.575Y-101.87
M15
G01X162.675Y-101.87
M16
G05
G00X165.925Y-93.23
M15
G01X166.725Y-93.23
M16
G05
G00X165.925Y-101.87
M15
G01X166.725Y-101.87
M16
G05
M30
