%TF.GenerationSoftware,KiCad,Pcbnew,9.0.5*%
%TF.CreationDate,2025-11-16T12:38:37+03:30*%
%TF.ProjectId,WeAct-STM32G474,57654163-742d-4535-944d-333247343734,rev?*%
%TF.SameCoordinates,Original*%
%TF.FileFunction,Legend,Top*%
%TF.FilePolarity,Positive*%
%FSLAX46Y46*%
G04 Gerber Fmt 4.6, Leading zero omitted, Abs format (unit mm)*
G04 Created by KiCad (PCBNEW 9.0.5) date 2025-11-16 12:38:37*
%MOMM*%
%LPD*%
G01*
G04 APERTURE LIST*
%ADD10C,0.100000*%
%ADD11C,0.150000*%
%ADD12C,0.120000*%
G04 APERTURE END LIST*
D10*
X139196895Y-82243734D02*
X138396895Y-82243734D01*
X138396895Y-82243734D02*
X138396895Y-81938972D01*
X138396895Y-81938972D02*
X138434990Y-81862782D01*
X138434990Y-81862782D02*
X138473085Y-81824687D01*
X138473085Y-81824687D02*
X138549276Y-81786591D01*
X138549276Y-81786591D02*
X138663561Y-81786591D01*
X138663561Y-81786591D02*
X138739752Y-81824687D01*
X138739752Y-81824687D02*
X138777847Y-81862782D01*
X138777847Y-81862782D02*
X138815942Y-81938972D01*
X138815942Y-81938972D02*
X138815942Y-82243734D01*
X138968323Y-81481830D02*
X138968323Y-81100877D01*
X139196895Y-81558020D02*
X138396895Y-81291353D01*
X138396895Y-81291353D02*
X139196895Y-81024687D01*
X139196895Y-80719925D02*
X139196895Y-80567544D01*
X139196895Y-80567544D02*
X139158800Y-80491354D01*
X139158800Y-80491354D02*
X139120704Y-80453258D01*
X139120704Y-80453258D02*
X139006419Y-80377068D01*
X139006419Y-80377068D02*
X138854038Y-80338973D01*
X138854038Y-80338973D02*
X138549276Y-80338973D01*
X138549276Y-80338973D02*
X138473085Y-80377068D01*
X138473085Y-80377068D02*
X138434990Y-80415163D01*
X138434990Y-80415163D02*
X138396895Y-80491354D01*
X138396895Y-80491354D02*
X138396895Y-80643735D01*
X138396895Y-80643735D02*
X138434990Y-80719925D01*
X138434990Y-80719925D02*
X138473085Y-80758020D01*
X138473085Y-80758020D02*
X138549276Y-80796116D01*
X138549276Y-80796116D02*
X138739752Y-80796116D01*
X138739752Y-80796116D02*
X138815942Y-80758020D01*
X138815942Y-80758020D02*
X138854038Y-80719925D01*
X138854038Y-80719925D02*
X138892133Y-80643735D01*
X138892133Y-80643735D02*
X138892133Y-80491354D01*
X138892133Y-80491354D02*
X138854038Y-80415163D01*
X138854038Y-80415163D02*
X138815942Y-80377068D01*
X138815942Y-80377068D02*
X138739752Y-80338973D01*
X139196895Y-116143734D02*
X138396895Y-116143734D01*
X138396895Y-116143734D02*
X138396895Y-115838972D01*
X138396895Y-115838972D02*
X138434990Y-115762782D01*
X138434990Y-115762782D02*
X138473085Y-115724687D01*
X138473085Y-115724687D02*
X138549276Y-115686591D01*
X138549276Y-115686591D02*
X138663561Y-115686591D01*
X138663561Y-115686591D02*
X138739752Y-115724687D01*
X138739752Y-115724687D02*
X138777847Y-115762782D01*
X138777847Y-115762782D02*
X138815942Y-115838972D01*
X138815942Y-115838972D02*
X138815942Y-116143734D01*
X138968323Y-115381830D02*
X138968323Y-115000877D01*
X139196895Y-115458020D02*
X138396895Y-115191353D01*
X138396895Y-115191353D02*
X139196895Y-114924687D01*
X138396895Y-114734211D02*
X138396895Y-114200877D01*
X138396895Y-114200877D02*
X139196895Y-114543735D01*
X136696895Y-116143734D02*
X135896895Y-116143734D01*
X135896895Y-116143734D02*
X135896895Y-115838972D01*
X135896895Y-115838972D02*
X135934990Y-115762782D01*
X135934990Y-115762782D02*
X135973085Y-115724687D01*
X135973085Y-115724687D02*
X136049276Y-115686591D01*
X136049276Y-115686591D02*
X136163561Y-115686591D01*
X136163561Y-115686591D02*
X136239752Y-115724687D01*
X136239752Y-115724687D02*
X136277847Y-115762782D01*
X136277847Y-115762782D02*
X136315942Y-115838972D01*
X136315942Y-115838972D02*
X136315942Y-116143734D01*
X136468323Y-115381830D02*
X136468323Y-115000877D01*
X136696895Y-115458020D02*
X135896895Y-115191353D01*
X135896895Y-115191353D02*
X136696895Y-114924687D01*
X135896895Y-114277068D02*
X135896895Y-114658020D01*
X135896895Y-114658020D02*
X136277847Y-114696116D01*
X136277847Y-114696116D02*
X136239752Y-114658020D01*
X136239752Y-114658020D02*
X136201657Y-114581830D01*
X136201657Y-114581830D02*
X136201657Y-114391354D01*
X136201657Y-114391354D02*
X136239752Y-114315163D01*
X136239752Y-114315163D02*
X136277847Y-114277068D01*
X136277847Y-114277068D02*
X136354038Y-114238973D01*
X136354038Y-114238973D02*
X136544514Y-114238973D01*
X136544514Y-114238973D02*
X136620704Y-114277068D01*
X136620704Y-114277068D02*
X136658800Y-114315163D01*
X136658800Y-114315163D02*
X136696895Y-114391354D01*
X136696895Y-114391354D02*
X136696895Y-114581830D01*
X136696895Y-114581830D02*
X136658800Y-114658020D01*
X136658800Y-114658020D02*
X136620704Y-114696116D01*
X141796895Y-116258020D02*
X140996895Y-116258020D01*
X140996895Y-116258020D02*
X140996895Y-115953258D01*
X140996895Y-115953258D02*
X141034990Y-115877068D01*
X141034990Y-115877068D02*
X141073085Y-115838973D01*
X141073085Y-115838973D02*
X141149276Y-115800877D01*
X141149276Y-115800877D02*
X141263561Y-115800877D01*
X141263561Y-115800877D02*
X141339752Y-115838973D01*
X141339752Y-115838973D02*
X141377847Y-115877068D01*
X141377847Y-115877068D02*
X141415942Y-115953258D01*
X141415942Y-115953258D02*
X141415942Y-116258020D01*
X141377847Y-115191354D02*
X141415942Y-115077068D01*
X141415942Y-115077068D02*
X141454038Y-115038973D01*
X141454038Y-115038973D02*
X141530228Y-115000877D01*
X141530228Y-115000877D02*
X141644514Y-115000877D01*
X141644514Y-115000877D02*
X141720704Y-115038973D01*
X141720704Y-115038973D02*
X141758800Y-115077068D01*
X141758800Y-115077068D02*
X141796895Y-115153258D01*
X141796895Y-115153258D02*
X141796895Y-115458020D01*
X141796895Y-115458020D02*
X140996895Y-115458020D01*
X140996895Y-115458020D02*
X140996895Y-115191354D01*
X140996895Y-115191354D02*
X141034990Y-115115163D01*
X141034990Y-115115163D02*
X141073085Y-115077068D01*
X141073085Y-115077068D02*
X141149276Y-115038973D01*
X141149276Y-115038973D02*
X141225466Y-115038973D01*
X141225466Y-115038973D02*
X141301657Y-115077068D01*
X141301657Y-115077068D02*
X141339752Y-115115163D01*
X141339752Y-115115163D02*
X141377847Y-115191354D01*
X141377847Y-115191354D02*
X141377847Y-115458020D01*
X141796895Y-114238973D02*
X141796895Y-114696116D01*
X141796895Y-114467544D02*
X140996895Y-114467544D01*
X140996895Y-114467544D02*
X141111180Y-114543735D01*
X141111180Y-114543735D02*
X141187371Y-114619925D01*
X141187371Y-114619925D02*
X141225466Y-114696116D01*
X123196895Y-108478020D02*
X123996895Y-108211353D01*
X123996895Y-108211353D02*
X123196895Y-107944687D01*
X123577847Y-107411354D02*
X123615942Y-107297068D01*
X123615942Y-107297068D02*
X123654038Y-107258973D01*
X123654038Y-107258973D02*
X123730228Y-107220877D01*
X123730228Y-107220877D02*
X123844514Y-107220877D01*
X123844514Y-107220877D02*
X123920704Y-107258973D01*
X123920704Y-107258973D02*
X123958800Y-107297068D01*
X123958800Y-107297068D02*
X123996895Y-107373258D01*
X123996895Y-107373258D02*
X123996895Y-107678020D01*
X123996895Y-107678020D02*
X123196895Y-107678020D01*
X123196895Y-107678020D02*
X123196895Y-107411354D01*
X123196895Y-107411354D02*
X123234990Y-107335163D01*
X123234990Y-107335163D02*
X123273085Y-107297068D01*
X123273085Y-107297068D02*
X123349276Y-107258973D01*
X123349276Y-107258973D02*
X123425466Y-107258973D01*
X123425466Y-107258973D02*
X123501657Y-107297068D01*
X123501657Y-107297068D02*
X123539752Y-107335163D01*
X123539752Y-107335163D02*
X123577847Y-107411354D01*
X123577847Y-107411354D02*
X123577847Y-107678020D01*
X146796895Y-108363734D02*
X145996895Y-108363734D01*
X145996895Y-108363734D02*
X145996895Y-108058972D01*
X145996895Y-108058972D02*
X146034990Y-107982782D01*
X146034990Y-107982782D02*
X146073085Y-107944687D01*
X146073085Y-107944687D02*
X146149276Y-107906591D01*
X146149276Y-107906591D02*
X146263561Y-107906591D01*
X146263561Y-107906591D02*
X146339752Y-107944687D01*
X146339752Y-107944687D02*
X146377847Y-107982782D01*
X146377847Y-107982782D02*
X146415942Y-108058972D01*
X146415942Y-108058972D02*
X146415942Y-108363734D01*
X146377847Y-107297068D02*
X146415942Y-107182782D01*
X146415942Y-107182782D02*
X146454038Y-107144687D01*
X146454038Y-107144687D02*
X146530228Y-107106591D01*
X146530228Y-107106591D02*
X146644514Y-107106591D01*
X146644514Y-107106591D02*
X146720704Y-107144687D01*
X146720704Y-107144687D02*
X146758800Y-107182782D01*
X146758800Y-107182782D02*
X146796895Y-107258972D01*
X146796895Y-107258972D02*
X146796895Y-107563734D01*
X146796895Y-107563734D02*
X145996895Y-107563734D01*
X145996895Y-107563734D02*
X145996895Y-107297068D01*
X145996895Y-107297068D02*
X146034990Y-107220877D01*
X146034990Y-107220877D02*
X146073085Y-107182782D01*
X146073085Y-107182782D02*
X146149276Y-107144687D01*
X146149276Y-107144687D02*
X146225466Y-107144687D01*
X146225466Y-107144687D02*
X146301657Y-107182782D01*
X146301657Y-107182782D02*
X146339752Y-107220877D01*
X146339752Y-107220877D02*
X146377847Y-107297068D01*
X146377847Y-107297068D02*
X146377847Y-107563734D01*
X146796895Y-106344687D02*
X146796895Y-106801830D01*
X146796895Y-106573258D02*
X145996895Y-106573258D01*
X145996895Y-106573258D02*
X146111180Y-106649449D01*
X146111180Y-106649449D02*
X146187371Y-106725639D01*
X146187371Y-106725639D02*
X146225466Y-106801830D01*
X146796895Y-105582782D02*
X146796895Y-106039925D01*
X146796895Y-105811353D02*
X145996895Y-105811353D01*
X145996895Y-105811353D02*
X146111180Y-105887544D01*
X146111180Y-105887544D02*
X146187371Y-105963734D01*
X146187371Y-105963734D02*
X146225466Y-106039925D01*
X131546895Y-82243734D02*
X130746895Y-82243734D01*
X130746895Y-82243734D02*
X130746895Y-81938972D01*
X130746895Y-81938972D02*
X130784990Y-81862782D01*
X130784990Y-81862782D02*
X130823085Y-81824687D01*
X130823085Y-81824687D02*
X130899276Y-81786591D01*
X130899276Y-81786591D02*
X131013561Y-81786591D01*
X131013561Y-81786591D02*
X131089752Y-81824687D01*
X131089752Y-81824687D02*
X131127847Y-81862782D01*
X131127847Y-81862782D02*
X131165942Y-81938972D01*
X131165942Y-81938972D02*
X131165942Y-82243734D01*
X131318323Y-81481830D02*
X131318323Y-81100877D01*
X131546895Y-81558020D02*
X130746895Y-81291353D01*
X130746895Y-81291353D02*
X131546895Y-81024687D01*
X131546895Y-80338973D02*
X131546895Y-80796116D01*
X131546895Y-80567544D02*
X130746895Y-80567544D01*
X130746895Y-80567544D02*
X130861180Y-80643735D01*
X130861180Y-80643735D02*
X130937371Y-80719925D01*
X130937371Y-80719925D02*
X130975466Y-80796116D01*
X130746895Y-79615163D02*
X130746895Y-79996115D01*
X130746895Y-79996115D02*
X131127847Y-80034211D01*
X131127847Y-80034211D02*
X131089752Y-79996115D01*
X131089752Y-79996115D02*
X131051657Y-79919925D01*
X131051657Y-79919925D02*
X131051657Y-79729449D01*
X131051657Y-79729449D02*
X131089752Y-79653258D01*
X131089752Y-79653258D02*
X131127847Y-79615163D01*
X131127847Y-79615163D02*
X131204038Y-79577068D01*
X131204038Y-79577068D02*
X131394514Y-79577068D01*
X131394514Y-79577068D02*
X131470704Y-79615163D01*
X131470704Y-79615163D02*
X131508800Y-79653258D01*
X131508800Y-79653258D02*
X131546895Y-79729449D01*
X131546895Y-79729449D02*
X131546895Y-79919925D01*
X131546895Y-79919925D02*
X131508800Y-79996115D01*
X131508800Y-79996115D02*
X131470704Y-80034211D01*
X141696895Y-90081829D02*
X140896895Y-90081829D01*
X140896895Y-90081829D02*
X140896895Y-89777067D01*
X140896895Y-89777067D02*
X140934990Y-89700877D01*
X140934990Y-89700877D02*
X140973085Y-89662782D01*
X140973085Y-89662782D02*
X141049276Y-89624686D01*
X141049276Y-89624686D02*
X141163561Y-89624686D01*
X141163561Y-89624686D02*
X141239752Y-89662782D01*
X141239752Y-89662782D02*
X141277847Y-89700877D01*
X141277847Y-89700877D02*
X141315942Y-89777067D01*
X141315942Y-89777067D02*
X141315942Y-90081829D01*
X141468323Y-89319925D02*
X141468323Y-88938972D01*
X141696895Y-89396115D02*
X140896895Y-89129448D01*
X140896895Y-89129448D02*
X141696895Y-88862782D01*
X141239752Y-88481830D02*
X141201657Y-88558020D01*
X141201657Y-88558020D02*
X141163561Y-88596115D01*
X141163561Y-88596115D02*
X141087371Y-88634211D01*
X141087371Y-88634211D02*
X141049276Y-88634211D01*
X141049276Y-88634211D02*
X140973085Y-88596115D01*
X140973085Y-88596115D02*
X140934990Y-88558020D01*
X140934990Y-88558020D02*
X140896895Y-88481830D01*
X140896895Y-88481830D02*
X140896895Y-88329449D01*
X140896895Y-88329449D02*
X140934990Y-88253258D01*
X140934990Y-88253258D02*
X140973085Y-88215163D01*
X140973085Y-88215163D02*
X141049276Y-88177068D01*
X141049276Y-88177068D02*
X141087371Y-88177068D01*
X141087371Y-88177068D02*
X141163561Y-88215163D01*
X141163561Y-88215163D02*
X141201657Y-88253258D01*
X141201657Y-88253258D02*
X141239752Y-88329449D01*
X141239752Y-88329449D02*
X141239752Y-88481830D01*
X141239752Y-88481830D02*
X141277847Y-88558020D01*
X141277847Y-88558020D02*
X141315942Y-88596115D01*
X141315942Y-88596115D02*
X141392133Y-88634211D01*
X141392133Y-88634211D02*
X141544514Y-88634211D01*
X141544514Y-88634211D02*
X141620704Y-88596115D01*
X141620704Y-88596115D02*
X141658800Y-88558020D01*
X141658800Y-88558020D02*
X141696895Y-88481830D01*
X141696895Y-88481830D02*
X141696895Y-88329449D01*
X141696895Y-88329449D02*
X141658800Y-88253258D01*
X141658800Y-88253258D02*
X141620704Y-88215163D01*
X141620704Y-88215163D02*
X141544514Y-88177068D01*
X141544514Y-88177068D02*
X141392133Y-88177068D01*
X141392133Y-88177068D02*
X141315942Y-88215163D01*
X141315942Y-88215163D02*
X141277847Y-88253258D01*
X141277847Y-88253258D02*
X141239752Y-88329449D01*
X144296895Y-90958020D02*
X143496895Y-90958020D01*
X143496895Y-90958020D02*
X143496895Y-90653258D01*
X143496895Y-90653258D02*
X143534990Y-90577068D01*
X143534990Y-90577068D02*
X143573085Y-90538973D01*
X143573085Y-90538973D02*
X143649276Y-90500877D01*
X143649276Y-90500877D02*
X143763561Y-90500877D01*
X143763561Y-90500877D02*
X143839752Y-90538973D01*
X143839752Y-90538973D02*
X143877847Y-90577068D01*
X143877847Y-90577068D02*
X143915942Y-90653258D01*
X143915942Y-90653258D02*
X143915942Y-90958020D01*
X143877847Y-89891354D02*
X143915942Y-89777068D01*
X143915942Y-89777068D02*
X143954038Y-89738973D01*
X143954038Y-89738973D02*
X144030228Y-89700877D01*
X144030228Y-89700877D02*
X144144514Y-89700877D01*
X144144514Y-89700877D02*
X144220704Y-89738973D01*
X144220704Y-89738973D02*
X144258800Y-89777068D01*
X144258800Y-89777068D02*
X144296895Y-89853258D01*
X144296895Y-89853258D02*
X144296895Y-90158020D01*
X144296895Y-90158020D02*
X143496895Y-90158020D01*
X143496895Y-90158020D02*
X143496895Y-89891354D01*
X143496895Y-89891354D02*
X143534990Y-89815163D01*
X143534990Y-89815163D02*
X143573085Y-89777068D01*
X143573085Y-89777068D02*
X143649276Y-89738973D01*
X143649276Y-89738973D02*
X143725466Y-89738973D01*
X143725466Y-89738973D02*
X143801657Y-89777068D01*
X143801657Y-89777068D02*
X143839752Y-89815163D01*
X143839752Y-89815163D02*
X143877847Y-89891354D01*
X143877847Y-89891354D02*
X143877847Y-90158020D01*
X144296895Y-88938973D02*
X144296895Y-89396116D01*
X144296895Y-89167544D02*
X143496895Y-89167544D01*
X143496895Y-89167544D02*
X143611180Y-89243735D01*
X143611180Y-89243735D02*
X143687371Y-89319925D01*
X143687371Y-89319925D02*
X143725466Y-89396116D01*
X143496895Y-88215163D02*
X143496895Y-88596115D01*
X143496895Y-88596115D02*
X143877847Y-88634211D01*
X143877847Y-88634211D02*
X143839752Y-88596115D01*
X143839752Y-88596115D02*
X143801657Y-88519925D01*
X143801657Y-88519925D02*
X143801657Y-88329449D01*
X143801657Y-88329449D02*
X143839752Y-88253258D01*
X143839752Y-88253258D02*
X143877847Y-88215163D01*
X143877847Y-88215163D02*
X143954038Y-88177068D01*
X143954038Y-88177068D02*
X144144514Y-88177068D01*
X144144514Y-88177068D02*
X144220704Y-88215163D01*
X144220704Y-88215163D02*
X144258800Y-88253258D01*
X144258800Y-88253258D02*
X144296895Y-88329449D01*
X144296895Y-88329449D02*
X144296895Y-88519925D01*
X144296895Y-88519925D02*
X144258800Y-88596115D01*
X144258800Y-88596115D02*
X144220704Y-88634211D01*
X126496895Y-82243734D02*
X125696895Y-82243734D01*
X125696895Y-82243734D02*
X125696895Y-81938972D01*
X125696895Y-81938972D02*
X125734990Y-81862782D01*
X125734990Y-81862782D02*
X125773085Y-81824687D01*
X125773085Y-81824687D02*
X125849276Y-81786591D01*
X125849276Y-81786591D02*
X125963561Y-81786591D01*
X125963561Y-81786591D02*
X126039752Y-81824687D01*
X126039752Y-81824687D02*
X126077847Y-81862782D01*
X126077847Y-81862782D02*
X126115942Y-81938972D01*
X126115942Y-81938972D02*
X126115942Y-82243734D01*
X126077847Y-81177068D02*
X126115942Y-81062782D01*
X126115942Y-81062782D02*
X126154038Y-81024687D01*
X126154038Y-81024687D02*
X126230228Y-80986591D01*
X126230228Y-80986591D02*
X126344514Y-80986591D01*
X126344514Y-80986591D02*
X126420704Y-81024687D01*
X126420704Y-81024687D02*
X126458800Y-81062782D01*
X126458800Y-81062782D02*
X126496895Y-81138972D01*
X126496895Y-81138972D02*
X126496895Y-81443734D01*
X126496895Y-81443734D02*
X125696895Y-81443734D01*
X125696895Y-81443734D02*
X125696895Y-81177068D01*
X125696895Y-81177068D02*
X125734990Y-81100877D01*
X125734990Y-81100877D02*
X125773085Y-81062782D01*
X125773085Y-81062782D02*
X125849276Y-81024687D01*
X125849276Y-81024687D02*
X125925466Y-81024687D01*
X125925466Y-81024687D02*
X126001657Y-81062782D01*
X126001657Y-81062782D02*
X126039752Y-81100877D01*
X126039752Y-81100877D02*
X126077847Y-81177068D01*
X126077847Y-81177068D02*
X126077847Y-81443734D01*
X125696895Y-80300877D02*
X125696895Y-80453258D01*
X125696895Y-80453258D02*
X125734990Y-80529449D01*
X125734990Y-80529449D02*
X125773085Y-80567544D01*
X125773085Y-80567544D02*
X125887371Y-80643734D01*
X125887371Y-80643734D02*
X126039752Y-80681830D01*
X126039752Y-80681830D02*
X126344514Y-80681830D01*
X126344514Y-80681830D02*
X126420704Y-80643734D01*
X126420704Y-80643734D02*
X126458800Y-80605639D01*
X126458800Y-80605639D02*
X126496895Y-80529449D01*
X126496895Y-80529449D02*
X126496895Y-80377068D01*
X126496895Y-80377068D02*
X126458800Y-80300877D01*
X126458800Y-80300877D02*
X126420704Y-80262782D01*
X126420704Y-80262782D02*
X126344514Y-80224687D01*
X126344514Y-80224687D02*
X126154038Y-80224687D01*
X126154038Y-80224687D02*
X126077847Y-80262782D01*
X126077847Y-80262782D02*
X126039752Y-80300877D01*
X126039752Y-80300877D02*
X126001657Y-80377068D01*
X126001657Y-80377068D02*
X126001657Y-80529449D01*
X126001657Y-80529449D02*
X126039752Y-80605639D01*
X126039752Y-80605639D02*
X126077847Y-80643734D01*
X126077847Y-80643734D02*
X126154038Y-80681830D01*
X123996895Y-117019925D02*
X123196895Y-117019925D01*
X123196895Y-117019925D02*
X123196895Y-116715163D01*
X123196895Y-116715163D02*
X123234990Y-116638973D01*
X123234990Y-116638973D02*
X123273085Y-116600878D01*
X123273085Y-116600878D02*
X123349276Y-116562782D01*
X123349276Y-116562782D02*
X123463561Y-116562782D01*
X123463561Y-116562782D02*
X123539752Y-116600878D01*
X123539752Y-116600878D02*
X123577847Y-116638973D01*
X123577847Y-116638973D02*
X123615942Y-116715163D01*
X123615942Y-116715163D02*
X123615942Y-117019925D01*
X123920704Y-115762782D02*
X123958800Y-115800878D01*
X123958800Y-115800878D02*
X123996895Y-115915163D01*
X123996895Y-115915163D02*
X123996895Y-115991354D01*
X123996895Y-115991354D02*
X123958800Y-116105640D01*
X123958800Y-116105640D02*
X123882609Y-116181830D01*
X123882609Y-116181830D02*
X123806419Y-116219925D01*
X123806419Y-116219925D02*
X123654038Y-116258021D01*
X123654038Y-116258021D02*
X123539752Y-116258021D01*
X123539752Y-116258021D02*
X123387371Y-116219925D01*
X123387371Y-116219925D02*
X123311180Y-116181830D01*
X123311180Y-116181830D02*
X123234990Y-116105640D01*
X123234990Y-116105640D02*
X123196895Y-115991354D01*
X123196895Y-115991354D02*
X123196895Y-115915163D01*
X123196895Y-115915163D02*
X123234990Y-115800878D01*
X123234990Y-115800878D02*
X123273085Y-115762782D01*
X123996895Y-115000878D02*
X123996895Y-115458021D01*
X123996895Y-115229449D02*
X123196895Y-115229449D01*
X123196895Y-115229449D02*
X123311180Y-115305640D01*
X123311180Y-115305640D02*
X123387371Y-115381830D01*
X123387371Y-115381830D02*
X123425466Y-115458021D01*
X123196895Y-114734211D02*
X123196895Y-114238973D01*
X123196895Y-114238973D02*
X123501657Y-114505639D01*
X123501657Y-114505639D02*
X123501657Y-114391354D01*
X123501657Y-114391354D02*
X123539752Y-114315163D01*
X123539752Y-114315163D02*
X123577847Y-114277068D01*
X123577847Y-114277068D02*
X123654038Y-114238973D01*
X123654038Y-114238973D02*
X123844514Y-114238973D01*
X123844514Y-114238973D02*
X123920704Y-114277068D01*
X123920704Y-114277068D02*
X123958800Y-114315163D01*
X123958800Y-114315163D02*
X123996895Y-114391354D01*
X123996895Y-114391354D02*
X123996895Y-114619925D01*
X123996895Y-114619925D02*
X123958800Y-114696116D01*
X123958800Y-114696116D02*
X123920704Y-114734211D01*
X139196895Y-90843734D02*
X138396895Y-90843734D01*
X138396895Y-90843734D02*
X138396895Y-90538972D01*
X138396895Y-90538972D02*
X138434990Y-90462782D01*
X138434990Y-90462782D02*
X138473085Y-90424687D01*
X138473085Y-90424687D02*
X138549276Y-90386591D01*
X138549276Y-90386591D02*
X138663561Y-90386591D01*
X138663561Y-90386591D02*
X138739752Y-90424687D01*
X138739752Y-90424687D02*
X138777847Y-90462782D01*
X138777847Y-90462782D02*
X138815942Y-90538972D01*
X138815942Y-90538972D02*
X138815942Y-90843734D01*
X138968323Y-90081830D02*
X138968323Y-89700877D01*
X139196895Y-90158020D02*
X138396895Y-89891353D01*
X138396895Y-89891353D02*
X139196895Y-89624687D01*
X139196895Y-88938973D02*
X139196895Y-89396116D01*
X139196895Y-89167544D02*
X138396895Y-89167544D01*
X138396895Y-89167544D02*
X138511180Y-89243735D01*
X138511180Y-89243735D02*
X138587371Y-89319925D01*
X138587371Y-89319925D02*
X138625466Y-89396116D01*
X138396895Y-88443734D02*
X138396895Y-88367544D01*
X138396895Y-88367544D02*
X138434990Y-88291353D01*
X138434990Y-88291353D02*
X138473085Y-88253258D01*
X138473085Y-88253258D02*
X138549276Y-88215163D01*
X138549276Y-88215163D02*
X138701657Y-88177068D01*
X138701657Y-88177068D02*
X138892133Y-88177068D01*
X138892133Y-88177068D02*
X139044514Y-88215163D01*
X139044514Y-88215163D02*
X139120704Y-88253258D01*
X139120704Y-88253258D02*
X139158800Y-88291353D01*
X139158800Y-88291353D02*
X139196895Y-88367544D01*
X139196895Y-88367544D02*
X139196895Y-88443734D01*
X139196895Y-88443734D02*
X139158800Y-88519925D01*
X139158800Y-88519925D02*
X139120704Y-88558020D01*
X139120704Y-88558020D02*
X139044514Y-88596115D01*
X139044514Y-88596115D02*
X138892133Y-88634211D01*
X138892133Y-88634211D02*
X138701657Y-88634211D01*
X138701657Y-88634211D02*
X138549276Y-88596115D01*
X138549276Y-88596115D02*
X138473085Y-88558020D01*
X138473085Y-88558020D02*
X138434990Y-88519925D01*
X138434990Y-88519925D02*
X138396895Y-88443734D01*
X146896895Y-90958020D02*
X146096895Y-90958020D01*
X146096895Y-90958020D02*
X146096895Y-90653258D01*
X146096895Y-90653258D02*
X146134990Y-90577068D01*
X146134990Y-90577068D02*
X146173085Y-90538973D01*
X146173085Y-90538973D02*
X146249276Y-90500877D01*
X146249276Y-90500877D02*
X146363561Y-90500877D01*
X146363561Y-90500877D02*
X146439752Y-90538973D01*
X146439752Y-90538973D02*
X146477847Y-90577068D01*
X146477847Y-90577068D02*
X146515942Y-90653258D01*
X146515942Y-90653258D02*
X146515942Y-90958020D01*
X146477847Y-89891354D02*
X146515942Y-89777068D01*
X146515942Y-89777068D02*
X146554038Y-89738973D01*
X146554038Y-89738973D02*
X146630228Y-89700877D01*
X146630228Y-89700877D02*
X146744514Y-89700877D01*
X146744514Y-89700877D02*
X146820704Y-89738973D01*
X146820704Y-89738973D02*
X146858800Y-89777068D01*
X146858800Y-89777068D02*
X146896895Y-89853258D01*
X146896895Y-89853258D02*
X146896895Y-90158020D01*
X146896895Y-90158020D02*
X146096895Y-90158020D01*
X146096895Y-90158020D02*
X146096895Y-89891354D01*
X146096895Y-89891354D02*
X146134990Y-89815163D01*
X146134990Y-89815163D02*
X146173085Y-89777068D01*
X146173085Y-89777068D02*
X146249276Y-89738973D01*
X146249276Y-89738973D02*
X146325466Y-89738973D01*
X146325466Y-89738973D02*
X146401657Y-89777068D01*
X146401657Y-89777068D02*
X146439752Y-89815163D01*
X146439752Y-89815163D02*
X146477847Y-89891354D01*
X146477847Y-89891354D02*
X146477847Y-90158020D01*
X146896895Y-88938973D02*
X146896895Y-89396116D01*
X146896895Y-89167544D02*
X146096895Y-89167544D01*
X146096895Y-89167544D02*
X146211180Y-89243735D01*
X146211180Y-89243735D02*
X146287371Y-89319925D01*
X146287371Y-89319925D02*
X146325466Y-89396116D01*
X146096895Y-88672306D02*
X146096895Y-88177068D01*
X146096895Y-88177068D02*
X146401657Y-88443734D01*
X146401657Y-88443734D02*
X146401657Y-88329449D01*
X146401657Y-88329449D02*
X146439752Y-88253258D01*
X146439752Y-88253258D02*
X146477847Y-88215163D01*
X146477847Y-88215163D02*
X146554038Y-88177068D01*
X146554038Y-88177068D02*
X146744514Y-88177068D01*
X146744514Y-88177068D02*
X146820704Y-88215163D01*
X146820704Y-88215163D02*
X146858800Y-88253258D01*
X146858800Y-88253258D02*
X146896895Y-88329449D01*
X146896895Y-88329449D02*
X146896895Y-88558020D01*
X146896895Y-88558020D02*
X146858800Y-88634211D01*
X146858800Y-88634211D02*
X146820704Y-88672306D01*
X131596895Y-116143734D02*
X130796895Y-116143734D01*
X130796895Y-116143734D02*
X130796895Y-115838972D01*
X130796895Y-115838972D02*
X130834990Y-115762782D01*
X130834990Y-115762782D02*
X130873085Y-115724687D01*
X130873085Y-115724687D02*
X130949276Y-115686591D01*
X130949276Y-115686591D02*
X131063561Y-115686591D01*
X131063561Y-115686591D02*
X131139752Y-115724687D01*
X131139752Y-115724687D02*
X131177847Y-115762782D01*
X131177847Y-115762782D02*
X131215942Y-115838972D01*
X131215942Y-115838972D02*
X131215942Y-116143734D01*
X131368323Y-115381830D02*
X131368323Y-115000877D01*
X131596895Y-115458020D02*
X130796895Y-115191353D01*
X130796895Y-115191353D02*
X131596895Y-114924687D01*
X130873085Y-114696116D02*
X130834990Y-114658020D01*
X130834990Y-114658020D02*
X130796895Y-114581830D01*
X130796895Y-114581830D02*
X130796895Y-114391354D01*
X130796895Y-114391354D02*
X130834990Y-114315163D01*
X130834990Y-114315163D02*
X130873085Y-114277068D01*
X130873085Y-114277068D02*
X130949276Y-114238973D01*
X130949276Y-114238973D02*
X131025466Y-114238973D01*
X131025466Y-114238973D02*
X131139752Y-114277068D01*
X131139752Y-114277068D02*
X131596895Y-114734211D01*
X131596895Y-114734211D02*
X131596895Y-114238973D01*
X148634990Y-115915163D02*
X148596895Y-115991353D01*
X148596895Y-115991353D02*
X148596895Y-116105639D01*
X148596895Y-116105639D02*
X148634990Y-116219925D01*
X148634990Y-116219925D02*
X148711180Y-116296115D01*
X148711180Y-116296115D02*
X148787371Y-116334210D01*
X148787371Y-116334210D02*
X148939752Y-116372306D01*
X148939752Y-116372306D02*
X149054038Y-116372306D01*
X149054038Y-116372306D02*
X149206419Y-116334210D01*
X149206419Y-116334210D02*
X149282609Y-116296115D01*
X149282609Y-116296115D02*
X149358800Y-116219925D01*
X149358800Y-116219925D02*
X149396895Y-116105639D01*
X149396895Y-116105639D02*
X149396895Y-116029448D01*
X149396895Y-116029448D02*
X149358800Y-115915163D01*
X149358800Y-115915163D02*
X149320704Y-115877067D01*
X149320704Y-115877067D02*
X149054038Y-115877067D01*
X149054038Y-115877067D02*
X149054038Y-116029448D01*
X149396895Y-115534210D02*
X148596895Y-115534210D01*
X148596895Y-115534210D02*
X149396895Y-115077067D01*
X149396895Y-115077067D02*
X148596895Y-115077067D01*
X149396895Y-114696115D02*
X148596895Y-114696115D01*
X148596895Y-114696115D02*
X148596895Y-114505639D01*
X148596895Y-114505639D02*
X148634990Y-114391353D01*
X148634990Y-114391353D02*
X148711180Y-114315163D01*
X148711180Y-114315163D02*
X148787371Y-114277068D01*
X148787371Y-114277068D02*
X148939752Y-114238972D01*
X148939752Y-114238972D02*
X149054038Y-114238972D01*
X149054038Y-114238972D02*
X149206419Y-114277068D01*
X149206419Y-114277068D02*
X149282609Y-114315163D01*
X149282609Y-114315163D02*
X149358800Y-114391353D01*
X149358800Y-114391353D02*
X149396895Y-114505639D01*
X149396895Y-114505639D02*
X149396895Y-114696115D01*
X134096895Y-116143734D02*
X133296895Y-116143734D01*
X133296895Y-116143734D02*
X133296895Y-115838972D01*
X133296895Y-115838972D02*
X133334990Y-115762782D01*
X133334990Y-115762782D02*
X133373085Y-115724687D01*
X133373085Y-115724687D02*
X133449276Y-115686591D01*
X133449276Y-115686591D02*
X133563561Y-115686591D01*
X133563561Y-115686591D02*
X133639752Y-115724687D01*
X133639752Y-115724687D02*
X133677847Y-115762782D01*
X133677847Y-115762782D02*
X133715942Y-115838972D01*
X133715942Y-115838972D02*
X133715942Y-116143734D01*
X133868323Y-115381830D02*
X133868323Y-115000877D01*
X134096895Y-115458020D02*
X133296895Y-115191353D01*
X133296895Y-115191353D02*
X134096895Y-114924687D01*
X133563561Y-114315163D02*
X134096895Y-114315163D01*
X133258800Y-114505639D02*
X133830228Y-114696116D01*
X133830228Y-114696116D02*
X133830228Y-114200877D01*
X146796895Y-117019925D02*
X145996895Y-117019925D01*
X145996895Y-117019925D02*
X145996895Y-116715163D01*
X145996895Y-116715163D02*
X146034990Y-116638973D01*
X146034990Y-116638973D02*
X146073085Y-116600878D01*
X146073085Y-116600878D02*
X146149276Y-116562782D01*
X146149276Y-116562782D02*
X146263561Y-116562782D01*
X146263561Y-116562782D02*
X146339752Y-116600878D01*
X146339752Y-116600878D02*
X146377847Y-116638973D01*
X146377847Y-116638973D02*
X146415942Y-116715163D01*
X146415942Y-116715163D02*
X146415942Y-117019925D01*
X146377847Y-115953259D02*
X146415942Y-115838973D01*
X146415942Y-115838973D02*
X146454038Y-115800878D01*
X146454038Y-115800878D02*
X146530228Y-115762782D01*
X146530228Y-115762782D02*
X146644514Y-115762782D01*
X146644514Y-115762782D02*
X146720704Y-115800878D01*
X146720704Y-115800878D02*
X146758800Y-115838973D01*
X146758800Y-115838973D02*
X146796895Y-115915163D01*
X146796895Y-115915163D02*
X146796895Y-116219925D01*
X146796895Y-116219925D02*
X145996895Y-116219925D01*
X145996895Y-116219925D02*
X145996895Y-115953259D01*
X145996895Y-115953259D02*
X146034990Y-115877068D01*
X146034990Y-115877068D02*
X146073085Y-115838973D01*
X146073085Y-115838973D02*
X146149276Y-115800878D01*
X146149276Y-115800878D02*
X146225466Y-115800878D01*
X146225466Y-115800878D02*
X146301657Y-115838973D01*
X146301657Y-115838973D02*
X146339752Y-115877068D01*
X146339752Y-115877068D02*
X146377847Y-115953259D01*
X146377847Y-115953259D02*
X146377847Y-116219925D01*
X146796895Y-115000878D02*
X146796895Y-115458021D01*
X146796895Y-115229449D02*
X145996895Y-115229449D01*
X145996895Y-115229449D02*
X146111180Y-115305640D01*
X146111180Y-115305640D02*
X146187371Y-115381830D01*
X146187371Y-115381830D02*
X146225466Y-115458021D01*
X145996895Y-114505639D02*
X145996895Y-114429449D01*
X145996895Y-114429449D02*
X146034990Y-114353258D01*
X146034990Y-114353258D02*
X146073085Y-114315163D01*
X146073085Y-114315163D02*
X146149276Y-114277068D01*
X146149276Y-114277068D02*
X146301657Y-114238973D01*
X146301657Y-114238973D02*
X146492133Y-114238973D01*
X146492133Y-114238973D02*
X146644514Y-114277068D01*
X146644514Y-114277068D02*
X146720704Y-114315163D01*
X146720704Y-114315163D02*
X146758800Y-114353258D01*
X146758800Y-114353258D02*
X146796895Y-114429449D01*
X146796895Y-114429449D02*
X146796895Y-114505639D01*
X146796895Y-114505639D02*
X146758800Y-114581830D01*
X146758800Y-114581830D02*
X146720704Y-114619925D01*
X146720704Y-114619925D02*
X146644514Y-114658020D01*
X146644514Y-114658020D02*
X146492133Y-114696116D01*
X146492133Y-114696116D02*
X146301657Y-114696116D01*
X146301657Y-114696116D02*
X146149276Y-114658020D01*
X146149276Y-114658020D02*
X146073085Y-114619925D01*
X146073085Y-114619925D02*
X146034990Y-114581830D01*
X146034990Y-114581830D02*
X145996895Y-114505639D01*
X126496895Y-108363734D02*
X125696895Y-108363734D01*
X125696895Y-108363734D02*
X125696895Y-108058972D01*
X125696895Y-108058972D02*
X125734990Y-107982782D01*
X125734990Y-107982782D02*
X125773085Y-107944687D01*
X125773085Y-107944687D02*
X125849276Y-107906591D01*
X125849276Y-107906591D02*
X125963561Y-107906591D01*
X125963561Y-107906591D02*
X126039752Y-107944687D01*
X126039752Y-107944687D02*
X126077847Y-107982782D01*
X126077847Y-107982782D02*
X126115942Y-108058972D01*
X126115942Y-108058972D02*
X126115942Y-108363734D01*
X126420704Y-107106591D02*
X126458800Y-107144687D01*
X126458800Y-107144687D02*
X126496895Y-107258972D01*
X126496895Y-107258972D02*
X126496895Y-107335163D01*
X126496895Y-107335163D02*
X126458800Y-107449449D01*
X126458800Y-107449449D02*
X126382609Y-107525639D01*
X126382609Y-107525639D02*
X126306419Y-107563734D01*
X126306419Y-107563734D02*
X126154038Y-107601830D01*
X126154038Y-107601830D02*
X126039752Y-107601830D01*
X126039752Y-107601830D02*
X125887371Y-107563734D01*
X125887371Y-107563734D02*
X125811180Y-107525639D01*
X125811180Y-107525639D02*
X125734990Y-107449449D01*
X125734990Y-107449449D02*
X125696895Y-107335163D01*
X125696895Y-107335163D02*
X125696895Y-107258972D01*
X125696895Y-107258972D02*
X125734990Y-107144687D01*
X125734990Y-107144687D02*
X125773085Y-107106591D01*
X126496895Y-106344687D02*
X126496895Y-106801830D01*
X126496895Y-106573258D02*
X125696895Y-106573258D01*
X125696895Y-106573258D02*
X125811180Y-106649449D01*
X125811180Y-106649449D02*
X125887371Y-106725639D01*
X125887371Y-106725639D02*
X125925466Y-106801830D01*
X125963561Y-105658972D02*
X126496895Y-105658972D01*
X125658800Y-105849448D02*
X126230228Y-106039925D01*
X126230228Y-106039925D02*
X126230228Y-105544686D01*
X136996895Y-82243734D02*
X136196895Y-82243734D01*
X136196895Y-82243734D02*
X136196895Y-81938972D01*
X136196895Y-81938972D02*
X136234990Y-81862782D01*
X136234990Y-81862782D02*
X136273085Y-81824687D01*
X136273085Y-81824687D02*
X136349276Y-81786591D01*
X136349276Y-81786591D02*
X136463561Y-81786591D01*
X136463561Y-81786591D02*
X136539752Y-81824687D01*
X136539752Y-81824687D02*
X136577847Y-81862782D01*
X136577847Y-81862782D02*
X136615942Y-81938972D01*
X136615942Y-81938972D02*
X136615942Y-82243734D01*
X136768323Y-81481830D02*
X136768323Y-81100877D01*
X136996895Y-81558020D02*
X136196895Y-81291353D01*
X136196895Y-81291353D02*
X136996895Y-81024687D01*
X136996895Y-80338973D02*
X136996895Y-80796116D01*
X136996895Y-80567544D02*
X136196895Y-80567544D01*
X136196895Y-80567544D02*
X136311180Y-80643735D01*
X136311180Y-80643735D02*
X136387371Y-80719925D01*
X136387371Y-80719925D02*
X136425466Y-80796116D01*
X136996895Y-79577068D02*
X136996895Y-80034211D01*
X136996895Y-79805639D02*
X136196895Y-79805639D01*
X136196895Y-79805639D02*
X136311180Y-79881830D01*
X136311180Y-79881830D02*
X136387371Y-79958020D01*
X136387371Y-79958020D02*
X136425466Y-80034211D01*
X123927847Y-81977068D02*
X123965942Y-81862782D01*
X123965942Y-81862782D02*
X124004038Y-81824687D01*
X124004038Y-81824687D02*
X124080228Y-81786591D01*
X124080228Y-81786591D02*
X124194514Y-81786591D01*
X124194514Y-81786591D02*
X124270704Y-81824687D01*
X124270704Y-81824687D02*
X124308800Y-81862782D01*
X124308800Y-81862782D02*
X124346895Y-81938972D01*
X124346895Y-81938972D02*
X124346895Y-82243734D01*
X124346895Y-82243734D02*
X123546895Y-82243734D01*
X123546895Y-82243734D02*
X123546895Y-81977068D01*
X123546895Y-81977068D02*
X123584990Y-81900877D01*
X123584990Y-81900877D02*
X123623085Y-81862782D01*
X123623085Y-81862782D02*
X123699276Y-81824687D01*
X123699276Y-81824687D02*
X123775466Y-81824687D01*
X123775466Y-81824687D02*
X123851657Y-81862782D01*
X123851657Y-81862782D02*
X123889752Y-81900877D01*
X123889752Y-81900877D02*
X123927847Y-81977068D01*
X123927847Y-81977068D02*
X123927847Y-82243734D01*
X123546895Y-81291353D02*
X123546895Y-81138972D01*
X123546895Y-81138972D02*
X123584990Y-81062782D01*
X123584990Y-81062782D02*
X123661180Y-80986591D01*
X123661180Y-80986591D02*
X123813561Y-80948496D01*
X123813561Y-80948496D02*
X124080228Y-80948496D01*
X124080228Y-80948496D02*
X124232609Y-80986591D01*
X124232609Y-80986591D02*
X124308800Y-81062782D01*
X124308800Y-81062782D02*
X124346895Y-81138972D01*
X124346895Y-81138972D02*
X124346895Y-81291353D01*
X124346895Y-81291353D02*
X124308800Y-81367544D01*
X124308800Y-81367544D02*
X124232609Y-81443734D01*
X124232609Y-81443734D02*
X124080228Y-81481830D01*
X124080228Y-81481830D02*
X123813561Y-81481830D01*
X123813561Y-81481830D02*
X123661180Y-81443734D01*
X123661180Y-81443734D02*
X123584990Y-81367544D01*
X123584990Y-81367544D02*
X123546895Y-81291353D01*
X123546895Y-80453258D02*
X123546895Y-80300877D01*
X123546895Y-80300877D02*
X123584990Y-80224687D01*
X123584990Y-80224687D02*
X123661180Y-80148496D01*
X123661180Y-80148496D02*
X123813561Y-80110401D01*
X123813561Y-80110401D02*
X124080228Y-80110401D01*
X124080228Y-80110401D02*
X124232609Y-80148496D01*
X124232609Y-80148496D02*
X124308800Y-80224687D01*
X124308800Y-80224687D02*
X124346895Y-80300877D01*
X124346895Y-80300877D02*
X124346895Y-80453258D01*
X124346895Y-80453258D02*
X124308800Y-80529449D01*
X124308800Y-80529449D02*
X124232609Y-80605639D01*
X124232609Y-80605639D02*
X124080228Y-80643735D01*
X124080228Y-80643735D02*
X123813561Y-80643735D01*
X123813561Y-80643735D02*
X123661180Y-80605639D01*
X123661180Y-80605639D02*
X123584990Y-80529449D01*
X123584990Y-80529449D02*
X123546895Y-80453258D01*
X123546895Y-79881830D02*
X123546895Y-79424687D01*
X124346895Y-79653259D02*
X123546895Y-79653259D01*
X148634990Y-107944687D02*
X148596895Y-108020877D01*
X148596895Y-108020877D02*
X148596895Y-108135163D01*
X148596895Y-108135163D02*
X148634990Y-108249449D01*
X148634990Y-108249449D02*
X148711180Y-108325639D01*
X148711180Y-108325639D02*
X148787371Y-108363734D01*
X148787371Y-108363734D02*
X148939752Y-108401830D01*
X148939752Y-108401830D02*
X149054038Y-108401830D01*
X149054038Y-108401830D02*
X149206419Y-108363734D01*
X149206419Y-108363734D02*
X149282609Y-108325639D01*
X149282609Y-108325639D02*
X149358800Y-108249449D01*
X149358800Y-108249449D02*
X149396895Y-108135163D01*
X149396895Y-108135163D02*
X149396895Y-108058972D01*
X149396895Y-108058972D02*
X149358800Y-107944687D01*
X149358800Y-107944687D02*
X149320704Y-107906591D01*
X149320704Y-107906591D02*
X149054038Y-107906591D01*
X149054038Y-107906591D02*
X149054038Y-108058972D01*
X149396895Y-107563734D02*
X148596895Y-107563734D01*
X148596895Y-107563734D02*
X149396895Y-107106591D01*
X149396895Y-107106591D02*
X148596895Y-107106591D01*
X149396895Y-106725639D02*
X148596895Y-106725639D01*
X148596895Y-106725639D02*
X148596895Y-106535163D01*
X148596895Y-106535163D02*
X148634990Y-106420877D01*
X148634990Y-106420877D02*
X148711180Y-106344687D01*
X148711180Y-106344687D02*
X148787371Y-106306592D01*
X148787371Y-106306592D02*
X148939752Y-106268496D01*
X148939752Y-106268496D02*
X149054038Y-106268496D01*
X149054038Y-106268496D02*
X149206419Y-106306592D01*
X149206419Y-106306592D02*
X149282609Y-106344687D01*
X149282609Y-106344687D02*
X149358800Y-106420877D01*
X149358800Y-106420877D02*
X149396895Y-106535163D01*
X149396895Y-106535163D02*
X149396895Y-106725639D01*
X136646895Y-90843734D02*
X135846895Y-90843734D01*
X135846895Y-90843734D02*
X135846895Y-90538972D01*
X135846895Y-90538972D02*
X135884990Y-90462782D01*
X135884990Y-90462782D02*
X135923085Y-90424687D01*
X135923085Y-90424687D02*
X135999276Y-90386591D01*
X135999276Y-90386591D02*
X136113561Y-90386591D01*
X136113561Y-90386591D02*
X136189752Y-90424687D01*
X136189752Y-90424687D02*
X136227847Y-90462782D01*
X136227847Y-90462782D02*
X136265942Y-90538972D01*
X136265942Y-90538972D02*
X136265942Y-90843734D01*
X136418323Y-90081830D02*
X136418323Y-89700877D01*
X136646895Y-90158020D02*
X135846895Y-89891353D01*
X135846895Y-89891353D02*
X136646895Y-89624687D01*
X136646895Y-88938973D02*
X136646895Y-89396116D01*
X136646895Y-89167544D02*
X135846895Y-89167544D01*
X135846895Y-89167544D02*
X135961180Y-89243735D01*
X135961180Y-89243735D02*
X136037371Y-89319925D01*
X136037371Y-89319925D02*
X136075466Y-89396116D01*
X135923085Y-88634211D02*
X135884990Y-88596115D01*
X135884990Y-88596115D02*
X135846895Y-88519925D01*
X135846895Y-88519925D02*
X135846895Y-88329449D01*
X135846895Y-88329449D02*
X135884990Y-88253258D01*
X135884990Y-88253258D02*
X135923085Y-88215163D01*
X135923085Y-88215163D02*
X135999276Y-88177068D01*
X135999276Y-88177068D02*
X136075466Y-88177068D01*
X136075466Y-88177068D02*
X136189752Y-88215163D01*
X136189752Y-88215163D02*
X136646895Y-88672306D01*
X136646895Y-88672306D02*
X136646895Y-88177068D01*
X151096895Y-114962782D02*
X151096895Y-115343734D01*
X151096895Y-115343734D02*
X151477847Y-115381830D01*
X151477847Y-115381830D02*
X151439752Y-115343734D01*
X151439752Y-115343734D02*
X151401657Y-115267544D01*
X151401657Y-115267544D02*
X151401657Y-115077068D01*
X151401657Y-115077068D02*
X151439752Y-115000877D01*
X151439752Y-115000877D02*
X151477847Y-114962782D01*
X151477847Y-114962782D02*
X151554038Y-114924687D01*
X151554038Y-114924687D02*
X151744514Y-114924687D01*
X151744514Y-114924687D02*
X151820704Y-114962782D01*
X151820704Y-114962782D02*
X151858800Y-115000877D01*
X151858800Y-115000877D02*
X151896895Y-115077068D01*
X151896895Y-115077068D02*
X151896895Y-115267544D01*
X151896895Y-115267544D02*
X151858800Y-115343734D01*
X151858800Y-115343734D02*
X151820704Y-115381830D01*
X151096895Y-114696115D02*
X151896895Y-114429448D01*
X151896895Y-114429448D02*
X151096895Y-114162782D01*
X146796895Y-82243734D02*
X145996895Y-82243734D01*
X145996895Y-82243734D02*
X145996895Y-81938972D01*
X145996895Y-81938972D02*
X146034990Y-81862782D01*
X146034990Y-81862782D02*
X146073085Y-81824687D01*
X146073085Y-81824687D02*
X146149276Y-81786591D01*
X146149276Y-81786591D02*
X146263561Y-81786591D01*
X146263561Y-81786591D02*
X146339752Y-81824687D01*
X146339752Y-81824687D02*
X146377847Y-81862782D01*
X146377847Y-81862782D02*
X146415942Y-81938972D01*
X146415942Y-81938972D02*
X146415942Y-82243734D01*
X146377847Y-81177068D02*
X146415942Y-81062782D01*
X146415942Y-81062782D02*
X146454038Y-81024687D01*
X146454038Y-81024687D02*
X146530228Y-80986591D01*
X146530228Y-80986591D02*
X146644514Y-80986591D01*
X146644514Y-80986591D02*
X146720704Y-81024687D01*
X146720704Y-81024687D02*
X146758800Y-81062782D01*
X146758800Y-81062782D02*
X146796895Y-81138972D01*
X146796895Y-81138972D02*
X146796895Y-81443734D01*
X146796895Y-81443734D02*
X145996895Y-81443734D01*
X145996895Y-81443734D02*
X145996895Y-81177068D01*
X145996895Y-81177068D02*
X146034990Y-81100877D01*
X146034990Y-81100877D02*
X146073085Y-81062782D01*
X146073085Y-81062782D02*
X146149276Y-81024687D01*
X146149276Y-81024687D02*
X146225466Y-81024687D01*
X146225466Y-81024687D02*
X146301657Y-81062782D01*
X146301657Y-81062782D02*
X146339752Y-81100877D01*
X146339752Y-81100877D02*
X146377847Y-81177068D01*
X146377847Y-81177068D02*
X146377847Y-81443734D01*
X146796895Y-80224687D02*
X146796895Y-80681830D01*
X146796895Y-80453258D02*
X145996895Y-80453258D01*
X145996895Y-80453258D02*
X146111180Y-80529449D01*
X146111180Y-80529449D02*
X146187371Y-80605639D01*
X146187371Y-80605639D02*
X146225466Y-80681830D01*
X146073085Y-79919925D02*
X146034990Y-79881829D01*
X146034990Y-79881829D02*
X145996895Y-79805639D01*
X145996895Y-79805639D02*
X145996895Y-79615163D01*
X145996895Y-79615163D02*
X146034990Y-79538972D01*
X146034990Y-79538972D02*
X146073085Y-79500877D01*
X146073085Y-79500877D02*
X146149276Y-79462782D01*
X146149276Y-79462782D02*
X146225466Y-79462782D01*
X146225466Y-79462782D02*
X146339752Y-79500877D01*
X146339752Y-79500877D02*
X146796895Y-79958020D01*
X146796895Y-79958020D02*
X146796895Y-79462782D01*
X129096895Y-116143734D02*
X128296895Y-116143734D01*
X128296895Y-116143734D02*
X128296895Y-115838972D01*
X128296895Y-115838972D02*
X128334990Y-115762782D01*
X128334990Y-115762782D02*
X128373085Y-115724687D01*
X128373085Y-115724687D02*
X128449276Y-115686591D01*
X128449276Y-115686591D02*
X128563561Y-115686591D01*
X128563561Y-115686591D02*
X128639752Y-115724687D01*
X128639752Y-115724687D02*
X128677847Y-115762782D01*
X128677847Y-115762782D02*
X128715942Y-115838972D01*
X128715942Y-115838972D02*
X128715942Y-116143734D01*
X128868323Y-115381830D02*
X128868323Y-115000877D01*
X129096895Y-115458020D02*
X128296895Y-115191353D01*
X128296895Y-115191353D02*
X129096895Y-114924687D01*
X128296895Y-114505639D02*
X128296895Y-114429449D01*
X128296895Y-114429449D02*
X128334990Y-114353258D01*
X128334990Y-114353258D02*
X128373085Y-114315163D01*
X128373085Y-114315163D02*
X128449276Y-114277068D01*
X128449276Y-114277068D02*
X128601657Y-114238973D01*
X128601657Y-114238973D02*
X128792133Y-114238973D01*
X128792133Y-114238973D02*
X128944514Y-114277068D01*
X128944514Y-114277068D02*
X129020704Y-114315163D01*
X129020704Y-114315163D02*
X129058800Y-114353258D01*
X129058800Y-114353258D02*
X129096895Y-114429449D01*
X129096895Y-114429449D02*
X129096895Y-114505639D01*
X129096895Y-114505639D02*
X129058800Y-114581830D01*
X129058800Y-114581830D02*
X129020704Y-114619925D01*
X129020704Y-114619925D02*
X128944514Y-114658020D01*
X128944514Y-114658020D02*
X128792133Y-114696116D01*
X128792133Y-114696116D02*
X128601657Y-114696116D01*
X128601657Y-114696116D02*
X128449276Y-114658020D01*
X128449276Y-114658020D02*
X128373085Y-114619925D01*
X128373085Y-114619925D02*
X128334990Y-114581830D01*
X128334990Y-114581830D02*
X128296895Y-114505639D01*
X150596895Y-107982782D02*
X150596895Y-108363734D01*
X150596895Y-108363734D02*
X150977847Y-108401830D01*
X150977847Y-108401830D02*
X150939752Y-108363734D01*
X150939752Y-108363734D02*
X150901657Y-108287544D01*
X150901657Y-108287544D02*
X150901657Y-108097068D01*
X150901657Y-108097068D02*
X150939752Y-108020877D01*
X150939752Y-108020877D02*
X150977847Y-107982782D01*
X150977847Y-107982782D02*
X151054038Y-107944687D01*
X151054038Y-107944687D02*
X151244514Y-107944687D01*
X151244514Y-107944687D02*
X151320704Y-107982782D01*
X151320704Y-107982782D02*
X151358800Y-108020877D01*
X151358800Y-108020877D02*
X151396895Y-108097068D01*
X151396895Y-108097068D02*
X151396895Y-108287544D01*
X151396895Y-108287544D02*
X151358800Y-108363734D01*
X151358800Y-108363734D02*
X151320704Y-108401830D01*
X150596895Y-107716115D02*
X151396895Y-107449448D01*
X151396895Y-107449448D02*
X150596895Y-107182782D01*
X131646895Y-108363734D02*
X130846895Y-108363734D01*
X130846895Y-108363734D02*
X130846895Y-108058972D01*
X130846895Y-108058972D02*
X130884990Y-107982782D01*
X130884990Y-107982782D02*
X130923085Y-107944687D01*
X130923085Y-107944687D02*
X130999276Y-107906591D01*
X130999276Y-107906591D02*
X131113561Y-107906591D01*
X131113561Y-107906591D02*
X131189752Y-107944687D01*
X131189752Y-107944687D02*
X131227847Y-107982782D01*
X131227847Y-107982782D02*
X131265942Y-108058972D01*
X131265942Y-108058972D02*
X131265942Y-108363734D01*
X131418323Y-107601830D02*
X131418323Y-107220877D01*
X131646895Y-107678020D02*
X130846895Y-107411353D01*
X130846895Y-107411353D02*
X131646895Y-107144687D01*
X131646895Y-106458973D02*
X131646895Y-106916116D01*
X131646895Y-106687544D02*
X130846895Y-106687544D01*
X130846895Y-106687544D02*
X130961180Y-106763735D01*
X130961180Y-106763735D02*
X131037371Y-106839925D01*
X131037371Y-106839925D02*
X131075466Y-106916116D01*
X129046895Y-90196115D02*
X128246895Y-90196115D01*
X128246895Y-90196115D02*
X128246895Y-89891353D01*
X128246895Y-89891353D02*
X128284990Y-89815163D01*
X128284990Y-89815163D02*
X128323085Y-89777068D01*
X128323085Y-89777068D02*
X128399276Y-89738972D01*
X128399276Y-89738972D02*
X128513561Y-89738972D01*
X128513561Y-89738972D02*
X128589752Y-89777068D01*
X128589752Y-89777068D02*
X128627847Y-89815163D01*
X128627847Y-89815163D02*
X128665942Y-89891353D01*
X128665942Y-89891353D02*
X128665942Y-90196115D01*
X128627847Y-89129449D02*
X128665942Y-89015163D01*
X128665942Y-89015163D02*
X128704038Y-88977068D01*
X128704038Y-88977068D02*
X128780228Y-88938972D01*
X128780228Y-88938972D02*
X128894514Y-88938972D01*
X128894514Y-88938972D02*
X128970704Y-88977068D01*
X128970704Y-88977068D02*
X129008800Y-89015163D01*
X129008800Y-89015163D02*
X129046895Y-89091353D01*
X129046895Y-89091353D02*
X129046895Y-89396115D01*
X129046895Y-89396115D02*
X128246895Y-89396115D01*
X128246895Y-89396115D02*
X128246895Y-89129449D01*
X128246895Y-89129449D02*
X128284990Y-89053258D01*
X128284990Y-89053258D02*
X128323085Y-89015163D01*
X128323085Y-89015163D02*
X128399276Y-88977068D01*
X128399276Y-88977068D02*
X128475466Y-88977068D01*
X128475466Y-88977068D02*
X128551657Y-89015163D01*
X128551657Y-89015163D02*
X128589752Y-89053258D01*
X128589752Y-89053258D02*
X128627847Y-89129449D01*
X128627847Y-89129449D02*
X128627847Y-89396115D01*
X128246895Y-88215163D02*
X128246895Y-88596115D01*
X128246895Y-88596115D02*
X128627847Y-88634211D01*
X128627847Y-88634211D02*
X128589752Y-88596115D01*
X128589752Y-88596115D02*
X128551657Y-88519925D01*
X128551657Y-88519925D02*
X128551657Y-88329449D01*
X128551657Y-88329449D02*
X128589752Y-88253258D01*
X128589752Y-88253258D02*
X128627847Y-88215163D01*
X128627847Y-88215163D02*
X128704038Y-88177068D01*
X128704038Y-88177068D02*
X128894514Y-88177068D01*
X128894514Y-88177068D02*
X128970704Y-88215163D01*
X128970704Y-88215163D02*
X129008800Y-88253258D01*
X129008800Y-88253258D02*
X129046895Y-88329449D01*
X129046895Y-88329449D02*
X129046895Y-88519925D01*
X129046895Y-88519925D02*
X129008800Y-88596115D01*
X129008800Y-88596115D02*
X128970704Y-88634211D01*
X148634990Y-81824687D02*
X148596895Y-81900877D01*
X148596895Y-81900877D02*
X148596895Y-82015163D01*
X148596895Y-82015163D02*
X148634990Y-82129449D01*
X148634990Y-82129449D02*
X148711180Y-82205639D01*
X148711180Y-82205639D02*
X148787371Y-82243734D01*
X148787371Y-82243734D02*
X148939752Y-82281830D01*
X148939752Y-82281830D02*
X149054038Y-82281830D01*
X149054038Y-82281830D02*
X149206419Y-82243734D01*
X149206419Y-82243734D02*
X149282609Y-82205639D01*
X149282609Y-82205639D02*
X149358800Y-82129449D01*
X149358800Y-82129449D02*
X149396895Y-82015163D01*
X149396895Y-82015163D02*
X149396895Y-81938972D01*
X149396895Y-81938972D02*
X149358800Y-81824687D01*
X149358800Y-81824687D02*
X149320704Y-81786591D01*
X149320704Y-81786591D02*
X149054038Y-81786591D01*
X149054038Y-81786591D02*
X149054038Y-81938972D01*
X149396895Y-81443734D02*
X148596895Y-81443734D01*
X148596895Y-81443734D02*
X149396895Y-80986591D01*
X149396895Y-80986591D02*
X148596895Y-80986591D01*
X149396895Y-80605639D02*
X148596895Y-80605639D01*
X148596895Y-80605639D02*
X148596895Y-80415163D01*
X148596895Y-80415163D02*
X148634990Y-80300877D01*
X148634990Y-80300877D02*
X148711180Y-80224687D01*
X148711180Y-80224687D02*
X148787371Y-80186592D01*
X148787371Y-80186592D02*
X148939752Y-80148496D01*
X148939752Y-80148496D02*
X149054038Y-80148496D01*
X149054038Y-80148496D02*
X149206419Y-80186592D01*
X149206419Y-80186592D02*
X149282609Y-80224687D01*
X149282609Y-80224687D02*
X149358800Y-80300877D01*
X149358800Y-80300877D02*
X149396895Y-80415163D01*
X149396895Y-80415163D02*
X149396895Y-80605639D01*
X141796895Y-108363734D02*
X140996895Y-108363734D01*
X140996895Y-108363734D02*
X140996895Y-108058972D01*
X140996895Y-108058972D02*
X141034990Y-107982782D01*
X141034990Y-107982782D02*
X141073085Y-107944687D01*
X141073085Y-107944687D02*
X141149276Y-107906591D01*
X141149276Y-107906591D02*
X141263561Y-107906591D01*
X141263561Y-107906591D02*
X141339752Y-107944687D01*
X141339752Y-107944687D02*
X141377847Y-107982782D01*
X141377847Y-107982782D02*
X141415942Y-108058972D01*
X141415942Y-108058972D02*
X141415942Y-108363734D01*
X141377847Y-107297068D02*
X141415942Y-107182782D01*
X141415942Y-107182782D02*
X141454038Y-107144687D01*
X141454038Y-107144687D02*
X141530228Y-107106591D01*
X141530228Y-107106591D02*
X141644514Y-107106591D01*
X141644514Y-107106591D02*
X141720704Y-107144687D01*
X141720704Y-107144687D02*
X141758800Y-107182782D01*
X141758800Y-107182782D02*
X141796895Y-107258972D01*
X141796895Y-107258972D02*
X141796895Y-107563734D01*
X141796895Y-107563734D02*
X140996895Y-107563734D01*
X140996895Y-107563734D02*
X140996895Y-107297068D01*
X140996895Y-107297068D02*
X141034990Y-107220877D01*
X141034990Y-107220877D02*
X141073085Y-107182782D01*
X141073085Y-107182782D02*
X141149276Y-107144687D01*
X141149276Y-107144687D02*
X141225466Y-107144687D01*
X141225466Y-107144687D02*
X141301657Y-107182782D01*
X141301657Y-107182782D02*
X141339752Y-107220877D01*
X141339752Y-107220877D02*
X141377847Y-107297068D01*
X141377847Y-107297068D02*
X141377847Y-107563734D01*
X141073085Y-106801830D02*
X141034990Y-106763734D01*
X141034990Y-106763734D02*
X140996895Y-106687544D01*
X140996895Y-106687544D02*
X140996895Y-106497068D01*
X140996895Y-106497068D02*
X141034990Y-106420877D01*
X141034990Y-106420877D02*
X141073085Y-106382782D01*
X141073085Y-106382782D02*
X141149276Y-106344687D01*
X141149276Y-106344687D02*
X141225466Y-106344687D01*
X141225466Y-106344687D02*
X141339752Y-106382782D01*
X141339752Y-106382782D02*
X141796895Y-106839925D01*
X141796895Y-106839925D02*
X141796895Y-106344687D01*
X148634990Y-89853258D02*
X148596895Y-89929448D01*
X148596895Y-89929448D02*
X148596895Y-90043734D01*
X148596895Y-90043734D02*
X148634990Y-90158020D01*
X148634990Y-90158020D02*
X148711180Y-90234210D01*
X148711180Y-90234210D02*
X148787371Y-90272305D01*
X148787371Y-90272305D02*
X148939752Y-90310401D01*
X148939752Y-90310401D02*
X149054038Y-90310401D01*
X149054038Y-90310401D02*
X149206419Y-90272305D01*
X149206419Y-90272305D02*
X149282609Y-90234210D01*
X149282609Y-90234210D02*
X149358800Y-90158020D01*
X149358800Y-90158020D02*
X149396895Y-90043734D01*
X149396895Y-90043734D02*
X149396895Y-89967543D01*
X149396895Y-89967543D02*
X149358800Y-89853258D01*
X149358800Y-89853258D02*
X149320704Y-89815162D01*
X149320704Y-89815162D02*
X149054038Y-89815162D01*
X149054038Y-89815162D02*
X149054038Y-89967543D01*
X149396895Y-89472305D02*
X148596895Y-89472305D01*
X148596895Y-89472305D02*
X149396895Y-89015162D01*
X149396895Y-89015162D02*
X148596895Y-89015162D01*
X149396895Y-88634210D02*
X148596895Y-88634210D01*
X148596895Y-88634210D02*
X148596895Y-88443734D01*
X148596895Y-88443734D02*
X148634990Y-88329448D01*
X148634990Y-88329448D02*
X148711180Y-88253258D01*
X148711180Y-88253258D02*
X148787371Y-88215163D01*
X148787371Y-88215163D02*
X148939752Y-88177067D01*
X148939752Y-88177067D02*
X149054038Y-88177067D01*
X149054038Y-88177067D02*
X149206419Y-88215163D01*
X149206419Y-88215163D02*
X149282609Y-88253258D01*
X149282609Y-88253258D02*
X149358800Y-88329448D01*
X149358800Y-88329448D02*
X149396895Y-88443734D01*
X149396895Y-88443734D02*
X149396895Y-88634210D01*
X151096895Y-90119925D02*
X151096895Y-89624687D01*
X151096895Y-89624687D02*
X151401657Y-89891353D01*
X151401657Y-89891353D02*
X151401657Y-89777068D01*
X151401657Y-89777068D02*
X151439752Y-89700877D01*
X151439752Y-89700877D02*
X151477847Y-89662782D01*
X151477847Y-89662782D02*
X151554038Y-89624687D01*
X151554038Y-89624687D02*
X151744514Y-89624687D01*
X151744514Y-89624687D02*
X151820704Y-89662782D01*
X151820704Y-89662782D02*
X151858800Y-89700877D01*
X151858800Y-89700877D02*
X151896895Y-89777068D01*
X151896895Y-89777068D02*
X151896895Y-90005639D01*
X151896895Y-90005639D02*
X151858800Y-90081830D01*
X151858800Y-90081830D02*
X151820704Y-90119925D01*
X151096895Y-89396115D02*
X151896895Y-89129448D01*
X151896895Y-89129448D02*
X151096895Y-88862782D01*
X151096895Y-88672306D02*
X151096895Y-88177068D01*
X151096895Y-88177068D02*
X151401657Y-88443734D01*
X151401657Y-88443734D02*
X151401657Y-88329449D01*
X151401657Y-88329449D02*
X151439752Y-88253258D01*
X151439752Y-88253258D02*
X151477847Y-88215163D01*
X151477847Y-88215163D02*
X151554038Y-88177068D01*
X151554038Y-88177068D02*
X151744514Y-88177068D01*
X151744514Y-88177068D02*
X151820704Y-88215163D01*
X151820704Y-88215163D02*
X151858800Y-88253258D01*
X151858800Y-88253258D02*
X151896895Y-88329449D01*
X151896895Y-88329449D02*
X151896895Y-88558020D01*
X151896895Y-88558020D02*
X151858800Y-88634211D01*
X151858800Y-88634211D02*
X151820704Y-88672306D01*
X144296895Y-82243734D02*
X143496895Y-82243734D01*
X143496895Y-82243734D02*
X143496895Y-81938972D01*
X143496895Y-81938972D02*
X143534990Y-81862782D01*
X143534990Y-81862782D02*
X143573085Y-81824687D01*
X143573085Y-81824687D02*
X143649276Y-81786591D01*
X143649276Y-81786591D02*
X143763561Y-81786591D01*
X143763561Y-81786591D02*
X143839752Y-81824687D01*
X143839752Y-81824687D02*
X143877847Y-81862782D01*
X143877847Y-81862782D02*
X143915942Y-81938972D01*
X143915942Y-81938972D02*
X143915942Y-82243734D01*
X143877847Y-81177068D02*
X143915942Y-81062782D01*
X143915942Y-81062782D02*
X143954038Y-81024687D01*
X143954038Y-81024687D02*
X144030228Y-80986591D01*
X144030228Y-80986591D02*
X144144514Y-80986591D01*
X144144514Y-80986591D02*
X144220704Y-81024687D01*
X144220704Y-81024687D02*
X144258800Y-81062782D01*
X144258800Y-81062782D02*
X144296895Y-81138972D01*
X144296895Y-81138972D02*
X144296895Y-81443734D01*
X144296895Y-81443734D02*
X143496895Y-81443734D01*
X143496895Y-81443734D02*
X143496895Y-81177068D01*
X143496895Y-81177068D02*
X143534990Y-81100877D01*
X143534990Y-81100877D02*
X143573085Y-81062782D01*
X143573085Y-81062782D02*
X143649276Y-81024687D01*
X143649276Y-81024687D02*
X143725466Y-81024687D01*
X143725466Y-81024687D02*
X143801657Y-81062782D01*
X143801657Y-81062782D02*
X143839752Y-81100877D01*
X143839752Y-81100877D02*
X143877847Y-81177068D01*
X143877847Y-81177068D02*
X143877847Y-81443734D01*
X144296895Y-80224687D02*
X144296895Y-80681830D01*
X144296895Y-80453258D02*
X143496895Y-80453258D01*
X143496895Y-80453258D02*
X143611180Y-80529449D01*
X143611180Y-80529449D02*
X143687371Y-80605639D01*
X143687371Y-80605639D02*
X143725466Y-80681830D01*
X143763561Y-79538972D02*
X144296895Y-79538972D01*
X143458800Y-79729448D02*
X144030228Y-79919925D01*
X144030228Y-79919925D02*
X144030228Y-79424686D01*
X143496895Y-108478020D02*
X144296895Y-108211353D01*
X144296895Y-108211353D02*
X143496895Y-107944687D01*
X144296895Y-107220877D02*
X143915942Y-107487544D01*
X144296895Y-107678020D02*
X143496895Y-107678020D01*
X143496895Y-107678020D02*
X143496895Y-107373258D01*
X143496895Y-107373258D02*
X143534990Y-107297068D01*
X143534990Y-107297068D02*
X143573085Y-107258973D01*
X143573085Y-107258973D02*
X143649276Y-107220877D01*
X143649276Y-107220877D02*
X143763561Y-107220877D01*
X143763561Y-107220877D02*
X143839752Y-107258973D01*
X143839752Y-107258973D02*
X143877847Y-107297068D01*
X143877847Y-107297068D02*
X143915942Y-107373258D01*
X143915942Y-107373258D02*
X143915942Y-107678020D01*
X143877847Y-106878020D02*
X143877847Y-106611354D01*
X144296895Y-106497068D02*
X144296895Y-106878020D01*
X144296895Y-106878020D02*
X143496895Y-106878020D01*
X143496895Y-106878020D02*
X143496895Y-106497068D01*
X143877847Y-105887544D02*
X143877847Y-106154210D01*
X144296895Y-106154210D02*
X143496895Y-106154210D01*
X143496895Y-106154210D02*
X143496895Y-105773258D01*
X126496895Y-117019925D02*
X125696895Y-117019925D01*
X125696895Y-117019925D02*
X125696895Y-116715163D01*
X125696895Y-116715163D02*
X125734990Y-116638973D01*
X125734990Y-116638973D02*
X125773085Y-116600878D01*
X125773085Y-116600878D02*
X125849276Y-116562782D01*
X125849276Y-116562782D02*
X125963561Y-116562782D01*
X125963561Y-116562782D02*
X126039752Y-116600878D01*
X126039752Y-116600878D02*
X126077847Y-116638973D01*
X126077847Y-116638973D02*
X126115942Y-116715163D01*
X126115942Y-116715163D02*
X126115942Y-117019925D01*
X126420704Y-115762782D02*
X126458800Y-115800878D01*
X126458800Y-115800878D02*
X126496895Y-115915163D01*
X126496895Y-115915163D02*
X126496895Y-115991354D01*
X126496895Y-115991354D02*
X126458800Y-116105640D01*
X126458800Y-116105640D02*
X126382609Y-116181830D01*
X126382609Y-116181830D02*
X126306419Y-116219925D01*
X126306419Y-116219925D02*
X126154038Y-116258021D01*
X126154038Y-116258021D02*
X126039752Y-116258021D01*
X126039752Y-116258021D02*
X125887371Y-116219925D01*
X125887371Y-116219925D02*
X125811180Y-116181830D01*
X125811180Y-116181830D02*
X125734990Y-116105640D01*
X125734990Y-116105640D02*
X125696895Y-115991354D01*
X125696895Y-115991354D02*
X125696895Y-115915163D01*
X125696895Y-115915163D02*
X125734990Y-115800878D01*
X125734990Y-115800878D02*
X125773085Y-115762782D01*
X126496895Y-115000878D02*
X126496895Y-115458021D01*
X126496895Y-115229449D02*
X125696895Y-115229449D01*
X125696895Y-115229449D02*
X125811180Y-115305640D01*
X125811180Y-115305640D02*
X125887371Y-115381830D01*
X125887371Y-115381830D02*
X125925466Y-115458021D01*
X125696895Y-114277068D02*
X125696895Y-114658020D01*
X125696895Y-114658020D02*
X126077847Y-114696116D01*
X126077847Y-114696116D02*
X126039752Y-114658020D01*
X126039752Y-114658020D02*
X126001657Y-114581830D01*
X126001657Y-114581830D02*
X126001657Y-114391354D01*
X126001657Y-114391354D02*
X126039752Y-114315163D01*
X126039752Y-114315163D02*
X126077847Y-114277068D01*
X126077847Y-114277068D02*
X126154038Y-114238973D01*
X126154038Y-114238973D02*
X126344514Y-114238973D01*
X126344514Y-114238973D02*
X126420704Y-114277068D01*
X126420704Y-114277068D02*
X126458800Y-114315163D01*
X126458800Y-114315163D02*
X126496895Y-114391354D01*
X126496895Y-114391354D02*
X126496895Y-114581830D01*
X126496895Y-114581830D02*
X126458800Y-114658020D01*
X126458800Y-114658020D02*
X126420704Y-114696116D01*
X151096895Y-82319925D02*
X151096895Y-81824687D01*
X151096895Y-81824687D02*
X151401657Y-82091353D01*
X151401657Y-82091353D02*
X151401657Y-81977068D01*
X151401657Y-81977068D02*
X151439752Y-81900877D01*
X151439752Y-81900877D02*
X151477847Y-81862782D01*
X151477847Y-81862782D02*
X151554038Y-81824687D01*
X151554038Y-81824687D02*
X151744514Y-81824687D01*
X151744514Y-81824687D02*
X151820704Y-81862782D01*
X151820704Y-81862782D02*
X151858800Y-81900877D01*
X151858800Y-81900877D02*
X151896895Y-81977068D01*
X151896895Y-81977068D02*
X151896895Y-82205639D01*
X151896895Y-82205639D02*
X151858800Y-82281830D01*
X151858800Y-82281830D02*
X151820704Y-82319925D01*
X151096895Y-81596115D02*
X151896895Y-81329448D01*
X151896895Y-81329448D02*
X151096895Y-81062782D01*
X151096895Y-80872306D02*
X151096895Y-80377068D01*
X151096895Y-80377068D02*
X151401657Y-80643734D01*
X151401657Y-80643734D02*
X151401657Y-80529449D01*
X151401657Y-80529449D02*
X151439752Y-80453258D01*
X151439752Y-80453258D02*
X151477847Y-80415163D01*
X151477847Y-80415163D02*
X151554038Y-80377068D01*
X151554038Y-80377068D02*
X151744514Y-80377068D01*
X151744514Y-80377068D02*
X151820704Y-80415163D01*
X151820704Y-80415163D02*
X151858800Y-80453258D01*
X151858800Y-80453258D02*
X151896895Y-80529449D01*
X151896895Y-80529449D02*
X151896895Y-80758020D01*
X151896895Y-80758020D02*
X151858800Y-80834211D01*
X151858800Y-80834211D02*
X151820704Y-80872306D01*
X131596895Y-90196115D02*
X130796895Y-90196115D01*
X130796895Y-90196115D02*
X130796895Y-89891353D01*
X130796895Y-89891353D02*
X130834990Y-89815163D01*
X130834990Y-89815163D02*
X130873085Y-89777068D01*
X130873085Y-89777068D02*
X130949276Y-89738972D01*
X130949276Y-89738972D02*
X131063561Y-89738972D01*
X131063561Y-89738972D02*
X131139752Y-89777068D01*
X131139752Y-89777068D02*
X131177847Y-89815163D01*
X131177847Y-89815163D02*
X131215942Y-89891353D01*
X131215942Y-89891353D02*
X131215942Y-90196115D01*
X131177847Y-89129449D02*
X131215942Y-89015163D01*
X131215942Y-89015163D02*
X131254038Y-88977068D01*
X131254038Y-88977068D02*
X131330228Y-88938972D01*
X131330228Y-88938972D02*
X131444514Y-88938972D01*
X131444514Y-88938972D02*
X131520704Y-88977068D01*
X131520704Y-88977068D02*
X131558800Y-89015163D01*
X131558800Y-89015163D02*
X131596895Y-89091353D01*
X131596895Y-89091353D02*
X131596895Y-89396115D01*
X131596895Y-89396115D02*
X130796895Y-89396115D01*
X130796895Y-89396115D02*
X130796895Y-89129449D01*
X130796895Y-89129449D02*
X130834990Y-89053258D01*
X130834990Y-89053258D02*
X130873085Y-89015163D01*
X130873085Y-89015163D02*
X130949276Y-88977068D01*
X130949276Y-88977068D02*
X131025466Y-88977068D01*
X131025466Y-88977068D02*
X131101657Y-89015163D01*
X131101657Y-89015163D02*
X131139752Y-89053258D01*
X131139752Y-89053258D02*
X131177847Y-89129449D01*
X131177847Y-89129449D02*
X131177847Y-89396115D01*
X130796895Y-88672306D02*
X130796895Y-88177068D01*
X130796895Y-88177068D02*
X131101657Y-88443734D01*
X131101657Y-88443734D02*
X131101657Y-88329449D01*
X131101657Y-88329449D02*
X131139752Y-88253258D01*
X131139752Y-88253258D02*
X131177847Y-88215163D01*
X131177847Y-88215163D02*
X131254038Y-88177068D01*
X131254038Y-88177068D02*
X131444514Y-88177068D01*
X131444514Y-88177068D02*
X131520704Y-88215163D01*
X131520704Y-88215163D02*
X131558800Y-88253258D01*
X131558800Y-88253258D02*
X131596895Y-88329449D01*
X131596895Y-88329449D02*
X131596895Y-88558020D01*
X131596895Y-88558020D02*
X131558800Y-88634211D01*
X131558800Y-88634211D02*
X131520704Y-88672306D01*
X126546895Y-90196115D02*
X125746895Y-90196115D01*
X125746895Y-90196115D02*
X125746895Y-89891353D01*
X125746895Y-89891353D02*
X125784990Y-89815163D01*
X125784990Y-89815163D02*
X125823085Y-89777068D01*
X125823085Y-89777068D02*
X125899276Y-89738972D01*
X125899276Y-89738972D02*
X126013561Y-89738972D01*
X126013561Y-89738972D02*
X126089752Y-89777068D01*
X126089752Y-89777068D02*
X126127847Y-89815163D01*
X126127847Y-89815163D02*
X126165942Y-89891353D01*
X126165942Y-89891353D02*
X126165942Y-90196115D01*
X126127847Y-89129449D02*
X126165942Y-89015163D01*
X126165942Y-89015163D02*
X126204038Y-88977068D01*
X126204038Y-88977068D02*
X126280228Y-88938972D01*
X126280228Y-88938972D02*
X126394514Y-88938972D01*
X126394514Y-88938972D02*
X126470704Y-88977068D01*
X126470704Y-88977068D02*
X126508800Y-89015163D01*
X126508800Y-89015163D02*
X126546895Y-89091353D01*
X126546895Y-89091353D02*
X126546895Y-89396115D01*
X126546895Y-89396115D02*
X125746895Y-89396115D01*
X125746895Y-89396115D02*
X125746895Y-89129449D01*
X125746895Y-89129449D02*
X125784990Y-89053258D01*
X125784990Y-89053258D02*
X125823085Y-89015163D01*
X125823085Y-89015163D02*
X125899276Y-88977068D01*
X125899276Y-88977068D02*
X125975466Y-88977068D01*
X125975466Y-88977068D02*
X126051657Y-89015163D01*
X126051657Y-89015163D02*
X126089752Y-89053258D01*
X126089752Y-89053258D02*
X126127847Y-89129449D01*
X126127847Y-89129449D02*
X126127847Y-89396115D01*
X125746895Y-88672306D02*
X125746895Y-88138972D01*
X125746895Y-88138972D02*
X126546895Y-88481830D01*
X134146895Y-90843734D02*
X133346895Y-90843734D01*
X133346895Y-90843734D02*
X133346895Y-90538972D01*
X133346895Y-90538972D02*
X133384990Y-90462782D01*
X133384990Y-90462782D02*
X133423085Y-90424687D01*
X133423085Y-90424687D02*
X133499276Y-90386591D01*
X133499276Y-90386591D02*
X133613561Y-90386591D01*
X133613561Y-90386591D02*
X133689752Y-90424687D01*
X133689752Y-90424687D02*
X133727847Y-90462782D01*
X133727847Y-90462782D02*
X133765942Y-90538972D01*
X133765942Y-90538972D02*
X133765942Y-90843734D01*
X133918323Y-90081830D02*
X133918323Y-89700877D01*
X134146895Y-90158020D02*
X133346895Y-89891353D01*
X133346895Y-89891353D02*
X134146895Y-89624687D01*
X134146895Y-88938973D02*
X134146895Y-89396116D01*
X134146895Y-89167544D02*
X133346895Y-89167544D01*
X133346895Y-89167544D02*
X133461180Y-89243735D01*
X133461180Y-89243735D02*
X133537371Y-89319925D01*
X133537371Y-89319925D02*
X133575466Y-89396116D01*
X133613561Y-88253258D02*
X134146895Y-88253258D01*
X133308800Y-88443734D02*
X133880228Y-88634211D01*
X133880228Y-88634211D02*
X133880228Y-88138972D01*
X136646895Y-108363734D02*
X135846895Y-108363734D01*
X135846895Y-108363734D02*
X135846895Y-108058972D01*
X135846895Y-108058972D02*
X135884990Y-107982782D01*
X135884990Y-107982782D02*
X135923085Y-107944687D01*
X135923085Y-107944687D02*
X135999276Y-107906591D01*
X135999276Y-107906591D02*
X136113561Y-107906591D01*
X136113561Y-107906591D02*
X136189752Y-107944687D01*
X136189752Y-107944687D02*
X136227847Y-107982782D01*
X136227847Y-107982782D02*
X136265942Y-108058972D01*
X136265942Y-108058972D02*
X136265942Y-108363734D01*
X136418323Y-107601830D02*
X136418323Y-107220877D01*
X136646895Y-107678020D02*
X135846895Y-107411353D01*
X135846895Y-107411353D02*
X136646895Y-107144687D01*
X135846895Y-106535163D02*
X135846895Y-106687544D01*
X135846895Y-106687544D02*
X135884990Y-106763735D01*
X135884990Y-106763735D02*
X135923085Y-106801830D01*
X135923085Y-106801830D02*
X136037371Y-106878020D01*
X136037371Y-106878020D02*
X136189752Y-106916116D01*
X136189752Y-106916116D02*
X136494514Y-106916116D01*
X136494514Y-106916116D02*
X136570704Y-106878020D01*
X136570704Y-106878020D02*
X136608800Y-106839925D01*
X136608800Y-106839925D02*
X136646895Y-106763735D01*
X136646895Y-106763735D02*
X136646895Y-106611354D01*
X136646895Y-106611354D02*
X136608800Y-106535163D01*
X136608800Y-106535163D02*
X136570704Y-106497068D01*
X136570704Y-106497068D02*
X136494514Y-106458973D01*
X136494514Y-106458973D02*
X136304038Y-106458973D01*
X136304038Y-106458973D02*
X136227847Y-106497068D01*
X136227847Y-106497068D02*
X136189752Y-106535163D01*
X136189752Y-106535163D02*
X136151657Y-106611354D01*
X136151657Y-106611354D02*
X136151657Y-106763735D01*
X136151657Y-106763735D02*
X136189752Y-106839925D01*
X136189752Y-106839925D02*
X136227847Y-106878020D01*
X136227847Y-106878020D02*
X136304038Y-106916116D01*
X124296895Y-90196115D02*
X123496895Y-90196115D01*
X123496895Y-90196115D02*
X123496895Y-89891353D01*
X123496895Y-89891353D02*
X123534990Y-89815163D01*
X123534990Y-89815163D02*
X123573085Y-89777068D01*
X123573085Y-89777068D02*
X123649276Y-89738972D01*
X123649276Y-89738972D02*
X123763561Y-89738972D01*
X123763561Y-89738972D02*
X123839752Y-89777068D01*
X123839752Y-89777068D02*
X123877847Y-89815163D01*
X123877847Y-89815163D02*
X123915942Y-89891353D01*
X123915942Y-89891353D02*
X123915942Y-90196115D01*
X123877847Y-89129449D02*
X123915942Y-89015163D01*
X123915942Y-89015163D02*
X123954038Y-88977068D01*
X123954038Y-88977068D02*
X124030228Y-88938972D01*
X124030228Y-88938972D02*
X124144514Y-88938972D01*
X124144514Y-88938972D02*
X124220704Y-88977068D01*
X124220704Y-88977068D02*
X124258800Y-89015163D01*
X124258800Y-89015163D02*
X124296895Y-89091353D01*
X124296895Y-89091353D02*
X124296895Y-89396115D01*
X124296895Y-89396115D02*
X123496895Y-89396115D01*
X123496895Y-89396115D02*
X123496895Y-89129449D01*
X123496895Y-89129449D02*
X123534990Y-89053258D01*
X123534990Y-89053258D02*
X123573085Y-89015163D01*
X123573085Y-89015163D02*
X123649276Y-88977068D01*
X123649276Y-88977068D02*
X123725466Y-88977068D01*
X123725466Y-88977068D02*
X123801657Y-89015163D01*
X123801657Y-89015163D02*
X123839752Y-89053258D01*
X123839752Y-89053258D02*
X123877847Y-89129449D01*
X123877847Y-89129449D02*
X123877847Y-89396115D01*
X124296895Y-88558020D02*
X124296895Y-88405639D01*
X124296895Y-88405639D02*
X124258800Y-88329449D01*
X124258800Y-88329449D02*
X124220704Y-88291353D01*
X124220704Y-88291353D02*
X124106419Y-88215163D01*
X124106419Y-88215163D02*
X123954038Y-88177068D01*
X123954038Y-88177068D02*
X123649276Y-88177068D01*
X123649276Y-88177068D02*
X123573085Y-88215163D01*
X123573085Y-88215163D02*
X123534990Y-88253258D01*
X123534990Y-88253258D02*
X123496895Y-88329449D01*
X123496895Y-88329449D02*
X123496895Y-88481830D01*
X123496895Y-88481830D02*
X123534990Y-88558020D01*
X123534990Y-88558020D02*
X123573085Y-88596115D01*
X123573085Y-88596115D02*
X123649276Y-88634211D01*
X123649276Y-88634211D02*
X123839752Y-88634211D01*
X123839752Y-88634211D02*
X123915942Y-88596115D01*
X123915942Y-88596115D02*
X123954038Y-88558020D01*
X123954038Y-88558020D02*
X123992133Y-88481830D01*
X123992133Y-88481830D02*
X123992133Y-88329449D01*
X123992133Y-88329449D02*
X123954038Y-88253258D01*
X123954038Y-88253258D02*
X123915942Y-88215163D01*
X123915942Y-88215163D02*
X123839752Y-88177068D01*
X134146895Y-108363734D02*
X133346895Y-108363734D01*
X133346895Y-108363734D02*
X133346895Y-108058972D01*
X133346895Y-108058972D02*
X133384990Y-107982782D01*
X133384990Y-107982782D02*
X133423085Y-107944687D01*
X133423085Y-107944687D02*
X133499276Y-107906591D01*
X133499276Y-107906591D02*
X133613561Y-107906591D01*
X133613561Y-107906591D02*
X133689752Y-107944687D01*
X133689752Y-107944687D02*
X133727847Y-107982782D01*
X133727847Y-107982782D02*
X133765942Y-108058972D01*
X133765942Y-108058972D02*
X133765942Y-108363734D01*
X133918323Y-107601830D02*
X133918323Y-107220877D01*
X134146895Y-107678020D02*
X133346895Y-107411353D01*
X133346895Y-107411353D02*
X134146895Y-107144687D01*
X133346895Y-106954211D02*
X133346895Y-106458973D01*
X133346895Y-106458973D02*
X133651657Y-106725639D01*
X133651657Y-106725639D02*
X133651657Y-106611354D01*
X133651657Y-106611354D02*
X133689752Y-106535163D01*
X133689752Y-106535163D02*
X133727847Y-106497068D01*
X133727847Y-106497068D02*
X133804038Y-106458973D01*
X133804038Y-106458973D02*
X133994514Y-106458973D01*
X133994514Y-106458973D02*
X134070704Y-106497068D01*
X134070704Y-106497068D02*
X134108800Y-106535163D01*
X134108800Y-106535163D02*
X134146895Y-106611354D01*
X134146895Y-106611354D02*
X134146895Y-106839925D01*
X134146895Y-106839925D02*
X134108800Y-106916116D01*
X134108800Y-106916116D02*
X134070704Y-106954211D01*
X129046895Y-82243734D02*
X128246895Y-82243734D01*
X128246895Y-82243734D02*
X128246895Y-81938972D01*
X128246895Y-81938972D02*
X128284990Y-81862782D01*
X128284990Y-81862782D02*
X128323085Y-81824687D01*
X128323085Y-81824687D02*
X128399276Y-81786591D01*
X128399276Y-81786591D02*
X128513561Y-81786591D01*
X128513561Y-81786591D02*
X128589752Y-81824687D01*
X128589752Y-81824687D02*
X128627847Y-81862782D01*
X128627847Y-81862782D02*
X128665942Y-81938972D01*
X128665942Y-81938972D02*
X128665942Y-82243734D01*
X128627847Y-81177068D02*
X128665942Y-81062782D01*
X128665942Y-81062782D02*
X128704038Y-81024687D01*
X128704038Y-81024687D02*
X128780228Y-80986591D01*
X128780228Y-80986591D02*
X128894514Y-80986591D01*
X128894514Y-80986591D02*
X128970704Y-81024687D01*
X128970704Y-81024687D02*
X129008800Y-81062782D01*
X129008800Y-81062782D02*
X129046895Y-81138972D01*
X129046895Y-81138972D02*
X129046895Y-81443734D01*
X129046895Y-81443734D02*
X128246895Y-81443734D01*
X128246895Y-81443734D02*
X128246895Y-81177068D01*
X128246895Y-81177068D02*
X128284990Y-81100877D01*
X128284990Y-81100877D02*
X128323085Y-81062782D01*
X128323085Y-81062782D02*
X128399276Y-81024687D01*
X128399276Y-81024687D02*
X128475466Y-81024687D01*
X128475466Y-81024687D02*
X128551657Y-81062782D01*
X128551657Y-81062782D02*
X128589752Y-81100877D01*
X128589752Y-81100877D02*
X128627847Y-81177068D01*
X128627847Y-81177068D02*
X128627847Y-81443734D01*
X128513561Y-80300877D02*
X129046895Y-80300877D01*
X128208800Y-80491353D02*
X128780228Y-80681830D01*
X128780228Y-80681830D02*
X128780228Y-80186591D01*
X139296895Y-108363734D02*
X138496895Y-108363734D01*
X138496895Y-108363734D02*
X138496895Y-108058972D01*
X138496895Y-108058972D02*
X138534990Y-107982782D01*
X138534990Y-107982782D02*
X138573085Y-107944687D01*
X138573085Y-107944687D02*
X138649276Y-107906591D01*
X138649276Y-107906591D02*
X138763561Y-107906591D01*
X138763561Y-107906591D02*
X138839752Y-107944687D01*
X138839752Y-107944687D02*
X138877847Y-107982782D01*
X138877847Y-107982782D02*
X138915942Y-108058972D01*
X138915942Y-108058972D02*
X138915942Y-108363734D01*
X138877847Y-107297068D02*
X138915942Y-107182782D01*
X138915942Y-107182782D02*
X138954038Y-107144687D01*
X138954038Y-107144687D02*
X139030228Y-107106591D01*
X139030228Y-107106591D02*
X139144514Y-107106591D01*
X139144514Y-107106591D02*
X139220704Y-107144687D01*
X139220704Y-107144687D02*
X139258800Y-107182782D01*
X139258800Y-107182782D02*
X139296895Y-107258972D01*
X139296895Y-107258972D02*
X139296895Y-107563734D01*
X139296895Y-107563734D02*
X138496895Y-107563734D01*
X138496895Y-107563734D02*
X138496895Y-107297068D01*
X138496895Y-107297068D02*
X138534990Y-107220877D01*
X138534990Y-107220877D02*
X138573085Y-107182782D01*
X138573085Y-107182782D02*
X138649276Y-107144687D01*
X138649276Y-107144687D02*
X138725466Y-107144687D01*
X138725466Y-107144687D02*
X138801657Y-107182782D01*
X138801657Y-107182782D02*
X138839752Y-107220877D01*
X138839752Y-107220877D02*
X138877847Y-107297068D01*
X138877847Y-107297068D02*
X138877847Y-107563734D01*
X138496895Y-106611353D02*
X138496895Y-106535163D01*
X138496895Y-106535163D02*
X138534990Y-106458972D01*
X138534990Y-106458972D02*
X138573085Y-106420877D01*
X138573085Y-106420877D02*
X138649276Y-106382782D01*
X138649276Y-106382782D02*
X138801657Y-106344687D01*
X138801657Y-106344687D02*
X138992133Y-106344687D01*
X138992133Y-106344687D02*
X139144514Y-106382782D01*
X139144514Y-106382782D02*
X139220704Y-106420877D01*
X139220704Y-106420877D02*
X139258800Y-106458972D01*
X139258800Y-106458972D02*
X139296895Y-106535163D01*
X139296895Y-106535163D02*
X139296895Y-106611353D01*
X139296895Y-106611353D02*
X139258800Y-106687544D01*
X139258800Y-106687544D02*
X139220704Y-106725639D01*
X139220704Y-106725639D02*
X139144514Y-106763734D01*
X139144514Y-106763734D02*
X138992133Y-106801830D01*
X138992133Y-106801830D02*
X138801657Y-106801830D01*
X138801657Y-106801830D02*
X138649276Y-106763734D01*
X138649276Y-106763734D02*
X138573085Y-106725639D01*
X138573085Y-106725639D02*
X138534990Y-106687544D01*
X138534990Y-106687544D02*
X138496895Y-106611353D01*
X134196895Y-82243734D02*
X133396895Y-82243734D01*
X133396895Y-82243734D02*
X133396895Y-81938972D01*
X133396895Y-81938972D02*
X133434990Y-81862782D01*
X133434990Y-81862782D02*
X133473085Y-81824687D01*
X133473085Y-81824687D02*
X133549276Y-81786591D01*
X133549276Y-81786591D02*
X133663561Y-81786591D01*
X133663561Y-81786591D02*
X133739752Y-81824687D01*
X133739752Y-81824687D02*
X133777847Y-81862782D01*
X133777847Y-81862782D02*
X133815942Y-81938972D01*
X133815942Y-81938972D02*
X133815942Y-82243734D01*
X133968323Y-81481830D02*
X133968323Y-81100877D01*
X134196895Y-81558020D02*
X133396895Y-81291353D01*
X133396895Y-81291353D02*
X134196895Y-81024687D01*
X134196895Y-80338973D02*
X134196895Y-80796116D01*
X134196895Y-80567544D02*
X133396895Y-80567544D01*
X133396895Y-80567544D02*
X133511180Y-80643735D01*
X133511180Y-80643735D02*
X133587371Y-80719925D01*
X133587371Y-80719925D02*
X133625466Y-80796116D01*
X133396895Y-80072306D02*
X133396895Y-79577068D01*
X133396895Y-79577068D02*
X133701657Y-79843734D01*
X133701657Y-79843734D02*
X133701657Y-79729449D01*
X133701657Y-79729449D02*
X133739752Y-79653258D01*
X133739752Y-79653258D02*
X133777847Y-79615163D01*
X133777847Y-79615163D02*
X133854038Y-79577068D01*
X133854038Y-79577068D02*
X134044514Y-79577068D01*
X134044514Y-79577068D02*
X134120704Y-79615163D01*
X134120704Y-79615163D02*
X134158800Y-79653258D01*
X134158800Y-79653258D02*
X134196895Y-79729449D01*
X134196895Y-79729449D02*
X134196895Y-79958020D01*
X134196895Y-79958020D02*
X134158800Y-80034211D01*
X134158800Y-80034211D02*
X134120704Y-80072306D01*
X129396895Y-108363734D02*
X128596895Y-108363734D01*
X128596895Y-108363734D02*
X129396895Y-107906591D01*
X129396895Y-107906591D02*
X128596895Y-107906591D01*
X129396895Y-107068496D02*
X129015942Y-107335163D01*
X129396895Y-107525639D02*
X128596895Y-107525639D01*
X128596895Y-107525639D02*
X128596895Y-107220877D01*
X128596895Y-107220877D02*
X128634990Y-107144687D01*
X128634990Y-107144687D02*
X128673085Y-107106592D01*
X128673085Y-107106592D02*
X128749276Y-107068496D01*
X128749276Y-107068496D02*
X128863561Y-107068496D01*
X128863561Y-107068496D02*
X128939752Y-107106592D01*
X128939752Y-107106592D02*
X128977847Y-107144687D01*
X128977847Y-107144687D02*
X129015942Y-107220877D01*
X129015942Y-107220877D02*
X129015942Y-107525639D01*
X129358800Y-106763735D02*
X129396895Y-106649449D01*
X129396895Y-106649449D02*
X129396895Y-106458973D01*
X129396895Y-106458973D02*
X129358800Y-106382782D01*
X129358800Y-106382782D02*
X129320704Y-106344687D01*
X129320704Y-106344687D02*
X129244514Y-106306592D01*
X129244514Y-106306592D02*
X129168323Y-106306592D01*
X129168323Y-106306592D02*
X129092133Y-106344687D01*
X129092133Y-106344687D02*
X129054038Y-106382782D01*
X129054038Y-106382782D02*
X129015942Y-106458973D01*
X129015942Y-106458973D02*
X128977847Y-106611354D01*
X128977847Y-106611354D02*
X128939752Y-106687544D01*
X128939752Y-106687544D02*
X128901657Y-106725639D01*
X128901657Y-106725639D02*
X128825466Y-106763735D01*
X128825466Y-106763735D02*
X128749276Y-106763735D01*
X128749276Y-106763735D02*
X128673085Y-106725639D01*
X128673085Y-106725639D02*
X128634990Y-106687544D01*
X128634990Y-106687544D02*
X128596895Y-106611354D01*
X128596895Y-106611354D02*
X128596895Y-106420877D01*
X128596895Y-106420877D02*
X128634990Y-106306592D01*
X128596895Y-106078020D02*
X128596895Y-105620877D01*
X129396895Y-105849449D02*
X128596895Y-105849449D01*
D11*
X125916667Y-103762295D02*
X125650000Y-103381342D01*
X125459524Y-103762295D02*
X125459524Y-102962295D01*
X125459524Y-102962295D02*
X125764286Y-102962295D01*
X125764286Y-102962295D02*
X125840476Y-103000390D01*
X125840476Y-103000390D02*
X125878571Y-103038485D01*
X125878571Y-103038485D02*
X125916667Y-103114676D01*
X125916667Y-103114676D02*
X125916667Y-103228961D01*
X125916667Y-103228961D02*
X125878571Y-103305152D01*
X125878571Y-103305152D02*
X125840476Y-103343247D01*
X125840476Y-103343247D02*
X125764286Y-103381342D01*
X125764286Y-103381342D02*
X125459524Y-103381342D01*
X126640476Y-102962295D02*
X126259524Y-102962295D01*
X126259524Y-102962295D02*
X126221428Y-103343247D01*
X126221428Y-103343247D02*
X126259524Y-103305152D01*
X126259524Y-103305152D02*
X126335714Y-103267057D01*
X126335714Y-103267057D02*
X126526190Y-103267057D01*
X126526190Y-103267057D02*
X126602381Y-103305152D01*
X126602381Y-103305152D02*
X126640476Y-103343247D01*
X126640476Y-103343247D02*
X126678571Y-103419438D01*
X126678571Y-103419438D02*
X126678571Y-103609914D01*
X126678571Y-103609914D02*
X126640476Y-103686104D01*
X126640476Y-103686104D02*
X126602381Y-103724200D01*
X126602381Y-103724200D02*
X126526190Y-103762295D01*
X126526190Y-103762295D02*
X126335714Y-103762295D01*
X126335714Y-103762295D02*
X126259524Y-103724200D01*
X126259524Y-103724200D02*
X126221428Y-103686104D01*
X141583333Y-104193247D02*
X141316667Y-104193247D01*
X141316667Y-104612295D02*
X141316667Y-103812295D01*
X141316667Y-103812295D02*
X141697619Y-103812295D01*
X142269047Y-104193247D02*
X142383333Y-104231342D01*
X142383333Y-104231342D02*
X142421428Y-104269438D01*
X142421428Y-104269438D02*
X142459524Y-104345628D01*
X142459524Y-104345628D02*
X142459524Y-104459914D01*
X142459524Y-104459914D02*
X142421428Y-104536104D01*
X142421428Y-104536104D02*
X142383333Y-104574200D01*
X142383333Y-104574200D02*
X142307143Y-104612295D01*
X142307143Y-104612295D02*
X142002381Y-104612295D01*
X142002381Y-104612295D02*
X142002381Y-103812295D01*
X142002381Y-103812295D02*
X142269047Y-103812295D01*
X142269047Y-103812295D02*
X142345238Y-103850390D01*
X142345238Y-103850390D02*
X142383333Y-103888485D01*
X142383333Y-103888485D02*
X142421428Y-103964676D01*
X142421428Y-103964676D02*
X142421428Y-104040866D01*
X142421428Y-104040866D02*
X142383333Y-104117057D01*
X142383333Y-104117057D02*
X142345238Y-104155152D01*
X142345238Y-104155152D02*
X142269047Y-104193247D01*
X142269047Y-104193247D02*
X142002381Y-104193247D01*
X143221428Y-104612295D02*
X142764285Y-104612295D01*
X142992857Y-104612295D02*
X142992857Y-103812295D01*
X142992857Y-103812295D02*
X142916666Y-103926580D01*
X142916666Y-103926580D02*
X142840476Y-104002771D01*
X142840476Y-104002771D02*
X142764285Y-104040866D01*
X121033333Y-87062295D02*
X121033333Y-87633723D01*
X121033333Y-87633723D02*
X120995238Y-87748009D01*
X120995238Y-87748009D02*
X120919047Y-87824200D01*
X120919047Y-87824200D02*
X120804762Y-87862295D01*
X120804762Y-87862295D02*
X120728571Y-87862295D01*
X121833333Y-87862295D02*
X121376190Y-87862295D01*
X121604762Y-87862295D02*
X121604762Y-87062295D01*
X121604762Y-87062295D02*
X121528571Y-87176580D01*
X121528571Y-87176580D02*
X121452381Y-87252771D01*
X121452381Y-87252771D02*
X121376190Y-87290866D01*
X167741667Y-104762295D02*
X167475000Y-104381342D01*
X167284524Y-104762295D02*
X167284524Y-103962295D01*
X167284524Y-103962295D02*
X167589286Y-103962295D01*
X167589286Y-103962295D02*
X167665476Y-104000390D01*
X167665476Y-104000390D02*
X167703571Y-104038485D01*
X167703571Y-104038485D02*
X167741667Y-104114676D01*
X167741667Y-104114676D02*
X167741667Y-104228961D01*
X167741667Y-104228961D02*
X167703571Y-104305152D01*
X167703571Y-104305152D02*
X167665476Y-104343247D01*
X167665476Y-104343247D02*
X167589286Y-104381342D01*
X167589286Y-104381342D02*
X167284524Y-104381342D01*
X168503571Y-104762295D02*
X168046428Y-104762295D01*
X168275000Y-104762295D02*
X168275000Y-103962295D01*
X168275000Y-103962295D02*
X168198809Y-104076580D01*
X168198809Y-104076580D02*
X168122619Y-104152771D01*
X168122619Y-104152771D02*
X168046428Y-104190866D01*
X163066667Y-90762295D02*
X162800000Y-90381342D01*
X162609524Y-90762295D02*
X162609524Y-89962295D01*
X162609524Y-89962295D02*
X162914286Y-89962295D01*
X162914286Y-89962295D02*
X162990476Y-90000390D01*
X162990476Y-90000390D02*
X163028571Y-90038485D01*
X163028571Y-90038485D02*
X163066667Y-90114676D01*
X163066667Y-90114676D02*
X163066667Y-90228961D01*
X163066667Y-90228961D02*
X163028571Y-90305152D01*
X163028571Y-90305152D02*
X162990476Y-90343247D01*
X162990476Y-90343247D02*
X162914286Y-90381342D01*
X162914286Y-90381342D02*
X162609524Y-90381342D01*
X163752381Y-89962295D02*
X163600000Y-89962295D01*
X163600000Y-89962295D02*
X163523809Y-90000390D01*
X163523809Y-90000390D02*
X163485714Y-90038485D01*
X163485714Y-90038485D02*
X163409524Y-90152771D01*
X163409524Y-90152771D02*
X163371428Y-90305152D01*
X163371428Y-90305152D02*
X163371428Y-90609914D01*
X163371428Y-90609914D02*
X163409524Y-90686104D01*
X163409524Y-90686104D02*
X163447619Y-90724200D01*
X163447619Y-90724200D02*
X163523809Y-90762295D01*
X163523809Y-90762295D02*
X163676190Y-90762295D01*
X163676190Y-90762295D02*
X163752381Y-90724200D01*
X163752381Y-90724200D02*
X163790476Y-90686104D01*
X163790476Y-90686104D02*
X163828571Y-90609914D01*
X163828571Y-90609914D02*
X163828571Y-90419438D01*
X163828571Y-90419438D02*
X163790476Y-90343247D01*
X163790476Y-90343247D02*
X163752381Y-90305152D01*
X163752381Y-90305152D02*
X163676190Y-90267057D01*
X163676190Y-90267057D02*
X163523809Y-90267057D01*
X163523809Y-90267057D02*
X163447619Y-90305152D01*
X163447619Y-90305152D02*
X163409524Y-90343247D01*
X163409524Y-90343247D02*
X163371428Y-90419438D01*
X167683333Y-91712295D02*
X167683333Y-92283723D01*
X167683333Y-92283723D02*
X167645238Y-92398009D01*
X167645238Y-92398009D02*
X167569047Y-92474200D01*
X167569047Y-92474200D02*
X167454762Y-92512295D01*
X167454762Y-92512295D02*
X167378571Y-92512295D01*
X167988095Y-91712295D02*
X168483333Y-91712295D01*
X168483333Y-91712295D02*
X168216667Y-92017057D01*
X168216667Y-92017057D02*
X168330952Y-92017057D01*
X168330952Y-92017057D02*
X168407143Y-92055152D01*
X168407143Y-92055152D02*
X168445238Y-92093247D01*
X168445238Y-92093247D02*
X168483333Y-92169438D01*
X168483333Y-92169438D02*
X168483333Y-92359914D01*
X168483333Y-92359914D02*
X168445238Y-92436104D01*
X168445238Y-92436104D02*
X168407143Y-92474200D01*
X168407143Y-92474200D02*
X168330952Y-92512295D01*
X168330952Y-92512295D02*
X168102381Y-92512295D01*
X168102381Y-92512295D02*
X168026190Y-92474200D01*
X168026190Y-92474200D02*
X167988095Y-92436104D01*
X146366667Y-97636104D02*
X146328571Y-97674200D01*
X146328571Y-97674200D02*
X146214286Y-97712295D01*
X146214286Y-97712295D02*
X146138095Y-97712295D01*
X146138095Y-97712295D02*
X146023809Y-97674200D01*
X146023809Y-97674200D02*
X145947619Y-97598009D01*
X145947619Y-97598009D02*
X145909524Y-97521819D01*
X145909524Y-97521819D02*
X145871428Y-97369438D01*
X145871428Y-97369438D02*
X145871428Y-97255152D01*
X145871428Y-97255152D02*
X145909524Y-97102771D01*
X145909524Y-97102771D02*
X145947619Y-97026580D01*
X145947619Y-97026580D02*
X146023809Y-96950390D01*
X146023809Y-96950390D02*
X146138095Y-96912295D01*
X146138095Y-96912295D02*
X146214286Y-96912295D01*
X146214286Y-96912295D02*
X146328571Y-96950390D01*
X146328571Y-96950390D02*
X146366667Y-96988485D01*
X146671428Y-96988485D02*
X146709524Y-96950390D01*
X146709524Y-96950390D02*
X146785714Y-96912295D01*
X146785714Y-96912295D02*
X146976190Y-96912295D01*
X146976190Y-96912295D02*
X147052381Y-96950390D01*
X147052381Y-96950390D02*
X147090476Y-96988485D01*
X147090476Y-96988485D02*
X147128571Y-97064676D01*
X147128571Y-97064676D02*
X147128571Y-97140866D01*
X147128571Y-97140866D02*
X147090476Y-97255152D01*
X147090476Y-97255152D02*
X146633333Y-97712295D01*
X146633333Y-97712295D02*
X147128571Y-97712295D01*
X124435714Y-102036104D02*
X124397618Y-102074200D01*
X124397618Y-102074200D02*
X124283333Y-102112295D01*
X124283333Y-102112295D02*
X124207142Y-102112295D01*
X124207142Y-102112295D02*
X124092856Y-102074200D01*
X124092856Y-102074200D02*
X124016666Y-101998009D01*
X124016666Y-101998009D02*
X123978571Y-101921819D01*
X123978571Y-101921819D02*
X123940475Y-101769438D01*
X123940475Y-101769438D02*
X123940475Y-101655152D01*
X123940475Y-101655152D02*
X123978571Y-101502771D01*
X123978571Y-101502771D02*
X124016666Y-101426580D01*
X124016666Y-101426580D02*
X124092856Y-101350390D01*
X124092856Y-101350390D02*
X124207142Y-101312295D01*
X124207142Y-101312295D02*
X124283333Y-101312295D01*
X124283333Y-101312295D02*
X124397618Y-101350390D01*
X124397618Y-101350390D02*
X124435714Y-101388485D01*
X125197618Y-102112295D02*
X124740475Y-102112295D01*
X124969047Y-102112295D02*
X124969047Y-101312295D01*
X124969047Y-101312295D02*
X124892856Y-101426580D01*
X124892856Y-101426580D02*
X124816666Y-101502771D01*
X124816666Y-101502771D02*
X124740475Y-101540866D01*
X125502380Y-101388485D02*
X125540476Y-101350390D01*
X125540476Y-101350390D02*
X125616666Y-101312295D01*
X125616666Y-101312295D02*
X125807142Y-101312295D01*
X125807142Y-101312295D02*
X125883333Y-101350390D01*
X125883333Y-101350390D02*
X125921428Y-101388485D01*
X125921428Y-101388485D02*
X125959523Y-101464676D01*
X125959523Y-101464676D02*
X125959523Y-101540866D01*
X125959523Y-101540866D02*
X125921428Y-101655152D01*
X125921428Y-101655152D02*
X125464285Y-102112295D01*
X125464285Y-102112295D02*
X125959523Y-102112295D01*
D10*
X157509524Y-98764895D02*
X157509524Y-97964895D01*
X157509524Y-97964895D02*
X157700000Y-97964895D01*
X157700000Y-97964895D02*
X157814286Y-98002990D01*
X157814286Y-98002990D02*
X157890476Y-98079180D01*
X157890476Y-98079180D02*
X157928571Y-98155371D01*
X157928571Y-98155371D02*
X157966667Y-98307752D01*
X157966667Y-98307752D02*
X157966667Y-98422038D01*
X157966667Y-98422038D02*
X157928571Y-98574419D01*
X157928571Y-98574419D02*
X157890476Y-98650609D01*
X157890476Y-98650609D02*
X157814286Y-98726800D01*
X157814286Y-98726800D02*
X157700000Y-98764895D01*
X157700000Y-98764895D02*
X157509524Y-98764895D01*
X158271428Y-98041085D02*
X158309524Y-98002990D01*
X158309524Y-98002990D02*
X158385714Y-97964895D01*
X158385714Y-97964895D02*
X158576190Y-97964895D01*
X158576190Y-97964895D02*
X158652381Y-98002990D01*
X158652381Y-98002990D02*
X158690476Y-98041085D01*
X158690476Y-98041085D02*
X158728571Y-98117276D01*
X158728571Y-98117276D02*
X158728571Y-98193466D01*
X158728571Y-98193466D02*
X158690476Y-98307752D01*
X158690476Y-98307752D02*
X158233333Y-98764895D01*
X158233333Y-98764895D02*
X158728571Y-98764895D01*
D11*
X167766667Y-90762295D02*
X167500000Y-90381342D01*
X167309524Y-90762295D02*
X167309524Y-89962295D01*
X167309524Y-89962295D02*
X167614286Y-89962295D01*
X167614286Y-89962295D02*
X167690476Y-90000390D01*
X167690476Y-90000390D02*
X167728571Y-90038485D01*
X167728571Y-90038485D02*
X167766667Y-90114676D01*
X167766667Y-90114676D02*
X167766667Y-90228961D01*
X167766667Y-90228961D02*
X167728571Y-90305152D01*
X167728571Y-90305152D02*
X167690476Y-90343247D01*
X167690476Y-90343247D02*
X167614286Y-90381342D01*
X167614286Y-90381342D02*
X167309524Y-90381342D01*
X168071428Y-90038485D02*
X168109524Y-90000390D01*
X168109524Y-90000390D02*
X168185714Y-89962295D01*
X168185714Y-89962295D02*
X168376190Y-89962295D01*
X168376190Y-89962295D02*
X168452381Y-90000390D01*
X168452381Y-90000390D02*
X168490476Y-90038485D01*
X168490476Y-90038485D02*
X168528571Y-90114676D01*
X168528571Y-90114676D02*
X168528571Y-90190866D01*
X168528571Y-90190866D02*
X168490476Y-90305152D01*
X168490476Y-90305152D02*
X168033333Y-90762295D01*
X168033333Y-90762295D02*
X168528571Y-90762295D01*
X166862295Y-112414285D02*
X166062295Y-112414285D01*
X166062295Y-112414285D02*
X166862295Y-111957142D01*
X166862295Y-111957142D02*
X166062295Y-111957142D01*
X166862295Y-111119047D02*
X166481342Y-111385714D01*
X166862295Y-111576190D02*
X166062295Y-111576190D01*
X166062295Y-111576190D02*
X166062295Y-111271428D01*
X166062295Y-111271428D02*
X166100390Y-111195238D01*
X166100390Y-111195238D02*
X166138485Y-111157143D01*
X166138485Y-111157143D02*
X166214676Y-111119047D01*
X166214676Y-111119047D02*
X166328961Y-111119047D01*
X166328961Y-111119047D02*
X166405152Y-111157143D01*
X166405152Y-111157143D02*
X166443247Y-111195238D01*
X166443247Y-111195238D02*
X166481342Y-111271428D01*
X166481342Y-111271428D02*
X166481342Y-111576190D01*
X166824200Y-110814286D02*
X166862295Y-110700000D01*
X166862295Y-110700000D02*
X166862295Y-110509524D01*
X166862295Y-110509524D02*
X166824200Y-110433333D01*
X166824200Y-110433333D02*
X166786104Y-110395238D01*
X166786104Y-110395238D02*
X166709914Y-110357143D01*
X166709914Y-110357143D02*
X166633723Y-110357143D01*
X166633723Y-110357143D02*
X166557533Y-110395238D01*
X166557533Y-110395238D02*
X166519438Y-110433333D01*
X166519438Y-110433333D02*
X166481342Y-110509524D01*
X166481342Y-110509524D02*
X166443247Y-110661905D01*
X166443247Y-110661905D02*
X166405152Y-110738095D01*
X166405152Y-110738095D02*
X166367057Y-110776190D01*
X166367057Y-110776190D02*
X166290866Y-110814286D01*
X166290866Y-110814286D02*
X166214676Y-110814286D01*
X166214676Y-110814286D02*
X166138485Y-110776190D01*
X166138485Y-110776190D02*
X166100390Y-110738095D01*
X166100390Y-110738095D02*
X166062295Y-110661905D01*
X166062295Y-110661905D02*
X166062295Y-110471428D01*
X166062295Y-110471428D02*
X166100390Y-110357143D01*
X166062295Y-110128571D02*
X166062295Y-109671428D01*
X166862295Y-109900000D02*
X166062295Y-109900000D01*
X128385714Y-95836104D02*
X128347618Y-95874200D01*
X128347618Y-95874200D02*
X128233333Y-95912295D01*
X128233333Y-95912295D02*
X128157142Y-95912295D01*
X128157142Y-95912295D02*
X128042856Y-95874200D01*
X128042856Y-95874200D02*
X127966666Y-95798009D01*
X127966666Y-95798009D02*
X127928571Y-95721819D01*
X127928571Y-95721819D02*
X127890475Y-95569438D01*
X127890475Y-95569438D02*
X127890475Y-95455152D01*
X127890475Y-95455152D02*
X127928571Y-95302771D01*
X127928571Y-95302771D02*
X127966666Y-95226580D01*
X127966666Y-95226580D02*
X128042856Y-95150390D01*
X128042856Y-95150390D02*
X128157142Y-95112295D01*
X128157142Y-95112295D02*
X128233333Y-95112295D01*
X128233333Y-95112295D02*
X128347618Y-95150390D01*
X128347618Y-95150390D02*
X128385714Y-95188485D01*
X129147618Y-95912295D02*
X128690475Y-95912295D01*
X128919047Y-95912295D02*
X128919047Y-95112295D01*
X128919047Y-95112295D02*
X128842856Y-95226580D01*
X128842856Y-95226580D02*
X128766666Y-95302771D01*
X128766666Y-95302771D02*
X128690475Y-95340866D01*
X129414285Y-95112295D02*
X129909523Y-95112295D01*
X129909523Y-95112295D02*
X129642857Y-95417057D01*
X129642857Y-95417057D02*
X129757142Y-95417057D01*
X129757142Y-95417057D02*
X129833333Y-95455152D01*
X129833333Y-95455152D02*
X129871428Y-95493247D01*
X129871428Y-95493247D02*
X129909523Y-95569438D01*
X129909523Y-95569438D02*
X129909523Y-95759914D01*
X129909523Y-95759914D02*
X129871428Y-95836104D01*
X129871428Y-95836104D02*
X129833333Y-95874200D01*
X129833333Y-95874200D02*
X129757142Y-95912295D01*
X129757142Y-95912295D02*
X129528571Y-95912295D01*
X129528571Y-95912295D02*
X129452380Y-95874200D01*
X129452380Y-95874200D02*
X129414285Y-95836104D01*
X124435714Y-95436104D02*
X124397618Y-95474200D01*
X124397618Y-95474200D02*
X124283333Y-95512295D01*
X124283333Y-95512295D02*
X124207142Y-95512295D01*
X124207142Y-95512295D02*
X124092856Y-95474200D01*
X124092856Y-95474200D02*
X124016666Y-95398009D01*
X124016666Y-95398009D02*
X123978571Y-95321819D01*
X123978571Y-95321819D02*
X123940475Y-95169438D01*
X123940475Y-95169438D02*
X123940475Y-95055152D01*
X123940475Y-95055152D02*
X123978571Y-94902771D01*
X123978571Y-94902771D02*
X124016666Y-94826580D01*
X124016666Y-94826580D02*
X124092856Y-94750390D01*
X124092856Y-94750390D02*
X124207142Y-94712295D01*
X124207142Y-94712295D02*
X124283333Y-94712295D01*
X124283333Y-94712295D02*
X124397618Y-94750390D01*
X124397618Y-94750390D02*
X124435714Y-94788485D01*
X125197618Y-95512295D02*
X124740475Y-95512295D01*
X124969047Y-95512295D02*
X124969047Y-94712295D01*
X124969047Y-94712295D02*
X124892856Y-94826580D01*
X124892856Y-94826580D02*
X124816666Y-94902771D01*
X124816666Y-94902771D02*
X124740475Y-94940866D01*
X125959523Y-95512295D02*
X125502380Y-95512295D01*
X125730952Y-95512295D02*
X125730952Y-94712295D01*
X125730952Y-94712295D02*
X125654761Y-94826580D01*
X125654761Y-94826580D02*
X125578571Y-94902771D01*
X125578571Y-94902771D02*
X125502380Y-94940866D01*
X144766667Y-104686104D02*
X144728571Y-104724200D01*
X144728571Y-104724200D02*
X144614286Y-104762295D01*
X144614286Y-104762295D02*
X144538095Y-104762295D01*
X144538095Y-104762295D02*
X144423809Y-104724200D01*
X144423809Y-104724200D02*
X144347619Y-104648009D01*
X144347619Y-104648009D02*
X144309524Y-104571819D01*
X144309524Y-104571819D02*
X144271428Y-104419438D01*
X144271428Y-104419438D02*
X144271428Y-104305152D01*
X144271428Y-104305152D02*
X144309524Y-104152771D01*
X144309524Y-104152771D02*
X144347619Y-104076580D01*
X144347619Y-104076580D02*
X144423809Y-104000390D01*
X144423809Y-104000390D02*
X144538095Y-103962295D01*
X144538095Y-103962295D02*
X144614286Y-103962295D01*
X144614286Y-103962295D02*
X144728571Y-104000390D01*
X144728571Y-104000390D02*
X144766667Y-104038485D01*
X145528571Y-104762295D02*
X145071428Y-104762295D01*
X145300000Y-104762295D02*
X145300000Y-103962295D01*
X145300000Y-103962295D02*
X145223809Y-104076580D01*
X145223809Y-104076580D02*
X145147619Y-104152771D01*
X145147619Y-104152771D02*
X145071428Y-104190866D01*
X155490476Y-105312295D02*
X155490476Y-105959914D01*
X155490476Y-105959914D02*
X155528571Y-106036104D01*
X155528571Y-106036104D02*
X155566666Y-106074200D01*
X155566666Y-106074200D02*
X155642857Y-106112295D01*
X155642857Y-106112295D02*
X155795238Y-106112295D01*
X155795238Y-106112295D02*
X155871428Y-106074200D01*
X155871428Y-106074200D02*
X155909523Y-106036104D01*
X155909523Y-106036104D02*
X155947619Y-105959914D01*
X155947619Y-105959914D02*
X155947619Y-105312295D01*
X156747618Y-106112295D02*
X156290475Y-106112295D01*
X156519047Y-106112295D02*
X156519047Y-105312295D01*
X156519047Y-105312295D02*
X156442856Y-105426580D01*
X156442856Y-105426580D02*
X156366666Y-105502771D01*
X156366666Y-105502771D02*
X156290475Y-105540866D01*
X141516667Y-91486104D02*
X141478571Y-91524200D01*
X141478571Y-91524200D02*
X141364286Y-91562295D01*
X141364286Y-91562295D02*
X141288095Y-91562295D01*
X141288095Y-91562295D02*
X141173809Y-91524200D01*
X141173809Y-91524200D02*
X141097619Y-91448009D01*
X141097619Y-91448009D02*
X141059524Y-91371819D01*
X141059524Y-91371819D02*
X141021428Y-91219438D01*
X141021428Y-91219438D02*
X141021428Y-91105152D01*
X141021428Y-91105152D02*
X141059524Y-90952771D01*
X141059524Y-90952771D02*
X141097619Y-90876580D01*
X141097619Y-90876580D02*
X141173809Y-90800390D01*
X141173809Y-90800390D02*
X141288095Y-90762295D01*
X141288095Y-90762295D02*
X141364286Y-90762295D01*
X141364286Y-90762295D02*
X141478571Y-90800390D01*
X141478571Y-90800390D02*
X141516667Y-90838485D01*
X142202381Y-91028961D02*
X142202381Y-91562295D01*
X142011905Y-90724200D02*
X141821428Y-91295628D01*
X141821428Y-91295628D02*
X142316667Y-91295628D01*
X121359524Y-95562295D02*
X121359524Y-94762295D01*
X121359524Y-94762295D02*
X121550000Y-94762295D01*
X121550000Y-94762295D02*
X121664286Y-94800390D01*
X121664286Y-94800390D02*
X121740476Y-94876580D01*
X121740476Y-94876580D02*
X121778571Y-94952771D01*
X121778571Y-94952771D02*
X121816667Y-95105152D01*
X121816667Y-95105152D02*
X121816667Y-95219438D01*
X121816667Y-95219438D02*
X121778571Y-95371819D01*
X121778571Y-95371819D02*
X121740476Y-95448009D01*
X121740476Y-95448009D02*
X121664286Y-95524200D01*
X121664286Y-95524200D02*
X121550000Y-95562295D01*
X121550000Y-95562295D02*
X121359524Y-95562295D01*
X122578571Y-95562295D02*
X122121428Y-95562295D01*
X122350000Y-95562295D02*
X122350000Y-94762295D01*
X122350000Y-94762295D02*
X122273809Y-94876580D01*
X122273809Y-94876580D02*
X122197619Y-94952771D01*
X122197619Y-94952771D02*
X122121428Y-94990866D01*
X130166667Y-106286104D02*
X130128571Y-106324200D01*
X130128571Y-106324200D02*
X130014286Y-106362295D01*
X130014286Y-106362295D02*
X129938095Y-106362295D01*
X129938095Y-106362295D02*
X129823809Y-106324200D01*
X129823809Y-106324200D02*
X129747619Y-106248009D01*
X129747619Y-106248009D02*
X129709524Y-106171819D01*
X129709524Y-106171819D02*
X129671428Y-106019438D01*
X129671428Y-106019438D02*
X129671428Y-105905152D01*
X129671428Y-105905152D02*
X129709524Y-105752771D01*
X129709524Y-105752771D02*
X129747619Y-105676580D01*
X129747619Y-105676580D02*
X129823809Y-105600390D01*
X129823809Y-105600390D02*
X129938095Y-105562295D01*
X129938095Y-105562295D02*
X130014286Y-105562295D01*
X130014286Y-105562295D02*
X130128571Y-105600390D01*
X130128571Y-105600390D02*
X130166667Y-105638485D01*
X130547619Y-106362295D02*
X130700000Y-106362295D01*
X130700000Y-106362295D02*
X130776190Y-106324200D01*
X130776190Y-106324200D02*
X130814286Y-106286104D01*
X130814286Y-106286104D02*
X130890476Y-106171819D01*
X130890476Y-106171819D02*
X130928571Y-106019438D01*
X130928571Y-106019438D02*
X130928571Y-105714676D01*
X130928571Y-105714676D02*
X130890476Y-105638485D01*
X130890476Y-105638485D02*
X130852381Y-105600390D01*
X130852381Y-105600390D02*
X130776190Y-105562295D01*
X130776190Y-105562295D02*
X130623809Y-105562295D01*
X130623809Y-105562295D02*
X130547619Y-105600390D01*
X130547619Y-105600390D02*
X130509524Y-105638485D01*
X130509524Y-105638485D02*
X130471428Y-105714676D01*
X130471428Y-105714676D02*
X130471428Y-105905152D01*
X130471428Y-105905152D02*
X130509524Y-105981342D01*
X130509524Y-105981342D02*
X130547619Y-106019438D01*
X130547619Y-106019438D02*
X130623809Y-106057533D01*
X130623809Y-106057533D02*
X130776190Y-106057533D01*
X130776190Y-106057533D02*
X130852381Y-106019438D01*
X130852381Y-106019438D02*
X130890476Y-105981342D01*
X130890476Y-105981342D02*
X130928571Y-105905152D01*
X125609524Y-105562295D02*
X125609524Y-104762295D01*
X125609524Y-104762295D02*
X125800000Y-104762295D01*
X125800000Y-104762295D02*
X125914286Y-104800390D01*
X125914286Y-104800390D02*
X125990476Y-104876580D01*
X125990476Y-104876580D02*
X126028571Y-104952771D01*
X126028571Y-104952771D02*
X126066667Y-105105152D01*
X126066667Y-105105152D02*
X126066667Y-105219438D01*
X126066667Y-105219438D02*
X126028571Y-105371819D01*
X126028571Y-105371819D02*
X125990476Y-105448009D01*
X125990476Y-105448009D02*
X125914286Y-105524200D01*
X125914286Y-105524200D02*
X125800000Y-105562295D01*
X125800000Y-105562295D02*
X125609524Y-105562295D01*
X126752381Y-105028961D02*
X126752381Y-105562295D01*
X126561905Y-104724200D02*
X126371428Y-105295628D01*
X126371428Y-105295628D02*
X126866667Y-105295628D01*
X152416667Y-95912295D02*
X152150000Y-95531342D01*
X151959524Y-95912295D02*
X151959524Y-95112295D01*
X151959524Y-95112295D02*
X152264286Y-95112295D01*
X152264286Y-95112295D02*
X152340476Y-95150390D01*
X152340476Y-95150390D02*
X152378571Y-95188485D01*
X152378571Y-95188485D02*
X152416667Y-95264676D01*
X152416667Y-95264676D02*
X152416667Y-95378961D01*
X152416667Y-95378961D02*
X152378571Y-95455152D01*
X152378571Y-95455152D02*
X152340476Y-95493247D01*
X152340476Y-95493247D02*
X152264286Y-95531342D01*
X152264286Y-95531342D02*
X151959524Y-95531342D01*
X153102381Y-95378961D02*
X153102381Y-95912295D01*
X152911905Y-95074200D02*
X152721428Y-95645628D01*
X152721428Y-95645628D02*
X153216667Y-95645628D01*
X127166667Y-91786104D02*
X127128571Y-91824200D01*
X127128571Y-91824200D02*
X127014286Y-91862295D01*
X127014286Y-91862295D02*
X126938095Y-91862295D01*
X126938095Y-91862295D02*
X126823809Y-91824200D01*
X126823809Y-91824200D02*
X126747619Y-91748009D01*
X126747619Y-91748009D02*
X126709524Y-91671819D01*
X126709524Y-91671819D02*
X126671428Y-91519438D01*
X126671428Y-91519438D02*
X126671428Y-91405152D01*
X126671428Y-91405152D02*
X126709524Y-91252771D01*
X126709524Y-91252771D02*
X126747619Y-91176580D01*
X126747619Y-91176580D02*
X126823809Y-91100390D01*
X126823809Y-91100390D02*
X126938095Y-91062295D01*
X126938095Y-91062295D02*
X127014286Y-91062295D01*
X127014286Y-91062295D02*
X127128571Y-91100390D01*
X127128571Y-91100390D02*
X127166667Y-91138485D01*
X127433333Y-91062295D02*
X127928571Y-91062295D01*
X127928571Y-91062295D02*
X127661905Y-91367057D01*
X127661905Y-91367057D02*
X127776190Y-91367057D01*
X127776190Y-91367057D02*
X127852381Y-91405152D01*
X127852381Y-91405152D02*
X127890476Y-91443247D01*
X127890476Y-91443247D02*
X127928571Y-91519438D01*
X127928571Y-91519438D02*
X127928571Y-91709914D01*
X127928571Y-91709914D02*
X127890476Y-91786104D01*
X127890476Y-91786104D02*
X127852381Y-91824200D01*
X127852381Y-91824200D02*
X127776190Y-91862295D01*
X127776190Y-91862295D02*
X127547619Y-91862295D01*
X127547619Y-91862295D02*
X127471428Y-91824200D01*
X127471428Y-91824200D02*
X127433333Y-91786104D01*
X141266667Y-106186104D02*
X141228571Y-106224200D01*
X141228571Y-106224200D02*
X141114286Y-106262295D01*
X141114286Y-106262295D02*
X141038095Y-106262295D01*
X141038095Y-106262295D02*
X140923809Y-106224200D01*
X140923809Y-106224200D02*
X140847619Y-106148009D01*
X140847619Y-106148009D02*
X140809524Y-106071819D01*
X140809524Y-106071819D02*
X140771428Y-105919438D01*
X140771428Y-105919438D02*
X140771428Y-105805152D01*
X140771428Y-105805152D02*
X140809524Y-105652771D01*
X140809524Y-105652771D02*
X140847619Y-105576580D01*
X140847619Y-105576580D02*
X140923809Y-105500390D01*
X140923809Y-105500390D02*
X141038095Y-105462295D01*
X141038095Y-105462295D02*
X141114286Y-105462295D01*
X141114286Y-105462295D02*
X141228571Y-105500390D01*
X141228571Y-105500390D02*
X141266667Y-105538485D01*
X141723809Y-105805152D02*
X141647619Y-105767057D01*
X141647619Y-105767057D02*
X141609524Y-105728961D01*
X141609524Y-105728961D02*
X141571428Y-105652771D01*
X141571428Y-105652771D02*
X141571428Y-105614676D01*
X141571428Y-105614676D02*
X141609524Y-105538485D01*
X141609524Y-105538485D02*
X141647619Y-105500390D01*
X141647619Y-105500390D02*
X141723809Y-105462295D01*
X141723809Y-105462295D02*
X141876190Y-105462295D01*
X141876190Y-105462295D02*
X141952381Y-105500390D01*
X141952381Y-105500390D02*
X141990476Y-105538485D01*
X141990476Y-105538485D02*
X142028571Y-105614676D01*
X142028571Y-105614676D02*
X142028571Y-105652771D01*
X142028571Y-105652771D02*
X141990476Y-105728961D01*
X141990476Y-105728961D02*
X141952381Y-105767057D01*
X141952381Y-105767057D02*
X141876190Y-105805152D01*
X141876190Y-105805152D02*
X141723809Y-105805152D01*
X141723809Y-105805152D02*
X141647619Y-105843247D01*
X141647619Y-105843247D02*
X141609524Y-105881342D01*
X141609524Y-105881342D02*
X141571428Y-105957533D01*
X141571428Y-105957533D02*
X141571428Y-106109914D01*
X141571428Y-106109914D02*
X141609524Y-106186104D01*
X141609524Y-106186104D02*
X141647619Y-106224200D01*
X141647619Y-106224200D02*
X141723809Y-106262295D01*
X141723809Y-106262295D02*
X141876190Y-106262295D01*
X141876190Y-106262295D02*
X141952381Y-106224200D01*
X141952381Y-106224200D02*
X141990476Y-106186104D01*
X141990476Y-106186104D02*
X142028571Y-106109914D01*
X142028571Y-106109914D02*
X142028571Y-105957533D01*
X142028571Y-105957533D02*
X141990476Y-105881342D01*
X141990476Y-105881342D02*
X141952381Y-105843247D01*
X141952381Y-105843247D02*
X141876190Y-105805152D01*
X137936104Y-104933332D02*
X137974200Y-104971428D01*
X137974200Y-104971428D02*
X138012295Y-105085713D01*
X138012295Y-105085713D02*
X138012295Y-105161904D01*
X138012295Y-105161904D02*
X137974200Y-105276190D01*
X137974200Y-105276190D02*
X137898009Y-105352380D01*
X137898009Y-105352380D02*
X137821819Y-105390475D01*
X137821819Y-105390475D02*
X137669438Y-105428571D01*
X137669438Y-105428571D02*
X137555152Y-105428571D01*
X137555152Y-105428571D02*
X137402771Y-105390475D01*
X137402771Y-105390475D02*
X137326580Y-105352380D01*
X137326580Y-105352380D02*
X137250390Y-105276190D01*
X137250390Y-105276190D02*
X137212295Y-105161904D01*
X137212295Y-105161904D02*
X137212295Y-105085713D01*
X137212295Y-105085713D02*
X137250390Y-104971428D01*
X137250390Y-104971428D02*
X137288485Y-104933332D01*
X137212295Y-104666666D02*
X137212295Y-104133332D01*
X137212295Y-104133332D02*
X138012295Y-104476190D01*
X167035714Y-108286104D02*
X166997618Y-108324200D01*
X166997618Y-108324200D02*
X166883333Y-108362295D01*
X166883333Y-108362295D02*
X166807142Y-108362295D01*
X166807142Y-108362295D02*
X166692856Y-108324200D01*
X166692856Y-108324200D02*
X166616666Y-108248009D01*
X166616666Y-108248009D02*
X166578571Y-108171819D01*
X166578571Y-108171819D02*
X166540475Y-108019438D01*
X166540475Y-108019438D02*
X166540475Y-107905152D01*
X166540475Y-107905152D02*
X166578571Y-107752771D01*
X166578571Y-107752771D02*
X166616666Y-107676580D01*
X166616666Y-107676580D02*
X166692856Y-107600390D01*
X166692856Y-107600390D02*
X166807142Y-107562295D01*
X166807142Y-107562295D02*
X166883333Y-107562295D01*
X166883333Y-107562295D02*
X166997618Y-107600390D01*
X166997618Y-107600390D02*
X167035714Y-107638485D01*
X167797618Y-108362295D02*
X167340475Y-108362295D01*
X167569047Y-108362295D02*
X167569047Y-107562295D01*
X167569047Y-107562295D02*
X167492856Y-107676580D01*
X167492856Y-107676580D02*
X167416666Y-107752771D01*
X167416666Y-107752771D02*
X167340475Y-107790866D01*
X168483333Y-107828961D02*
X168483333Y-108362295D01*
X168292857Y-107524200D02*
X168102380Y-108095628D01*
X168102380Y-108095628D02*
X168597619Y-108095628D01*
X141390476Y-92802295D02*
X141390476Y-93449914D01*
X141390476Y-93449914D02*
X141428571Y-93526104D01*
X141428571Y-93526104D02*
X141466666Y-93564200D01*
X141466666Y-93564200D02*
X141542857Y-93602295D01*
X141542857Y-93602295D02*
X141695238Y-93602295D01*
X141695238Y-93602295D02*
X141771428Y-93564200D01*
X141771428Y-93564200D02*
X141809523Y-93526104D01*
X141809523Y-93526104D02*
X141847619Y-93449914D01*
X141847619Y-93449914D02*
X141847619Y-92802295D01*
X142190475Y-92878485D02*
X142228571Y-92840390D01*
X142228571Y-92840390D02*
X142304761Y-92802295D01*
X142304761Y-92802295D02*
X142495237Y-92802295D01*
X142495237Y-92802295D02*
X142571428Y-92840390D01*
X142571428Y-92840390D02*
X142609523Y-92878485D01*
X142609523Y-92878485D02*
X142647618Y-92954676D01*
X142647618Y-92954676D02*
X142647618Y-93030866D01*
X142647618Y-93030866D02*
X142609523Y-93145152D01*
X142609523Y-93145152D02*
X142152380Y-93602295D01*
X142152380Y-93602295D02*
X142647618Y-93602295D01*
X134386104Y-105314285D02*
X134424200Y-105352381D01*
X134424200Y-105352381D02*
X134462295Y-105466666D01*
X134462295Y-105466666D02*
X134462295Y-105542857D01*
X134462295Y-105542857D02*
X134424200Y-105657143D01*
X134424200Y-105657143D02*
X134348009Y-105733333D01*
X134348009Y-105733333D02*
X134271819Y-105771428D01*
X134271819Y-105771428D02*
X134119438Y-105809524D01*
X134119438Y-105809524D02*
X134005152Y-105809524D01*
X134005152Y-105809524D02*
X133852771Y-105771428D01*
X133852771Y-105771428D02*
X133776580Y-105733333D01*
X133776580Y-105733333D02*
X133700390Y-105657143D01*
X133700390Y-105657143D02*
X133662295Y-105542857D01*
X133662295Y-105542857D02*
X133662295Y-105466666D01*
X133662295Y-105466666D02*
X133700390Y-105352381D01*
X133700390Y-105352381D02*
X133738485Y-105314285D01*
X134462295Y-104552381D02*
X134462295Y-105009524D01*
X134462295Y-104780952D02*
X133662295Y-104780952D01*
X133662295Y-104780952D02*
X133776580Y-104857143D01*
X133776580Y-104857143D02*
X133852771Y-104933333D01*
X133852771Y-104933333D02*
X133890866Y-105009524D01*
X133662295Y-104057142D02*
X133662295Y-103980952D01*
X133662295Y-103980952D02*
X133700390Y-103904761D01*
X133700390Y-103904761D02*
X133738485Y-103866666D01*
X133738485Y-103866666D02*
X133814676Y-103828571D01*
X133814676Y-103828571D02*
X133967057Y-103790476D01*
X133967057Y-103790476D02*
X134157533Y-103790476D01*
X134157533Y-103790476D02*
X134309914Y-103828571D01*
X134309914Y-103828571D02*
X134386104Y-103866666D01*
X134386104Y-103866666D02*
X134424200Y-103904761D01*
X134424200Y-103904761D02*
X134462295Y-103980952D01*
X134462295Y-103980952D02*
X134462295Y-104057142D01*
X134462295Y-104057142D02*
X134424200Y-104133333D01*
X134424200Y-104133333D02*
X134386104Y-104171428D01*
X134386104Y-104171428D02*
X134309914Y-104209523D01*
X134309914Y-104209523D02*
X134157533Y-104247619D01*
X134157533Y-104247619D02*
X133967057Y-104247619D01*
X133967057Y-104247619D02*
X133814676Y-104209523D01*
X133814676Y-104209523D02*
X133738485Y-104171428D01*
X133738485Y-104171428D02*
X133700390Y-104133333D01*
X133700390Y-104133333D02*
X133662295Y-104057142D01*
X166493247Y-86485714D02*
X166531342Y-86371428D01*
X166531342Y-86371428D02*
X166569438Y-86333333D01*
X166569438Y-86333333D02*
X166645628Y-86295237D01*
X166645628Y-86295237D02*
X166759914Y-86295237D01*
X166759914Y-86295237D02*
X166836104Y-86333333D01*
X166836104Y-86333333D02*
X166874200Y-86371428D01*
X166874200Y-86371428D02*
X166912295Y-86447618D01*
X166912295Y-86447618D02*
X166912295Y-86752380D01*
X166912295Y-86752380D02*
X166112295Y-86752380D01*
X166112295Y-86752380D02*
X166112295Y-86485714D01*
X166112295Y-86485714D02*
X166150390Y-86409523D01*
X166150390Y-86409523D02*
X166188485Y-86371428D01*
X166188485Y-86371428D02*
X166264676Y-86333333D01*
X166264676Y-86333333D02*
X166340866Y-86333333D01*
X166340866Y-86333333D02*
X166417057Y-86371428D01*
X166417057Y-86371428D02*
X166455152Y-86409523D01*
X166455152Y-86409523D02*
X166493247Y-86485714D01*
X166493247Y-86485714D02*
X166493247Y-86752380D01*
X166112295Y-85799999D02*
X166112295Y-85647618D01*
X166112295Y-85647618D02*
X166150390Y-85571428D01*
X166150390Y-85571428D02*
X166226580Y-85495237D01*
X166226580Y-85495237D02*
X166378961Y-85457142D01*
X166378961Y-85457142D02*
X166645628Y-85457142D01*
X166645628Y-85457142D02*
X166798009Y-85495237D01*
X166798009Y-85495237D02*
X166874200Y-85571428D01*
X166874200Y-85571428D02*
X166912295Y-85647618D01*
X166912295Y-85647618D02*
X166912295Y-85799999D01*
X166912295Y-85799999D02*
X166874200Y-85876190D01*
X166874200Y-85876190D02*
X166798009Y-85952380D01*
X166798009Y-85952380D02*
X166645628Y-85990476D01*
X166645628Y-85990476D02*
X166378961Y-85990476D01*
X166378961Y-85990476D02*
X166226580Y-85952380D01*
X166226580Y-85952380D02*
X166150390Y-85876190D01*
X166150390Y-85876190D02*
X166112295Y-85799999D01*
X166112295Y-84961904D02*
X166112295Y-84809523D01*
X166112295Y-84809523D02*
X166150390Y-84733333D01*
X166150390Y-84733333D02*
X166226580Y-84657142D01*
X166226580Y-84657142D02*
X166378961Y-84619047D01*
X166378961Y-84619047D02*
X166645628Y-84619047D01*
X166645628Y-84619047D02*
X166798009Y-84657142D01*
X166798009Y-84657142D02*
X166874200Y-84733333D01*
X166874200Y-84733333D02*
X166912295Y-84809523D01*
X166912295Y-84809523D02*
X166912295Y-84961904D01*
X166912295Y-84961904D02*
X166874200Y-85038095D01*
X166874200Y-85038095D02*
X166798009Y-85114285D01*
X166798009Y-85114285D02*
X166645628Y-85152381D01*
X166645628Y-85152381D02*
X166378961Y-85152381D01*
X166378961Y-85152381D02*
X166226580Y-85114285D01*
X166226580Y-85114285D02*
X166150390Y-85038095D01*
X166150390Y-85038095D02*
X166112295Y-84961904D01*
X166112295Y-84390476D02*
X166112295Y-83933333D01*
X166912295Y-84161905D02*
X166112295Y-84161905D01*
X162166667Y-104012295D02*
X161900000Y-103631342D01*
X161709524Y-104012295D02*
X161709524Y-103212295D01*
X161709524Y-103212295D02*
X162014286Y-103212295D01*
X162014286Y-103212295D02*
X162090476Y-103250390D01*
X162090476Y-103250390D02*
X162128571Y-103288485D01*
X162128571Y-103288485D02*
X162166667Y-103364676D01*
X162166667Y-103364676D02*
X162166667Y-103478961D01*
X162166667Y-103478961D02*
X162128571Y-103555152D01*
X162128571Y-103555152D02*
X162090476Y-103593247D01*
X162090476Y-103593247D02*
X162014286Y-103631342D01*
X162014286Y-103631342D02*
X161709524Y-103631342D01*
X162433333Y-103212295D02*
X162928571Y-103212295D01*
X162928571Y-103212295D02*
X162661905Y-103517057D01*
X162661905Y-103517057D02*
X162776190Y-103517057D01*
X162776190Y-103517057D02*
X162852381Y-103555152D01*
X162852381Y-103555152D02*
X162890476Y-103593247D01*
X162890476Y-103593247D02*
X162928571Y-103669438D01*
X162928571Y-103669438D02*
X162928571Y-103859914D01*
X162928571Y-103859914D02*
X162890476Y-103936104D01*
X162890476Y-103936104D02*
X162852381Y-103974200D01*
X162852381Y-103974200D02*
X162776190Y-104012295D01*
X162776190Y-104012295D02*
X162547619Y-104012295D01*
X162547619Y-104012295D02*
X162471428Y-103974200D01*
X162471428Y-103974200D02*
X162433333Y-103936104D01*
X128783333Y-104093247D02*
X128516667Y-104093247D01*
X128516667Y-104512295D02*
X128516667Y-103712295D01*
X128516667Y-103712295D02*
X128897619Y-103712295D01*
X129469047Y-104093247D02*
X129583333Y-104131342D01*
X129583333Y-104131342D02*
X129621428Y-104169438D01*
X129621428Y-104169438D02*
X129659524Y-104245628D01*
X129659524Y-104245628D02*
X129659524Y-104359914D01*
X129659524Y-104359914D02*
X129621428Y-104436104D01*
X129621428Y-104436104D02*
X129583333Y-104474200D01*
X129583333Y-104474200D02*
X129507143Y-104512295D01*
X129507143Y-104512295D02*
X129202381Y-104512295D01*
X129202381Y-104512295D02*
X129202381Y-103712295D01*
X129202381Y-103712295D02*
X129469047Y-103712295D01*
X129469047Y-103712295D02*
X129545238Y-103750390D01*
X129545238Y-103750390D02*
X129583333Y-103788485D01*
X129583333Y-103788485D02*
X129621428Y-103864676D01*
X129621428Y-103864676D02*
X129621428Y-103940866D01*
X129621428Y-103940866D02*
X129583333Y-104017057D01*
X129583333Y-104017057D02*
X129545238Y-104055152D01*
X129545238Y-104055152D02*
X129469047Y-104093247D01*
X129469047Y-104093247D02*
X129202381Y-104093247D01*
X129964285Y-103788485D02*
X130002381Y-103750390D01*
X130002381Y-103750390D02*
X130078571Y-103712295D01*
X130078571Y-103712295D02*
X130269047Y-103712295D01*
X130269047Y-103712295D02*
X130345238Y-103750390D01*
X130345238Y-103750390D02*
X130383333Y-103788485D01*
X130383333Y-103788485D02*
X130421428Y-103864676D01*
X130421428Y-103864676D02*
X130421428Y-103940866D01*
X130421428Y-103940866D02*
X130383333Y-104055152D01*
X130383333Y-104055152D02*
X129926190Y-104512295D01*
X129926190Y-104512295D02*
X130421428Y-104512295D01*
X142466667Y-102836104D02*
X142428571Y-102874200D01*
X142428571Y-102874200D02*
X142314286Y-102912295D01*
X142314286Y-102912295D02*
X142238095Y-102912295D01*
X142238095Y-102912295D02*
X142123809Y-102874200D01*
X142123809Y-102874200D02*
X142047619Y-102798009D01*
X142047619Y-102798009D02*
X142009524Y-102721819D01*
X142009524Y-102721819D02*
X141971428Y-102569438D01*
X141971428Y-102569438D02*
X141971428Y-102455152D01*
X141971428Y-102455152D02*
X142009524Y-102302771D01*
X142009524Y-102302771D02*
X142047619Y-102226580D01*
X142047619Y-102226580D02*
X142123809Y-102150390D01*
X142123809Y-102150390D02*
X142238095Y-102112295D01*
X142238095Y-102112295D02*
X142314286Y-102112295D01*
X142314286Y-102112295D02*
X142428571Y-102150390D01*
X142428571Y-102150390D02*
X142466667Y-102188485D01*
X143190476Y-102112295D02*
X142809524Y-102112295D01*
X142809524Y-102112295D02*
X142771428Y-102493247D01*
X142771428Y-102493247D02*
X142809524Y-102455152D01*
X142809524Y-102455152D02*
X142885714Y-102417057D01*
X142885714Y-102417057D02*
X143076190Y-102417057D01*
X143076190Y-102417057D02*
X143152381Y-102455152D01*
X143152381Y-102455152D02*
X143190476Y-102493247D01*
X143190476Y-102493247D02*
X143228571Y-102569438D01*
X143228571Y-102569438D02*
X143228571Y-102759914D01*
X143228571Y-102759914D02*
X143190476Y-102836104D01*
X143190476Y-102836104D02*
X143152381Y-102874200D01*
X143152381Y-102874200D02*
X143076190Y-102912295D01*
X143076190Y-102912295D02*
X142885714Y-102912295D01*
X142885714Y-102912295D02*
X142809524Y-102874200D01*
X142809524Y-102874200D02*
X142771428Y-102836104D01*
X148609524Y-95812295D02*
X148609524Y-95012295D01*
X148609524Y-95012295D02*
X148800000Y-95012295D01*
X148800000Y-95012295D02*
X148914286Y-95050390D01*
X148914286Y-95050390D02*
X148990476Y-95126580D01*
X148990476Y-95126580D02*
X149028571Y-95202771D01*
X149028571Y-95202771D02*
X149066667Y-95355152D01*
X149066667Y-95355152D02*
X149066667Y-95469438D01*
X149066667Y-95469438D02*
X149028571Y-95621819D01*
X149028571Y-95621819D02*
X148990476Y-95698009D01*
X148990476Y-95698009D02*
X148914286Y-95774200D01*
X148914286Y-95774200D02*
X148800000Y-95812295D01*
X148800000Y-95812295D02*
X148609524Y-95812295D01*
X149333333Y-95012295D02*
X149828571Y-95012295D01*
X149828571Y-95012295D02*
X149561905Y-95317057D01*
X149561905Y-95317057D02*
X149676190Y-95317057D01*
X149676190Y-95317057D02*
X149752381Y-95355152D01*
X149752381Y-95355152D02*
X149790476Y-95393247D01*
X149790476Y-95393247D02*
X149828571Y-95469438D01*
X149828571Y-95469438D02*
X149828571Y-95659914D01*
X149828571Y-95659914D02*
X149790476Y-95736104D01*
X149790476Y-95736104D02*
X149752381Y-95774200D01*
X149752381Y-95774200D02*
X149676190Y-95812295D01*
X149676190Y-95812295D02*
X149447619Y-95812295D01*
X149447619Y-95812295D02*
X149371428Y-95774200D01*
X149371428Y-95774200D02*
X149333333Y-95736104D01*
X121033333Y-108562295D02*
X121033333Y-109133723D01*
X121033333Y-109133723D02*
X120995238Y-109248009D01*
X120995238Y-109248009D02*
X120919047Y-109324200D01*
X120919047Y-109324200D02*
X120804762Y-109362295D01*
X120804762Y-109362295D02*
X120728571Y-109362295D01*
X121376190Y-108638485D02*
X121414286Y-108600390D01*
X121414286Y-108600390D02*
X121490476Y-108562295D01*
X121490476Y-108562295D02*
X121680952Y-108562295D01*
X121680952Y-108562295D02*
X121757143Y-108600390D01*
X121757143Y-108600390D02*
X121795238Y-108638485D01*
X121795238Y-108638485D02*
X121833333Y-108714676D01*
X121833333Y-108714676D02*
X121833333Y-108790866D01*
X121833333Y-108790866D02*
X121795238Y-108905152D01*
X121795238Y-108905152D02*
X121338095Y-109362295D01*
X121338095Y-109362295D02*
X121833333Y-109362295D01*
X156552976Y-91012295D02*
X156552976Y-91659914D01*
X156552976Y-91659914D02*
X156591071Y-91736104D01*
X156591071Y-91736104D02*
X156629166Y-91774200D01*
X156629166Y-91774200D02*
X156705357Y-91812295D01*
X156705357Y-91812295D02*
X156857738Y-91812295D01*
X156857738Y-91812295D02*
X156933928Y-91774200D01*
X156933928Y-91774200D02*
X156972023Y-91736104D01*
X156972023Y-91736104D02*
X157010119Y-91659914D01*
X157010119Y-91659914D02*
X157010119Y-91012295D01*
X157314880Y-91012295D02*
X157810118Y-91012295D01*
X157810118Y-91012295D02*
X157543452Y-91317057D01*
X157543452Y-91317057D02*
X157657737Y-91317057D01*
X157657737Y-91317057D02*
X157733928Y-91355152D01*
X157733928Y-91355152D02*
X157772023Y-91393247D01*
X157772023Y-91393247D02*
X157810118Y-91469438D01*
X157810118Y-91469438D02*
X157810118Y-91659914D01*
X157810118Y-91659914D02*
X157772023Y-91736104D01*
X157772023Y-91736104D02*
X157733928Y-91774200D01*
X157733928Y-91774200D02*
X157657737Y-91812295D01*
X157657737Y-91812295D02*
X157429166Y-91812295D01*
X157429166Y-91812295D02*
X157352975Y-91774200D01*
X157352975Y-91774200D02*
X157314880Y-91736104D01*
X122269048Y-98352634D02*
X122269048Y-98733587D01*
X122002381Y-97933587D02*
X122269048Y-98352634D01*
X122269048Y-98352634D02*
X122535714Y-97933587D01*
X123221428Y-98733587D02*
X122764285Y-98733587D01*
X122992857Y-98733587D02*
X122992857Y-97933587D01*
X122992857Y-97933587D02*
X122916666Y-98047872D01*
X122916666Y-98047872D02*
X122840476Y-98124063D01*
X122840476Y-98124063D02*
X122764285Y-98162158D01*
D12*
%TO.C,R5*%
X124087258Y-102877500D02*
X123612742Y-102877500D01*
X124087258Y-103922500D02*
X123612742Y-103922500D01*
%TO.C,FB1*%
X139799622Y-103640000D02*
X139000378Y-103640000D01*
X139799622Y-104760000D02*
X139000378Y-104760000D01*
%TO.C,J1*%
X122180000Y-82620000D02*
X122180000Y-87920000D01*
X150230000Y-82620000D02*
X122180000Y-82620000D01*
X150230000Y-82620000D02*
X150230000Y-85270000D01*
X150230000Y-85270000D02*
X152880000Y-85270000D01*
X151500000Y-82620000D02*
X152880000Y-82620000D01*
X152880000Y-82620000D02*
X152880000Y-84000000D01*
X152880000Y-85270000D02*
X152880000Y-87920000D01*
X152880000Y-87920000D02*
X122180000Y-87920000D01*
%TO.C,R1*%
X165987258Y-103877500D02*
X165512742Y-103877500D01*
X165987258Y-104922500D02*
X165512742Y-104922500D01*
%TO.C,R6*%
X160762742Y-89877500D02*
X161237258Y-89877500D01*
X160762742Y-90922500D02*
X161237258Y-90922500D01*
%TO.C,J3*%
X163400000Y-102130000D02*
X165320000Y-102130000D01*
X165320000Y-92970000D02*
X163400000Y-92970000D01*
X167330000Y-92970000D02*
X169035000Y-92970000D01*
X169035000Y-92970000D02*
X169035000Y-102130000D01*
X169035000Y-102130000D02*
X167330000Y-102130000D01*
%TO.C,C2*%
X145765000Y-99861252D02*
X145765000Y-99338748D01*
X147235000Y-99861252D02*
X147235000Y-99338748D01*
%TO.C,C12*%
X124807836Y-100311292D02*
X124592164Y-100311292D01*
X124807836Y-101031292D02*
X124592164Y-101031292D01*
%TO.C,D2*%
X157090000Y-100400000D02*
X157090000Y-103710000D01*
X159110000Y-103710000D02*
X157090000Y-103710000D01*
X159110000Y-103710000D02*
X159110000Y-100400000D01*
%TO.C,R2*%
X165987258Y-89877500D02*
X165512742Y-89877500D01*
X165987258Y-90922500D02*
X165512742Y-90922500D01*
%TO.C,NRST*%
X156800000Y-108000000D02*
X156800000Y-108100000D01*
X156800000Y-108000000D02*
X163000000Y-108000000D01*
X156800000Y-109600000D02*
X156800000Y-112600000D01*
X156800000Y-114200000D02*
X156800000Y-114100000D01*
X156800000Y-114200000D02*
X163000000Y-114200000D01*
X163000000Y-108100000D02*
X163000000Y-108000000D01*
X163000000Y-109600000D02*
X163000000Y-112600000D01*
X163000000Y-114200000D02*
X163000000Y-114100000D01*
%TO.C,C13*%
X127390580Y-93840000D02*
X127109420Y-93840000D01*
X127390580Y-94860000D02*
X127109420Y-94860000D01*
%TO.C,C11*%
X124757836Y-95761292D02*
X124542164Y-95761292D01*
X124757836Y-96481292D02*
X124542164Y-96481292D01*
%TO.C,C1*%
X145765000Y-103661252D02*
X145765000Y-103138748D01*
X147235000Y-103661252D02*
X147235000Y-103138748D01*
%TO.C,U1*%
X150450000Y-98090000D02*
X154210000Y-98090000D01*
X150450000Y-104910000D02*
X154210000Y-104910000D01*
X154210000Y-98090000D02*
X154210000Y-99350000D01*
X154210000Y-104910000D02*
X154210000Y-103650000D01*
X149170000Y-98190000D02*
X148930000Y-97860000D01*
X149410000Y-97860000D01*
X149170000Y-98190000D01*
G36*
X149170000Y-98190000D02*
G01*
X148930000Y-97860000D01*
X149410000Y-97860000D01*
X149170000Y-98190000D01*
G37*
%TO.C,C4*%
X139490000Y-92090580D02*
X139490000Y-91809420D01*
X140510000Y-92090580D02*
X140510000Y-91809420D01*
%TO.C,D1*%
X124345000Y-93490000D02*
X124345000Y-94380000D01*
X124345000Y-94380000D02*
X122495000Y-94380000D01*
X124360000Y-91260000D02*
X122510000Y-91260000D01*
X124360000Y-91260000D02*
X124360000Y-92150000D01*
X122120000Y-91250000D02*
X121880000Y-90920000D01*
X122360000Y-90920000D01*
X122120000Y-91250000D01*
G36*
X122120000Y-91250000D02*
G01*
X121880000Y-90920000D01*
X122360000Y-90920000D01*
X122120000Y-91250000D01*
G37*
%TO.C,C9*%
X132459420Y-105490000D02*
X132740580Y-105490000D01*
X132459420Y-106510000D02*
X132740580Y-106510000D01*
%TO.C,D4*%
X123050000Y-105935000D02*
X125335000Y-105935000D01*
X125335000Y-104465000D02*
X123050000Y-104465000D01*
X125335000Y-105935000D02*
X125335000Y-104465000D01*
%TO.C,R4*%
X152262742Y-96277500D02*
X152737258Y-96277500D01*
X152262742Y-97322500D02*
X152737258Y-97322500D01*
%TO.C,C3*%
X129740580Y-91890000D02*
X129459420Y-91890000D01*
X129740580Y-92910000D02*
X129459420Y-92910000D01*
%TO.C,C8*%
X139265580Y-105490000D02*
X138984420Y-105490000D01*
X139265580Y-106510000D02*
X138984420Y-106510000D01*
%TO.C,C7*%
X136190000Y-104934420D02*
X136190000Y-105215580D01*
X137210000Y-104934420D02*
X137210000Y-105215580D01*
%TO.C,C14*%
X165559420Y-105990000D02*
X165840580Y-105990000D01*
X165559420Y-107010000D02*
X165840580Y-107010000D01*
%TO.C,U2*%
X131790000Y-93240000D02*
X132240000Y-93240000D01*
X131790000Y-93690000D02*
X131790000Y-93240000D01*
X131790000Y-100460000D02*
X131790000Y-100010000D01*
X132240000Y-100460000D02*
X131790000Y-100460000D01*
X138560000Y-93240000D02*
X139010000Y-93240000D01*
X139010000Y-93240000D02*
X139010000Y-93690000D01*
X139010000Y-100010000D02*
X139010000Y-100460000D01*
X139010000Y-100460000D02*
X138560000Y-100460000D01*
X131150000Y-93690000D02*
X130810000Y-93220000D01*
X131490000Y-93220000D01*
X131150000Y-93690000D01*
G36*
X131150000Y-93690000D02*
G01*
X130810000Y-93220000D01*
X131490000Y-93220000D01*
X131150000Y-93690000D01*
G37*
%TO.C,C10*%
X134490000Y-104934420D02*
X134490000Y-105215580D01*
X135510000Y-104934420D02*
X135510000Y-105215580D01*
%TO.C,BOOT*%
X156800000Y-82300000D02*
X156800000Y-82400000D01*
X156800000Y-86900000D02*
X156800000Y-83900000D01*
X156800000Y-88400000D02*
X156800000Y-88500000D01*
X163000000Y-82300000D02*
X156800000Y-82300000D01*
X163000000Y-82300000D02*
X163000000Y-82400000D01*
X163000000Y-86900000D02*
X163000000Y-83900000D01*
X163000000Y-88500000D02*
X156800000Y-88500000D01*
X163000000Y-88500000D02*
X163000000Y-88400000D01*
%TO.C,R3*%
X161777500Y-105412742D02*
X161777500Y-105887258D01*
X162822500Y-105412742D02*
X162822500Y-105887258D01*
%TO.C,FB2*%
X131912878Y-103640000D02*
X132712122Y-103640000D01*
X131912878Y-104760000D02*
X132712122Y-104760000D01*
%TO.C,C5*%
X140159420Y-101140000D02*
X140440580Y-101140000D01*
X140159420Y-102160000D02*
X140440580Y-102160000D01*
%TO.C,D3*%
X148400000Y-97535000D02*
X150685000Y-97535000D01*
X150685000Y-96065000D02*
X148400000Y-96065000D01*
X150685000Y-97535000D02*
X150685000Y-96065000D01*
%TO.C,J2*%
X122180000Y-108620000D02*
X122180000Y-113920000D01*
X150230000Y-108620000D02*
X122180000Y-108620000D01*
X150230000Y-108620000D02*
X150230000Y-111270000D01*
X150230000Y-111270000D02*
X152880000Y-111270000D01*
X151500000Y-108620000D02*
X152880000Y-108620000D01*
X152880000Y-108620000D02*
X152880000Y-110000000D01*
X152880000Y-111270000D02*
X152880000Y-113920000D01*
X152880000Y-113920000D02*
X122180000Y-113920000D01*
%TO.C,U3*%
X156252500Y-92290000D02*
X158072500Y-92290000D01*
X156252500Y-92340000D02*
X156252500Y-92290000D01*
X156252500Y-95410000D02*
X156252500Y-95360000D01*
X158072500Y-92290000D02*
X158072500Y-92340000D01*
X158072500Y-95360000D02*
X158072500Y-95410000D01*
X158072500Y-95410000D02*
X156252500Y-95410000D01*
X155712500Y-92340000D02*
X155472500Y-92010000D01*
X155952500Y-92010000D01*
X155712500Y-92340000D01*
G36*
X155712500Y-92340000D02*
G01*
X155472500Y-92010000D01*
X155952500Y-92010000D01*
X155712500Y-92340000D01*
G37*
%TO.C,Y1*%
X123440000Y-96961292D02*
X123440000Y-99781292D01*
X125860000Y-96961292D02*
X123440000Y-96961292D01*
%TD*%
M02*
