%TF.GenerationSoftware,KiCad,Pcbnew,9.0.5*%
%TF.CreationDate,2025-11-16T12:38:37+03:30*%
%TF.ProjectId,WeAct-STM32G474,57654163-742d-4535-944d-333247343734,rev?*%
%TF.SameCoordinates,Original*%
%TF.FileFunction,Copper,L2,Bot*%
%TF.FilePolarity,Positive*%
%FSLAX46Y46*%
G04 Gerber Fmt 4.6, Leading zero omitted, Abs format (unit mm)*
G04 Created by KiCad (PCBNEW 9.0.5) date 2025-11-16 12:38:37*
%MOMM*%
%LPD*%
G01*
G04 APERTURE LIST*
%TA.AperFunction,ComponentPad*%
%ADD10R,1.700000X1.700000*%
%TD*%
%TA.AperFunction,ComponentPad*%
%ADD11C,1.700000*%
%TD*%
%TA.AperFunction,HeatsinkPad*%
%ADD12O,2.100000X1.000000*%
%TD*%
%TA.AperFunction,HeatsinkPad*%
%ADD13O,1.800000X1.000000*%
%TD*%
%TA.AperFunction,ViaPad*%
%ADD14C,0.500000*%
%TD*%
%TA.AperFunction,ViaPad*%
%ADD15C,0.600000*%
%TD*%
%TA.AperFunction,Conductor*%
%ADD16C,0.500000*%
%TD*%
%TA.AperFunction,Conductor*%
%ADD17C,0.150000*%
%TD*%
%TA.AperFunction,Conductor*%
%ADD18C,0.400000*%
%TD*%
%TA.AperFunction,Conductor*%
%ADD19C,0.200000*%
%TD*%
G04 APERTURE END LIST*
D10*
%TO.P,J1,1,Pin_1*%
%TO.N,+3V3*%
X151500000Y-84000000D03*
D11*
%TO.P,J1,2,Pin_2*%
X151500000Y-86540000D03*
%TO.P,J1,3,Pin_3*%
%TO.N,GND*%
X148960000Y-84000000D03*
%TO.P,J1,4,Pin_4*%
X148960000Y-86540000D03*
%TO.P,J1,5,Pin_5*%
%TO.N,PB12*%
X146420000Y-84000000D03*
%TO.P,J1,6,Pin_6*%
%TO.N,PB13*%
X146420000Y-86540000D03*
%TO.P,J1,7,Pin_7*%
%TO.N,PB14*%
X143880000Y-84000000D03*
%TO.P,J1,8,Pin_8*%
%TO.N,PB15*%
X143880000Y-86540000D03*
%TO.P,J1,9,Pin_9*%
%TO.N,unconnected-(J1-Pin_9-Pad9)*%
X141340000Y-84000000D03*
%TO.P,J1,10,Pin_10*%
%TO.N,PA8*%
X141340000Y-86540000D03*
%TO.P,J1,11,Pin_11*%
%TO.N,PA9*%
X138800000Y-84000000D03*
%TO.P,J1,12,Pin_12*%
%TO.N,PA10*%
X138800000Y-86540000D03*
%TO.P,J1,13,Pin_13*%
%TO.N,PA11*%
X136260000Y-84000000D03*
%TO.P,J1,14,Pin_14*%
%TO.N,PA12*%
X136260000Y-86540000D03*
%TO.P,J1,15,Pin_15*%
%TO.N,PA13*%
X133720000Y-84000000D03*
%TO.P,J1,16,Pin_16*%
%TO.N,PA14*%
X133720000Y-86540000D03*
%TO.P,J1,17,Pin_17*%
%TO.N,PA15*%
X131180000Y-84000000D03*
%TO.P,J1,18,Pin_18*%
%TO.N,PB3*%
X131180000Y-86540000D03*
%TO.P,J1,19,Pin_19*%
%TO.N,PB4*%
X128640000Y-84000000D03*
%TO.P,J1,20,Pin_20*%
%TO.N,PB5*%
X128640000Y-86540000D03*
%TO.P,J1,21,Pin_21*%
%TO.N,PB6*%
X126100000Y-84000000D03*
%TO.P,J1,22,Pin_22*%
%TO.N,PB7*%
X126100000Y-86540000D03*
%TO.P,J1,23,Pin_23*%
%TO.N,PB8_BOOT0*%
X123560000Y-84000000D03*
%TO.P,J1,24,Pin_24*%
%TO.N,PB9*%
X123560000Y-86540000D03*
%TD*%
D12*
%TO.P,J3,S1,SHIELD*%
%TO.N,GND*%
X162125000Y-101870000D03*
D13*
X166325000Y-101870000D03*
D12*
X162125000Y-93230000D03*
D13*
X166325000Y-93230000D03*
%TD*%
D10*
%TO.P,J2,1,Pin_1*%
%TO.N,+5V*%
X151500000Y-110000000D03*
D11*
%TO.P,J2,2,Pin_2*%
X151500000Y-112540000D03*
%TO.P,J2,3,Pin_3*%
%TO.N,GND*%
X148960000Y-110000000D03*
%TO.P,J2,4,Pin_4*%
X148960000Y-112540000D03*
%TO.P,J2,5,Pin_5*%
%TO.N,PB11*%
X146420000Y-110000000D03*
%TO.P,J2,6,Pin_6*%
%TO.N,PB10*%
X146420000Y-112540000D03*
%TO.P,J2,7,Pin_7*%
%TO.N,VREF*%
X143880000Y-110000000D03*
%TO.P,J2,8,Pin_8*%
%TO.N,unconnected-(J2-Pin_8-Pad8)*%
X143880000Y-112540000D03*
%TO.P,J2,9,Pin_9*%
%TO.N,PB2*%
X141340000Y-110000000D03*
%TO.P,J2,10,Pin_10*%
%TO.N,PB1*%
X141340000Y-112540000D03*
%TO.P,J2,11,Pin_11*%
%TO.N,PB0*%
X138800000Y-110000000D03*
%TO.P,J2,12,Pin_12*%
%TO.N,PA7*%
X138800000Y-112540000D03*
%TO.P,J2,13,Pin_13*%
%TO.N,PA6*%
X136260000Y-110000000D03*
%TO.P,J2,14,Pin_14*%
%TO.N,PA5*%
X136260000Y-112540000D03*
%TO.P,J2,15,Pin_15*%
%TO.N,PA3*%
X133720000Y-110000000D03*
%TO.P,J2,16,Pin_16*%
%TO.N,PA4*%
X133720000Y-112540000D03*
%TO.P,J2,17,Pin_17*%
%TO.N,PA1*%
X131180000Y-110000000D03*
%TO.P,J2,18,Pin_18*%
%TO.N,PA2*%
X131180000Y-112540000D03*
%TO.P,J2,19,Pin_19*%
%TO.N,NRST*%
X128640000Y-110000000D03*
%TO.P,J2,20,Pin_20*%
%TO.N,PA0*%
X128640000Y-112540000D03*
%TO.P,J2,21,Pin_21*%
%TO.N,PC14*%
X126100000Y-110000000D03*
%TO.P,J2,22,Pin_22*%
%TO.N,PC15*%
X126100000Y-112540000D03*
%TO.P,J2,23,Pin_23*%
%TO.N,VB*%
X123560000Y-110000000D03*
%TO.P,J2,24,Pin_24*%
%TO.N,PC13*%
X123560000Y-112540000D03*
%TD*%
D14*
%TO.N,+5V*%
X151500000Y-104400000D03*
X158050000Y-104400000D03*
%TO.N,GND*%
X151700000Y-99200000D03*
X145100000Y-102400000D03*
X134700000Y-97550000D03*
X134700000Y-96050000D03*
X135775000Y-105000000D03*
X138750000Y-91150000D03*
X135450000Y-102800000D03*
X164400000Y-110200000D03*
D15*
X128000000Y-92400000D03*
D14*
X122750000Y-100671292D03*
X155300000Y-110300000D03*
X150900000Y-99200000D03*
X152500000Y-99200000D03*
X142150000Y-101650000D03*
X154550000Y-93850000D03*
X136200000Y-97550000D03*
X136200000Y-96050000D03*
%TO.N,VREF*%
X136150003Y-102800000D03*
D15*
%TO.N,VBUS*%
X160000000Y-99950000D03*
X160000000Y-95150000D03*
D14*
%TO.N,VB*%
X123550000Y-94900000D03*
%TO.N,PA11*%
X142100000Y-95600000D03*
%TO.N,PA12*%
X141225000Y-95000000D03*
%TO.N,PB10*%
X137400000Y-102800000D03*
%TO.N,PB8_BOOT0*%
X155300000Y-86300000D03*
%TO.N,PB14*%
X142141983Y-99097410D03*
%TO.N,PB15*%
X142158133Y-98397594D03*
%TO.N,PA10*%
X142100000Y-96300003D03*
%TO.N,PB13*%
X142230987Y-99791731D03*
%TO.N,PB12*%
X142260004Y-100491132D03*
%TO.N,PA8*%
X142100000Y-97700009D03*
%TO.N,PA9*%
X142100000Y-97000006D03*
%TO.N,PC15*%
X132550000Y-96000006D03*
%TO.N,PB2*%
X134750000Y-102800000D03*
%TO.N,PC14*%
X132550000Y-95300003D03*
%TO.N,PB11*%
X141100000Y-100250000D03*
%TO.N,PA7*%
X132649994Y-102800000D03*
%TO.N,PC13*%
X132550000Y-94600000D03*
%TO.N,PA5*%
X131249988Y-102800000D03*
%TO.N,PB1*%
X134050000Y-102800000D03*
%TO.N,PA6*%
X131949991Y-102800000D03*
%TO.N,PB0*%
X133349997Y-102800000D03*
%TD*%
D16*
%TO.N,+5V*%
X151500000Y-112540000D02*
X151500000Y-110000000D01*
X158050000Y-104400000D02*
X151500000Y-104400000D01*
X151550000Y-104450000D02*
X151500000Y-104400000D01*
X151500000Y-110000000D02*
X151500000Y-104400000D01*
D17*
%TO.N,GND*%
X135775000Y-103425000D02*
X135450000Y-103100000D01*
X135775000Y-105000000D02*
X135775000Y-103425000D01*
X135450000Y-103100000D02*
X135450000Y-102800000D01*
%TO.N,VREF*%
X136150003Y-102800000D02*
X136821391Y-103471388D01*
X137528612Y-103471388D02*
X143880000Y-109822777D01*
X136821391Y-103471388D02*
X137528612Y-103471388D01*
X143880000Y-109822777D02*
X143880000Y-110000000D01*
D16*
%TO.N,VBUS*%
X160000000Y-95150000D02*
X160000000Y-99950000D01*
%TO.N,VB*%
X123560000Y-94910000D02*
X123560000Y-110000000D01*
D18*
X123550000Y-109990000D02*
X123560000Y-110000000D01*
D16*
X123550000Y-94900000D02*
X123560000Y-94910000D01*
D17*
%TO.N,PA11*%
X142100000Y-95600000D02*
X142100000Y-91720405D01*
X142100000Y-91720405D02*
X137550000Y-87170405D01*
X137550000Y-87170405D02*
X137550000Y-85290000D01*
X137550000Y-85290000D02*
X136260000Y-84000000D01*
%TO.N,PA12*%
X141225000Y-91505000D02*
X136260000Y-86540000D01*
X141225000Y-95000000D02*
X141225000Y-91505000D01*
%TO.N,PB10*%
X145150000Y-109677595D02*
X145150000Y-111270000D01*
X143253612Y-108700000D02*
X144172405Y-108700000D01*
X137400000Y-102800000D02*
X137400000Y-102846388D01*
X144172405Y-108700000D02*
X145150000Y-109677595D01*
X137400000Y-102846388D02*
X143253612Y-108700000D01*
X145150000Y-111270000D02*
X146420000Y-112540000D01*
D19*
%TO.N,PB8_BOOT0*%
X155300000Y-86300000D02*
X155300000Y-85100000D01*
X152300000Y-82100000D02*
X125460000Y-82100000D01*
X155300000Y-85100000D02*
X152300000Y-82100000D01*
X125460000Y-82100000D02*
X123560000Y-84000000D01*
D17*
%TO.N,PB14*%
X144100000Y-97199604D02*
X144100000Y-88050000D01*
X142202194Y-99097410D02*
X144100000Y-97199604D01*
X144100000Y-88050000D02*
X145100000Y-87050000D01*
X145100000Y-87050000D02*
X145100000Y-85220000D01*
X142141983Y-99097410D02*
X142202194Y-99097410D01*
X145100000Y-85220000D02*
X143880000Y-84000000D01*
%TO.N,PB15*%
X143700000Y-86720000D02*
X143880000Y-86540000D01*
X142158133Y-98397594D02*
X143700000Y-96855727D01*
X143700000Y-96855727D02*
X143700000Y-86720000D01*
%TO.N,PA10*%
X142100000Y-96300003D02*
X142143874Y-96300003D01*
X138800000Y-87850000D02*
X138800000Y-86540000D01*
X142143874Y-96300003D02*
X142626000Y-95817877D01*
X142626000Y-95817877D02*
X142626000Y-91676000D01*
X142626000Y-91676000D02*
X138800000Y-87850000D01*
%TO.N,PB13*%
X144450000Y-97572718D02*
X144450000Y-88510000D01*
X144450000Y-88510000D02*
X146420000Y-86540000D01*
X142230987Y-99791731D02*
X144450000Y-97572718D01*
%TO.N,PB12*%
X147700000Y-85280000D02*
X146420000Y-84000000D01*
X147700000Y-87100000D02*
X147700000Y-85280000D01*
X144850000Y-97916595D02*
X144850000Y-89950000D01*
X142260004Y-100491132D02*
X142275463Y-100491132D01*
X142275463Y-100491132D02*
X144850000Y-97916595D01*
X144850000Y-89950000D02*
X147700000Y-87100000D01*
%TO.N,PA8*%
X143328000Y-91178000D02*
X141340000Y-89190000D01*
X142100000Y-97700009D02*
X142143874Y-97700009D01*
X141340000Y-89190000D02*
X141340000Y-86540000D01*
X142143874Y-97700009D02*
X143328000Y-96515883D01*
X143328000Y-96515883D02*
X143328000Y-91178000D01*
%TO.N,PA9*%
X142143874Y-97000006D02*
X142977000Y-96166880D01*
X142977000Y-91377000D02*
X140000000Y-88400000D01*
X142100000Y-97000006D02*
X142143874Y-97000006D01*
X140000000Y-88400000D02*
X140000000Y-85200000D01*
X140000000Y-85200000D02*
X138800000Y-84000000D01*
X142977000Y-96166880D02*
X142977000Y-91377000D01*
%TO.N,PC15*%
X127350000Y-111290000D02*
X126100000Y-112540000D01*
X132550000Y-96000006D02*
X127350000Y-101200006D01*
X127350000Y-101200006D02*
X127350000Y-111290000D01*
%TO.N,PB2*%
X141350000Y-107800000D02*
X141340000Y-107810000D01*
X135969582Y-105969582D02*
X139530418Y-105969582D01*
X141350000Y-107789164D02*
X141350000Y-107800000D01*
X134750000Y-104750000D02*
X135969582Y-105969582D01*
X139530418Y-105969582D02*
X141350000Y-107789164D01*
X141340000Y-107810000D02*
X141340000Y-110000000D01*
X134750000Y-102800000D02*
X134750000Y-104750000D01*
%TO.N,PC14*%
X132506126Y-95300003D02*
X126100000Y-101706129D01*
X132550000Y-95300003D02*
X132506126Y-95300003D01*
X126100000Y-101706129D02*
X126100000Y-110000000D01*
%TO.N,PB11*%
X141100000Y-100250000D02*
X141100000Y-104680000D01*
X141100000Y-104680000D02*
X146420000Y-110000000D01*
%TO.N,PA7*%
X137500000Y-107950000D02*
X137500000Y-111240000D01*
X132649994Y-104199994D02*
X136400000Y-107950000D01*
X136400000Y-107950000D02*
X137500000Y-107950000D01*
X137500000Y-111240000D02*
X138800000Y-112540000D01*
X132649994Y-102800000D02*
X132649994Y-104199994D01*
%TO.N,PC13*%
X124686000Y-111414000D02*
X123560000Y-112540000D01*
X132550000Y-94600000D02*
X132506126Y-94600000D01*
X124800000Y-111350000D02*
X124736000Y-111414000D01*
X124800000Y-102306126D02*
X124800000Y-111350000D01*
X132506126Y-94600000D02*
X124800000Y-102306126D01*
X124736000Y-111414000D02*
X124686000Y-111414000D01*
%TO.N,PA5*%
X131598991Y-103192877D02*
X131598991Y-104045380D01*
X131599000Y-104145389D02*
X135000000Y-107546388D01*
X131598991Y-104045380D02*
X131599000Y-104045388D01*
X131423991Y-103017877D02*
X131598991Y-103192877D01*
X131423991Y-102800000D02*
X131423991Y-103017877D01*
X135000000Y-111280000D02*
X136260000Y-112540000D01*
X131599000Y-104045388D02*
X131599000Y-104145389D01*
X131249988Y-102800000D02*
X131423991Y-102800000D01*
X135000000Y-107546388D02*
X135000000Y-111280000D01*
%TO.N,PB1*%
X137745389Y-106449000D02*
X137746388Y-106450000D01*
X140100000Y-107250000D02*
X140100000Y-111300000D01*
X139300000Y-106450000D02*
X140100000Y-107250000D01*
X137746388Y-106450000D02*
X139300000Y-106450000D01*
X134050000Y-104600000D02*
X135899000Y-106449000D01*
X134050000Y-102800000D02*
X134050000Y-104600000D01*
X135899000Y-106449000D02*
X137745389Y-106449000D01*
X140100000Y-111300000D02*
X141340000Y-112540000D01*
%TO.N,PA6*%
X136260000Y-108301000D02*
X136260000Y-110000000D01*
X136251000Y-108301000D02*
X136260000Y-108301000D01*
X131949991Y-103899991D02*
X131950000Y-103900000D01*
X131950000Y-103900000D02*
X131950000Y-104000000D01*
X131949991Y-102800000D02*
X131949991Y-103899991D01*
X131950000Y-104000000D02*
X136251000Y-108301000D01*
%TO.N,PB0*%
X137600000Y-106800000D02*
X138800000Y-108000000D01*
X135750000Y-106800000D02*
X137600000Y-106800000D01*
X138800000Y-108000000D02*
X138800000Y-110000000D01*
X133349997Y-102800000D02*
X133349997Y-104399997D01*
X133349997Y-104399997D02*
X135750000Y-106800000D01*
%TD*%
%TA.AperFunction,Conductor*%
%TO.N,GND*%
G36*
X148494075Y-110192993D02*
G01*
X148559901Y-110307007D01*
X148652993Y-110400099D01*
X148767007Y-110465925D01*
X148830591Y-110482962D01*
X148229971Y-111083581D01*
X148308711Y-111200895D01*
X148309920Y-111204729D01*
X148312844Y-111207491D01*
X148320343Y-111237778D01*
X148329727Y-111267529D01*
X148328671Y-111271408D01*
X148329638Y-111275312D01*
X148319573Y-111304844D01*
X148311383Y-111334947D01*
X148308397Y-111337640D01*
X148307100Y-111341447D01*
X148262051Y-111380483D01*
X148252440Y-111385380D01*
X148198282Y-111424727D01*
X148198282Y-111424728D01*
X148830591Y-112057037D01*
X148767007Y-112074075D01*
X148652993Y-112139901D01*
X148559901Y-112232993D01*
X148494075Y-112347007D01*
X148477037Y-112410591D01*
X147844728Y-111778282D01*
X147844727Y-111778282D01*
X147805380Y-111832439D01*
X147708904Y-112021783D01*
X147676760Y-112120712D01*
X147637322Y-112178388D01*
X147572964Y-112205586D01*
X147504117Y-112193671D01*
X147452642Y-112146427D01*
X147440898Y-112120711D01*
X147439873Y-112117555D01*
X147361232Y-111963212D01*
X147259414Y-111823072D01*
X147136928Y-111700586D01*
X146996788Y-111598768D01*
X146842445Y-111520127D01*
X146677701Y-111466598D01*
X146677699Y-111466597D01*
X146677698Y-111466597D01*
X146546271Y-111445781D01*
X146506611Y-111439500D01*
X146333389Y-111439500D01*
X146301192Y-111444599D01*
X146162301Y-111466597D01*
X145997556Y-111520126D01*
X145986994Y-111525507D01*
X145918324Y-111538398D01*
X145853585Y-111512117D01*
X145843026Y-111502699D01*
X145511819Y-111171492D01*
X145497115Y-111144564D01*
X145480523Y-111118746D01*
X145479631Y-111112545D01*
X145478334Y-111110169D01*
X145475500Y-111083811D01*
X145475500Y-110911204D01*
X145495185Y-110844165D01*
X145547989Y-110798410D01*
X145617147Y-110788466D01*
X145680703Y-110817491D01*
X145687181Y-110823523D01*
X145703072Y-110839414D01*
X145843212Y-110941232D01*
X145997555Y-111019873D01*
X146162299Y-111073402D01*
X146333389Y-111100500D01*
X146333390Y-111100500D01*
X146506610Y-111100500D01*
X146506611Y-111100500D01*
X146677701Y-111073402D01*
X146842445Y-111019873D01*
X146996788Y-110941232D01*
X147136928Y-110839414D01*
X147259414Y-110716928D01*
X147361232Y-110576788D01*
X147439873Y-110422445D01*
X147440896Y-110419294D01*
X147441610Y-110418250D01*
X147441734Y-110417952D01*
X147441796Y-110417977D01*
X147480327Y-110361618D01*
X147544683Y-110334415D01*
X147613530Y-110346323D01*
X147665011Y-110393562D01*
X147676760Y-110419287D01*
X147708904Y-110518217D01*
X147805375Y-110707550D01*
X147844728Y-110761716D01*
X148477037Y-110129408D01*
X148494075Y-110192993D01*
G37*
%TD.AperFunction*%
%TA.AperFunction,Conductor*%
G36*
X150075270Y-110761717D02*
G01*
X150075270Y-110761716D01*
X150114622Y-110707554D01*
X150165015Y-110608654D01*
X150212990Y-110557858D01*
X150280811Y-110541063D01*
X150346946Y-110563600D01*
X150390397Y-110618315D01*
X150399500Y-110664949D01*
X150399500Y-110874678D01*
X150414032Y-110947735D01*
X150414033Y-110947739D01*
X150432405Y-110975235D01*
X150469399Y-111030601D01*
X150543584Y-111080169D01*
X150552260Y-111085966D01*
X150552264Y-111085967D01*
X150625321Y-111100499D01*
X150625324Y-111100500D01*
X150625326Y-111100500D01*
X150875500Y-111100500D01*
X150942539Y-111120185D01*
X150988294Y-111172989D01*
X150999500Y-111224500D01*
X150999500Y-111483909D01*
X150979815Y-111550948D01*
X150931801Y-111594391D01*
X150923212Y-111598767D01*
X150832617Y-111664589D01*
X150783072Y-111700586D01*
X150783070Y-111700588D01*
X150783069Y-111700588D01*
X150660588Y-111823069D01*
X150660588Y-111823070D01*
X150660586Y-111823072D01*
X150616859Y-111883256D01*
X150558768Y-111963211D01*
X150480128Y-112117550D01*
X150480126Y-112117557D01*
X150479102Y-112120712D01*
X150479099Y-112120720D01*
X150478381Y-112121769D01*
X150478266Y-112122048D01*
X150478207Y-112122023D01*
X150439657Y-112178393D01*
X150375297Y-112205587D01*
X150306451Y-112193668D01*
X150254979Y-112146420D01*
X150243239Y-112120711D01*
X150211096Y-112021784D01*
X150114624Y-111832449D01*
X150075270Y-111778282D01*
X150075269Y-111778282D01*
X149442962Y-112410590D01*
X149425925Y-112347007D01*
X149360099Y-112232993D01*
X149267007Y-112139901D01*
X149152993Y-112074075D01*
X149089409Y-112057037D01*
X149721716Y-111424728D01*
X149667550Y-111385375D01*
X149657954Y-111380486D01*
X149607157Y-111332512D01*
X149590361Y-111264692D01*
X149612897Y-111198556D01*
X149657954Y-111159514D01*
X149667554Y-111154622D01*
X149721716Y-111115270D01*
X149721717Y-111115270D01*
X149089408Y-110482962D01*
X149152993Y-110465925D01*
X149267007Y-110400099D01*
X149360099Y-110307007D01*
X149425925Y-110192993D01*
X149442962Y-110129408D01*
X150075270Y-110761717D01*
G37*
%TD.AperFunction*%
%TA.AperFunction,Conductor*%
G36*
X152170495Y-82470185D02*
G01*
X152191137Y-82486819D01*
X152392137Y-82687819D01*
X152425622Y-82749142D01*
X152420638Y-82818834D01*
X152378766Y-82874767D01*
X152313302Y-82899184D01*
X152304456Y-82899500D01*
X150625323Y-82899500D01*
X150552264Y-82914032D01*
X150552260Y-82914033D01*
X150469399Y-82969399D01*
X150414033Y-83052260D01*
X150414032Y-83052264D01*
X150399500Y-83125321D01*
X150399500Y-83335050D01*
X150379815Y-83402089D01*
X150327011Y-83447844D01*
X150257853Y-83457788D01*
X150194297Y-83428763D01*
X150165015Y-83391345D01*
X150114624Y-83292450D01*
X150075270Y-83238282D01*
X150075269Y-83238282D01*
X149442962Y-83870590D01*
X149425925Y-83807007D01*
X149360099Y-83692993D01*
X149267007Y-83599901D01*
X149152993Y-83534075D01*
X149089409Y-83517037D01*
X149721716Y-82884728D01*
X149667550Y-82845375D01*
X149478217Y-82748904D01*
X149304409Y-82692431D01*
X149246734Y-82652994D01*
X149219535Y-82588635D01*
X149231450Y-82519789D01*
X149278694Y-82468313D01*
X149342727Y-82450500D01*
X152103456Y-82450500D01*
X152170495Y-82470185D01*
G37*
%TD.AperFunction*%
%TA.AperFunction,Conductor*%
G36*
X166639013Y-78505033D02*
G01*
X166655098Y-78504574D01*
X166671848Y-78514674D01*
X166690614Y-78520185D01*
X166701149Y-78532343D01*
X166714931Y-78540654D01*
X166723562Y-78558209D01*
X166736369Y-78572989D01*
X166738658Y-78588913D01*
X166745759Y-78603355D01*
X166743529Y-78622787D01*
X166746313Y-78642147D01*
X166739629Y-78656782D01*
X166737795Y-78672769D01*
X166725413Y-78687910D01*
X166717288Y-78705703D01*
X166703258Y-78715005D01*
X166693566Y-78726858D01*
X166661894Y-78742431D01*
X166500776Y-78794781D01*
X166318386Y-78887715D01*
X166152786Y-79008028D01*
X166008028Y-79152786D01*
X165887715Y-79318386D01*
X165794781Y-79500776D01*
X165731522Y-79695465D01*
X165699500Y-79897648D01*
X165699500Y-80102351D01*
X165731522Y-80304534D01*
X165794781Y-80499223D01*
X165887715Y-80681613D01*
X166008028Y-80847213D01*
X166152786Y-80991971D01*
X166307749Y-81104556D01*
X166318390Y-81112287D01*
X166434607Y-81171503D01*
X166500776Y-81205218D01*
X166500778Y-81205218D01*
X166500781Y-81205220D01*
X166605137Y-81239127D01*
X166695465Y-81268477D01*
X166796557Y-81284488D01*
X166897648Y-81300500D01*
X166897649Y-81300500D01*
X167102351Y-81300500D01*
X167102352Y-81300500D01*
X167304534Y-81268477D01*
X167499219Y-81205220D01*
X167681610Y-81112287D01*
X167774590Y-81044732D01*
X167847213Y-80991971D01*
X167847215Y-80991968D01*
X167847219Y-80991966D01*
X167991966Y-80847219D01*
X167991968Y-80847215D01*
X167991971Y-80847213D01*
X168044732Y-80774590D01*
X168112287Y-80681610D01*
X168205220Y-80499219D01*
X168257569Y-80338106D01*
X168297007Y-80280430D01*
X168361365Y-80253232D01*
X168430212Y-80265147D01*
X168481687Y-80312391D01*
X168499500Y-80376424D01*
X168499500Y-115623575D01*
X168479815Y-115690614D01*
X168427011Y-115736369D01*
X168357853Y-115746313D01*
X168294297Y-115717288D01*
X168257569Y-115661894D01*
X168205218Y-115500776D01*
X168171503Y-115434607D01*
X168112287Y-115318390D01*
X168104556Y-115307749D01*
X167991971Y-115152786D01*
X167847213Y-115008028D01*
X167681613Y-114887715D01*
X167681612Y-114887714D01*
X167681610Y-114887713D01*
X167624653Y-114858691D01*
X167499223Y-114794781D01*
X167304534Y-114731522D01*
X167129995Y-114703878D01*
X167102352Y-114699500D01*
X166897648Y-114699500D01*
X166873329Y-114703351D01*
X166695465Y-114731522D01*
X166500776Y-114794781D01*
X166318386Y-114887715D01*
X166152786Y-115008028D01*
X166008028Y-115152786D01*
X165887715Y-115318386D01*
X165794781Y-115500776D01*
X165731522Y-115695465D01*
X165699500Y-115897648D01*
X165699500Y-116102351D01*
X165731522Y-116304534D01*
X165794781Y-116499223D01*
X165887715Y-116681613D01*
X166008028Y-116847213D01*
X166152786Y-116991971D01*
X166307749Y-117104556D01*
X166318390Y-117112287D01*
X166434607Y-117171503D01*
X166500776Y-117205218D01*
X166500778Y-117205218D01*
X166500781Y-117205220D01*
X166604881Y-117239044D01*
X166661894Y-117257569D01*
X166719569Y-117297007D01*
X166746767Y-117361366D01*
X166734852Y-117430212D01*
X166687608Y-117481688D01*
X166623575Y-117499500D01*
X121376425Y-117499500D01*
X121309386Y-117479815D01*
X121263631Y-117427011D01*
X121253687Y-117357853D01*
X121282712Y-117294297D01*
X121338106Y-117257569D01*
X121374669Y-117245688D01*
X121499219Y-117205220D01*
X121681610Y-117112287D01*
X121774590Y-117044732D01*
X121847213Y-116991971D01*
X121847215Y-116991968D01*
X121847219Y-116991966D01*
X121991966Y-116847219D01*
X121991968Y-116847215D01*
X121991971Y-116847213D01*
X122044732Y-116774590D01*
X122112287Y-116681610D01*
X122205220Y-116499219D01*
X122268477Y-116304534D01*
X122300500Y-116102352D01*
X122300500Y-115897648D01*
X122268477Y-115695465D01*
X122205218Y-115500776D01*
X122171503Y-115434607D01*
X122112287Y-115318390D01*
X122104556Y-115307749D01*
X121991971Y-115152786D01*
X121847213Y-115008028D01*
X121681613Y-114887715D01*
X121681612Y-114887714D01*
X121681610Y-114887713D01*
X121624653Y-114858691D01*
X121499223Y-114794781D01*
X121304534Y-114731522D01*
X121129995Y-114703878D01*
X121102352Y-114699500D01*
X120897648Y-114699500D01*
X120873329Y-114703351D01*
X120695465Y-114731522D01*
X120500776Y-114794781D01*
X120318386Y-114887715D01*
X120152786Y-115008028D01*
X120008028Y-115152786D01*
X119887715Y-115318386D01*
X119794781Y-115500776D01*
X119742431Y-115661894D01*
X119702993Y-115719569D01*
X119638634Y-115746767D01*
X119569788Y-115734852D01*
X119518312Y-115687608D01*
X119500500Y-115623575D01*
X119500500Y-109913389D01*
X122459500Y-109913389D01*
X122459500Y-110086611D01*
X122486598Y-110257701D01*
X122540127Y-110422445D01*
X122618768Y-110576788D01*
X122720586Y-110716928D01*
X122843072Y-110839414D01*
X122983212Y-110941232D01*
X123137555Y-111019873D01*
X123302299Y-111073402D01*
X123473389Y-111100500D01*
X123473390Y-111100500D01*
X123646610Y-111100500D01*
X123646611Y-111100500D01*
X123817701Y-111073402D01*
X123982445Y-111019873D01*
X124136788Y-110941232D01*
X124276928Y-110839414D01*
X124276930Y-110839411D01*
X124277614Y-110838915D01*
X124289473Y-110834683D01*
X124298989Y-110826438D01*
X124321754Y-110823164D01*
X124343420Y-110815434D01*
X124355684Y-110818285D01*
X124368147Y-110816494D01*
X124389070Y-110826049D01*
X124411474Y-110831259D01*
X124420249Y-110840288D01*
X124431703Y-110845519D01*
X124444138Y-110864869D01*
X124460169Y-110881364D01*
X124463573Y-110895110D01*
X124469477Y-110904297D01*
X124474500Y-110939232D01*
X124474500Y-111113810D01*
X124454815Y-111180849D01*
X124438181Y-111201491D01*
X124136972Y-111502699D01*
X124075649Y-111536184D01*
X124005957Y-111531200D01*
X123992998Y-111525504D01*
X123982440Y-111520124D01*
X123817698Y-111466597D01*
X123686271Y-111445781D01*
X123646611Y-111439500D01*
X123473389Y-111439500D01*
X123433728Y-111445781D01*
X123302302Y-111466597D01*
X123137552Y-111520128D01*
X122983211Y-111598768D01*
X122903256Y-111656859D01*
X122843072Y-111700586D01*
X122843070Y-111700588D01*
X122843069Y-111700588D01*
X122720588Y-111823069D01*
X122720588Y-111823070D01*
X122720586Y-111823072D01*
X122676859Y-111883256D01*
X122618768Y-111963211D01*
X122540128Y-112117552D01*
X122486597Y-112282302D01*
X122476349Y-112347007D01*
X122459500Y-112453389D01*
X122459500Y-112626611D01*
X122486598Y-112797701D01*
X122540127Y-112962445D01*
X122618768Y-113116788D01*
X122720586Y-113256928D01*
X122843072Y-113379414D01*
X122983212Y-113481232D01*
X123137555Y-113559873D01*
X123302299Y-113613402D01*
X123473389Y-113640500D01*
X123473390Y-113640500D01*
X123646610Y-113640500D01*
X123646611Y-113640500D01*
X123817701Y-113613402D01*
X123982445Y-113559873D01*
X124136788Y-113481232D01*
X124276928Y-113379414D01*
X124399414Y-113256928D01*
X124501232Y-113116788D01*
X124579873Y-112962445D01*
X124633402Y-112797701D01*
X124660500Y-112626611D01*
X124660500Y-112453389D01*
X124633402Y-112282299D01*
X124579873Y-112117555D01*
X124574496Y-112107003D01*
X124561599Y-112038337D01*
X124587873Y-111973595D01*
X124597290Y-111963035D01*
X124812700Y-111747625D01*
X124828899Y-111733985D01*
X124846946Y-111721254D01*
X124861639Y-111717318D01*
X124935862Y-111674465D01*
X124989941Y-111620383D01*
X124989944Y-111620382D01*
X124999861Y-111610465D01*
X124999862Y-111610465D01*
X125060465Y-111549862D01*
X125095106Y-111489862D01*
X125103317Y-111475640D01*
X125103318Y-111475637D01*
X125103458Y-111475116D01*
X125103458Y-111475115D01*
X125105740Y-111466598D01*
X125125501Y-111392853D01*
X125125501Y-111307147D01*
X125125500Y-111307143D01*
X125125500Y-110881204D01*
X125145185Y-110814165D01*
X125197989Y-110768410D01*
X125267147Y-110758466D01*
X125330703Y-110787491D01*
X125337181Y-110793523D01*
X125383072Y-110839414D01*
X125523212Y-110941232D01*
X125677555Y-111019873D01*
X125842299Y-111073402D01*
X126013389Y-111100500D01*
X126013390Y-111100500D01*
X126186610Y-111100500D01*
X126186611Y-111100500D01*
X126357701Y-111073402D01*
X126522445Y-111019873D01*
X126676788Y-110941232D01*
X126816928Y-110839414D01*
X126816936Y-110839405D01*
X126819967Y-110836818D01*
X126835843Y-110829703D01*
X126848989Y-110818313D01*
X126867062Y-110815714D01*
X126883727Y-110808247D01*
X126900927Y-110810844D01*
X126918147Y-110808369D01*
X126934757Y-110815954D01*
X126952813Y-110818682D01*
X126965878Y-110830167D01*
X126981703Y-110837394D01*
X126991575Y-110852756D01*
X127005290Y-110864812D01*
X127010189Y-110881720D01*
X127019477Y-110896172D01*
X127024500Y-110931107D01*
X127024500Y-111103810D01*
X127004815Y-111170849D01*
X126988181Y-111191491D01*
X126676972Y-111502699D01*
X126615649Y-111536184D01*
X126545957Y-111531200D01*
X126532998Y-111525504D01*
X126522440Y-111520124D01*
X126357698Y-111466597D01*
X126226271Y-111445781D01*
X126186611Y-111439500D01*
X126013389Y-111439500D01*
X125973728Y-111445781D01*
X125842302Y-111466597D01*
X125677552Y-111520128D01*
X125523211Y-111598768D01*
X125443256Y-111656859D01*
X125383072Y-111700586D01*
X125383070Y-111700588D01*
X125383069Y-111700588D01*
X125260588Y-111823069D01*
X125260588Y-111823070D01*
X125260586Y-111823072D01*
X125216859Y-111883256D01*
X125158768Y-111963211D01*
X125080128Y-112117552D01*
X125026597Y-112282302D01*
X125016349Y-112347007D01*
X124999500Y-112453389D01*
X124999500Y-112626611D01*
X125026598Y-112797701D01*
X125080127Y-112962445D01*
X125158768Y-113116788D01*
X125260586Y-113256928D01*
X125383072Y-113379414D01*
X125523212Y-113481232D01*
X125677555Y-113559873D01*
X125842299Y-113613402D01*
X126013389Y-113640500D01*
X126013390Y-113640500D01*
X126186610Y-113640500D01*
X126186611Y-113640500D01*
X126357701Y-113613402D01*
X126522445Y-113559873D01*
X126676788Y-113481232D01*
X126816928Y-113379414D01*
X126939414Y-113256928D01*
X127041232Y-113116788D01*
X127119873Y-112962445D01*
X127173402Y-112797701D01*
X127200500Y-112626611D01*
X127200500Y-112453389D01*
X127539500Y-112453389D01*
X127539500Y-112626611D01*
X127566598Y-112797701D01*
X127620127Y-112962445D01*
X127698768Y-113116788D01*
X127800586Y-113256928D01*
X127923072Y-113379414D01*
X128063212Y-113481232D01*
X128217555Y-113559873D01*
X128382299Y-113613402D01*
X128553389Y-113640500D01*
X128553390Y-113640500D01*
X128726610Y-113640500D01*
X128726611Y-113640500D01*
X128897701Y-113613402D01*
X129062445Y-113559873D01*
X129216788Y-113481232D01*
X129356928Y-113379414D01*
X129479414Y-113256928D01*
X129581232Y-113116788D01*
X129659873Y-112962445D01*
X129713402Y-112797701D01*
X129740500Y-112626611D01*
X129740500Y-112453389D01*
X130079500Y-112453389D01*
X130079500Y-112626611D01*
X130106598Y-112797701D01*
X130160127Y-112962445D01*
X130238768Y-113116788D01*
X130340586Y-113256928D01*
X130463072Y-113379414D01*
X130603212Y-113481232D01*
X130757555Y-113559873D01*
X130922299Y-113613402D01*
X131093389Y-113640500D01*
X131093390Y-113640500D01*
X131266610Y-113640500D01*
X131266611Y-113640500D01*
X131437701Y-113613402D01*
X131602445Y-113559873D01*
X131756788Y-113481232D01*
X131896928Y-113379414D01*
X132019414Y-113256928D01*
X132121232Y-113116788D01*
X132199873Y-112962445D01*
X132253402Y-112797701D01*
X132280500Y-112626611D01*
X132280500Y-112453389D01*
X132619500Y-112453389D01*
X132619500Y-112626611D01*
X132646598Y-112797701D01*
X132700127Y-112962445D01*
X132778768Y-113116788D01*
X132880586Y-113256928D01*
X133003072Y-113379414D01*
X133143212Y-113481232D01*
X133297555Y-113559873D01*
X133462299Y-113613402D01*
X133633389Y-113640500D01*
X133633390Y-113640500D01*
X133806610Y-113640500D01*
X133806611Y-113640500D01*
X133977701Y-113613402D01*
X134142445Y-113559873D01*
X134296788Y-113481232D01*
X134436928Y-113379414D01*
X134559414Y-113256928D01*
X134661232Y-113116788D01*
X134739873Y-112962445D01*
X134793402Y-112797701D01*
X134820500Y-112626611D01*
X134820500Y-112453389D01*
X134793402Y-112282299D01*
X134739873Y-112117555D01*
X134661232Y-111963212D01*
X134559414Y-111823072D01*
X134436928Y-111700586D01*
X134296788Y-111598768D01*
X134142445Y-111520127D01*
X133977701Y-111466598D01*
X133977699Y-111466597D01*
X133977698Y-111466597D01*
X133846271Y-111445781D01*
X133806611Y-111439500D01*
X133633389Y-111439500D01*
X133593728Y-111445781D01*
X133462302Y-111466597D01*
X133297552Y-111520128D01*
X133143211Y-111598768D01*
X133063256Y-111656859D01*
X133003072Y-111700586D01*
X133003070Y-111700588D01*
X133003069Y-111700588D01*
X132880588Y-111823069D01*
X132880588Y-111823070D01*
X132880586Y-111823072D01*
X132836859Y-111883256D01*
X132778768Y-111963211D01*
X132700128Y-112117552D01*
X132646597Y-112282302D01*
X132636349Y-112347007D01*
X132619500Y-112453389D01*
X132280500Y-112453389D01*
X132253402Y-112282299D01*
X132199873Y-112117555D01*
X132121232Y-111963212D01*
X132019414Y-111823072D01*
X131896928Y-111700586D01*
X131756788Y-111598768D01*
X131602445Y-111520127D01*
X131437701Y-111466598D01*
X131437699Y-111466597D01*
X131437698Y-111466597D01*
X131306271Y-111445781D01*
X131266611Y-111439500D01*
X131093389Y-111439500D01*
X131053728Y-111445781D01*
X130922302Y-111466597D01*
X130757552Y-111520128D01*
X130603211Y-111598768D01*
X130523256Y-111656859D01*
X130463072Y-111700586D01*
X130463070Y-111700588D01*
X130463069Y-111700588D01*
X130340588Y-111823069D01*
X130340588Y-111823070D01*
X130340586Y-111823072D01*
X130296859Y-111883256D01*
X130238768Y-111963211D01*
X130160128Y-112117552D01*
X130106597Y-112282302D01*
X130096349Y-112347007D01*
X130079500Y-112453389D01*
X129740500Y-112453389D01*
X129713402Y-112282299D01*
X129659873Y-112117555D01*
X129581232Y-111963212D01*
X129479414Y-111823072D01*
X129356928Y-111700586D01*
X129216788Y-111598768D01*
X129062445Y-111520127D01*
X128897701Y-111466598D01*
X128897699Y-111466597D01*
X128897698Y-111466597D01*
X128766271Y-111445781D01*
X128726611Y-111439500D01*
X128553389Y-111439500D01*
X128513728Y-111445781D01*
X128382302Y-111466597D01*
X128217552Y-111520128D01*
X128063211Y-111598768D01*
X127983256Y-111656859D01*
X127923072Y-111700586D01*
X127923070Y-111700588D01*
X127923069Y-111700588D01*
X127800588Y-111823069D01*
X127800588Y-111823070D01*
X127800586Y-111823072D01*
X127756859Y-111883256D01*
X127698768Y-111963211D01*
X127620128Y-112117552D01*
X127566597Y-112282302D01*
X127556349Y-112347007D01*
X127539500Y-112453389D01*
X127200500Y-112453389D01*
X127173402Y-112282299D01*
X127119873Y-112117555D01*
X127114496Y-112107003D01*
X127101599Y-112038337D01*
X127127873Y-111973595D01*
X127137289Y-111963036D01*
X127610465Y-111489862D01*
X127653318Y-111415639D01*
X127675500Y-111332853D01*
X127675500Y-111247147D01*
X127675500Y-110891204D01*
X127695185Y-110824165D01*
X127747989Y-110778410D01*
X127817147Y-110768466D01*
X127880703Y-110797491D01*
X127887181Y-110803523D01*
X127923072Y-110839414D01*
X128063212Y-110941232D01*
X128217555Y-111019873D01*
X128382299Y-111073402D01*
X128553389Y-111100500D01*
X128553390Y-111100500D01*
X128726610Y-111100500D01*
X128726611Y-111100500D01*
X128897701Y-111073402D01*
X129062445Y-111019873D01*
X129216788Y-110941232D01*
X129356928Y-110839414D01*
X129479414Y-110716928D01*
X129581232Y-110576788D01*
X129659873Y-110422445D01*
X129713402Y-110257701D01*
X129740500Y-110086611D01*
X129740500Y-109913389D01*
X130079500Y-109913389D01*
X130079500Y-110086611D01*
X130106598Y-110257701D01*
X130160127Y-110422445D01*
X130238768Y-110576788D01*
X130340586Y-110716928D01*
X130463072Y-110839414D01*
X130603212Y-110941232D01*
X130757555Y-111019873D01*
X130922299Y-111073402D01*
X131093389Y-111100500D01*
X131093390Y-111100500D01*
X131266610Y-111100500D01*
X131266611Y-111100500D01*
X131437701Y-111073402D01*
X131602445Y-111019873D01*
X131756788Y-110941232D01*
X131896928Y-110839414D01*
X132019414Y-110716928D01*
X132121232Y-110576788D01*
X132199873Y-110422445D01*
X132253402Y-110257701D01*
X132280500Y-110086611D01*
X132280500Y-109913389D01*
X132253402Y-109742299D01*
X132199873Y-109577555D01*
X132121232Y-109423212D01*
X132019414Y-109283072D01*
X131896928Y-109160586D01*
X131756788Y-109058768D01*
X131602445Y-108980127D01*
X131437701Y-108926598D01*
X131437699Y-108926597D01*
X131437698Y-108926597D01*
X131306271Y-108905781D01*
X131266611Y-108899500D01*
X131093389Y-108899500D01*
X131053728Y-108905781D01*
X130922302Y-108926597D01*
X130757552Y-108980128D01*
X130603211Y-109058768D01*
X130523256Y-109116859D01*
X130463072Y-109160586D01*
X130463070Y-109160588D01*
X130463069Y-109160588D01*
X130340588Y-109283069D01*
X130340588Y-109283070D01*
X130340586Y-109283072D01*
X130302822Y-109335050D01*
X130238768Y-109423211D01*
X130160128Y-109577552D01*
X130106597Y-109742302D01*
X130096349Y-109807007D01*
X130079500Y-109913389D01*
X129740500Y-109913389D01*
X129713402Y-109742299D01*
X129659873Y-109577555D01*
X129581232Y-109423212D01*
X129479414Y-109283072D01*
X129356928Y-109160586D01*
X129216788Y-109058768D01*
X129062445Y-108980127D01*
X128897701Y-108926598D01*
X128897699Y-108926597D01*
X128897698Y-108926597D01*
X128766271Y-108905781D01*
X128726611Y-108899500D01*
X128553389Y-108899500D01*
X128513728Y-108905781D01*
X128382302Y-108926597D01*
X128217552Y-108980128D01*
X128063211Y-109058768D01*
X127983256Y-109116859D01*
X127923072Y-109160586D01*
X127923070Y-109160588D01*
X127923069Y-109160588D01*
X127887181Y-109196477D01*
X127825858Y-109229962D01*
X127756166Y-109224978D01*
X127700233Y-109183106D01*
X127675816Y-109117642D01*
X127675500Y-109108796D01*
X127675500Y-101386194D01*
X127695185Y-101319155D01*
X127711819Y-101298513D01*
X132473507Y-96536825D01*
X132534830Y-96503340D01*
X132561188Y-96500506D01*
X132615890Y-96500506D01*
X132615892Y-96500506D01*
X132743186Y-96466398D01*
X132857314Y-96400506D01*
X132950500Y-96307320D01*
X133016392Y-96193192D01*
X133050500Y-96065898D01*
X133050500Y-95934114D01*
X133016392Y-95806820D01*
X133008520Y-95793186D01*
X132961650Y-95712004D01*
X132945177Y-95644104D01*
X132961648Y-95588006D01*
X133016392Y-95493189D01*
X133050500Y-95365895D01*
X133050500Y-95234111D01*
X133016392Y-95106817D01*
X132999481Y-95077527D01*
X132961650Y-95012001D01*
X132945177Y-94944101D01*
X132961648Y-94888003D01*
X133016392Y-94793186D01*
X133050500Y-94665892D01*
X133050500Y-94534108D01*
X133016392Y-94406814D01*
X132950500Y-94292686D01*
X132857314Y-94199500D01*
X132800250Y-94166554D01*
X132743187Y-94133608D01*
X132678162Y-94116185D01*
X132615892Y-94099500D01*
X132484108Y-94099500D01*
X132356812Y-94133608D01*
X132242686Y-94199500D01*
X132242683Y-94199502D01*
X132149502Y-94292683D01*
X132149500Y-94292686D01*
X132083608Y-94406812D01*
X132049500Y-94534108D01*
X132049500Y-94544937D01*
X132029815Y-94611976D01*
X132013181Y-94632618D01*
X124539537Y-102106261D01*
X124539533Y-102106267D01*
X124496681Y-102180487D01*
X124496682Y-102180488D01*
X124474500Y-102263273D01*
X124474500Y-109060767D01*
X124471211Y-109071964D01*
X124472384Y-109083574D01*
X124461548Y-109104874D01*
X124454815Y-109127806D01*
X124445996Y-109135447D01*
X124440705Y-109145849D01*
X124420072Y-109157910D01*
X124402011Y-109173561D01*
X124390459Y-109175221D01*
X124380386Y-109181111D01*
X124356510Y-109180103D01*
X124332853Y-109183505D01*
X124320458Y-109178581D01*
X124310579Y-109178165D01*
X124281578Y-109163139D01*
X124279121Y-109162163D01*
X124277040Y-109160698D01*
X124276928Y-109160586D01*
X124136788Y-109058768D01*
X124120341Y-109050388D01*
X124113121Y-109045305D01*
X124096647Y-109024588D01*
X124077406Y-109006414D01*
X124074937Y-108997287D01*
X124069634Y-108990618D01*
X124067549Y-108969973D01*
X124060500Y-108943909D01*
X124060500Y-94844108D01*
X124057687Y-94833612D01*
X124057686Y-94833607D01*
X124046855Y-94793186D01*
X124026392Y-94716814D01*
X123960500Y-94602686D01*
X123857314Y-94499500D01*
X123800250Y-94466554D01*
X123743187Y-94433608D01*
X123643188Y-94406814D01*
X123615892Y-94399500D01*
X123484108Y-94399500D01*
X123356812Y-94433608D01*
X123242686Y-94499500D01*
X123242683Y-94499502D01*
X123149502Y-94592683D01*
X123149500Y-94592686D01*
X123083608Y-94706812D01*
X123049500Y-94834108D01*
X123049500Y-94965891D01*
X123055275Y-94987444D01*
X123059500Y-95019537D01*
X123059500Y-108943909D01*
X123039815Y-109010948D01*
X122991801Y-109054391D01*
X122983212Y-109058767D01*
X122902179Y-109117642D01*
X122843072Y-109160586D01*
X122843070Y-109160588D01*
X122843069Y-109160588D01*
X122720588Y-109283069D01*
X122720588Y-109283070D01*
X122720586Y-109283072D01*
X122682822Y-109335050D01*
X122618768Y-109423211D01*
X122540128Y-109577552D01*
X122486597Y-109742302D01*
X122476349Y-109807007D01*
X122459500Y-109913389D01*
X119500500Y-109913389D01*
X119500500Y-86453389D01*
X122459500Y-86453389D01*
X122459500Y-86626611D01*
X122486598Y-86797701D01*
X122540127Y-86962445D01*
X122618768Y-87116788D01*
X122720586Y-87256928D01*
X122843072Y-87379414D01*
X122983212Y-87481232D01*
X123137555Y-87559873D01*
X123302299Y-87613402D01*
X123473389Y-87640500D01*
X123473390Y-87640500D01*
X123646610Y-87640500D01*
X123646611Y-87640500D01*
X123817701Y-87613402D01*
X123982445Y-87559873D01*
X124136788Y-87481232D01*
X124276928Y-87379414D01*
X124399414Y-87256928D01*
X124501232Y-87116788D01*
X124579873Y-86962445D01*
X124633402Y-86797701D01*
X124660500Y-86626611D01*
X124660500Y-86453389D01*
X124999500Y-86453389D01*
X124999500Y-86626611D01*
X125026598Y-86797701D01*
X125080127Y-86962445D01*
X125158768Y-87116788D01*
X125260586Y-87256928D01*
X125383072Y-87379414D01*
X125523212Y-87481232D01*
X125677555Y-87559873D01*
X125842299Y-87613402D01*
X126013389Y-87640500D01*
X126013390Y-87640500D01*
X126186610Y-87640500D01*
X126186611Y-87640500D01*
X126357701Y-87613402D01*
X126522445Y-87559873D01*
X126676788Y-87481232D01*
X126816928Y-87379414D01*
X126939414Y-87256928D01*
X127041232Y-87116788D01*
X127119873Y-86962445D01*
X127173402Y-86797701D01*
X127200500Y-86626611D01*
X127200500Y-86453389D01*
X127539500Y-86453389D01*
X127539500Y-86626611D01*
X127566598Y-86797701D01*
X127620127Y-86962445D01*
X127698768Y-87116788D01*
X127800586Y-87256928D01*
X127923072Y-87379414D01*
X128063212Y-87481232D01*
X128217555Y-87559873D01*
X128382299Y-87613402D01*
X128553389Y-87640500D01*
X128553390Y-87640500D01*
X128726610Y-87640500D01*
X128726611Y-87640500D01*
X128897701Y-87613402D01*
X129062445Y-87559873D01*
X129216788Y-87481232D01*
X129356928Y-87379414D01*
X129479414Y-87256928D01*
X129581232Y-87116788D01*
X129659873Y-86962445D01*
X129713402Y-86797701D01*
X129740500Y-86626611D01*
X129740500Y-86453389D01*
X130079500Y-86453389D01*
X130079500Y-86626611D01*
X130106598Y-86797701D01*
X130160127Y-86962445D01*
X130238768Y-87116788D01*
X130340586Y-87256928D01*
X130463072Y-87379414D01*
X130603212Y-87481232D01*
X130757555Y-87559873D01*
X130922299Y-87613402D01*
X131093389Y-87640500D01*
X131093390Y-87640500D01*
X131266610Y-87640500D01*
X131266611Y-87640500D01*
X131437701Y-87613402D01*
X131602445Y-87559873D01*
X131756788Y-87481232D01*
X131896928Y-87379414D01*
X132019414Y-87256928D01*
X132121232Y-87116788D01*
X132199873Y-86962445D01*
X132253402Y-86797701D01*
X132280500Y-86626611D01*
X132280500Y-86453389D01*
X132619500Y-86453389D01*
X132619500Y-86626611D01*
X132646598Y-86797701D01*
X132700127Y-86962445D01*
X132778768Y-87116788D01*
X132880586Y-87256928D01*
X133003072Y-87379414D01*
X133143212Y-87481232D01*
X133297555Y-87559873D01*
X133462299Y-87613402D01*
X133633389Y-87640500D01*
X133633390Y-87640500D01*
X133806610Y-87640500D01*
X133806611Y-87640500D01*
X133977701Y-87613402D01*
X134142445Y-87559873D01*
X134296788Y-87481232D01*
X134436928Y-87379414D01*
X134559414Y-87256928D01*
X134661232Y-87116788D01*
X134739873Y-86962445D01*
X134793402Y-86797701D01*
X134820500Y-86626611D01*
X134820500Y-86453389D01*
X134793402Y-86282299D01*
X134739873Y-86117555D01*
X134661232Y-85963212D01*
X134559414Y-85823072D01*
X134436928Y-85700586D01*
X134296788Y-85598768D01*
X134142445Y-85520127D01*
X133977701Y-85466598D01*
X133977699Y-85466597D01*
X133977698Y-85466597D01*
X133817685Y-85441254D01*
X133806611Y-85439500D01*
X133633389Y-85439500D01*
X133622315Y-85441254D01*
X133462302Y-85466597D01*
X133297552Y-85520128D01*
X133143211Y-85598768D01*
X133068190Y-85653275D01*
X133003072Y-85700586D01*
X133003070Y-85700588D01*
X133003069Y-85700588D01*
X132880588Y-85823069D01*
X132880588Y-85823070D01*
X132880586Y-85823072D01*
X132836859Y-85883256D01*
X132778768Y-85963211D01*
X132700128Y-86117552D01*
X132646597Y-86282302D01*
X132636349Y-86347007D01*
X132619500Y-86453389D01*
X132280500Y-86453389D01*
X132253402Y-86282299D01*
X132199873Y-86117555D01*
X132121232Y-85963212D01*
X132019414Y-85823072D01*
X131896928Y-85700586D01*
X131756788Y-85598768D01*
X131602445Y-85520127D01*
X131437701Y-85466598D01*
X131437699Y-85466597D01*
X131437698Y-85466597D01*
X131277685Y-85441254D01*
X131266611Y-85439500D01*
X131093389Y-85439500D01*
X131082315Y-85441254D01*
X130922302Y-85466597D01*
X130757552Y-85520128D01*
X130603211Y-85598768D01*
X130528190Y-85653275D01*
X130463072Y-85700586D01*
X130463070Y-85700588D01*
X130463069Y-85700588D01*
X130340588Y-85823069D01*
X130340588Y-85823070D01*
X130340586Y-85823072D01*
X130296859Y-85883256D01*
X130238768Y-85963211D01*
X130160128Y-86117552D01*
X130106597Y-86282302D01*
X130096349Y-86347007D01*
X130079500Y-86453389D01*
X129740500Y-86453389D01*
X129713402Y-86282299D01*
X129659873Y-86117555D01*
X129581232Y-85963212D01*
X129479414Y-85823072D01*
X129356928Y-85700586D01*
X129216788Y-85598768D01*
X129062445Y-85520127D01*
X128897701Y-85466598D01*
X128897699Y-85466597D01*
X128897698Y-85466597D01*
X128737685Y-85441254D01*
X128726611Y-85439500D01*
X128553389Y-85439500D01*
X128542315Y-85441254D01*
X128382302Y-85466597D01*
X128217552Y-85520128D01*
X128063211Y-85598768D01*
X127988190Y-85653275D01*
X127923072Y-85700586D01*
X127923070Y-85700588D01*
X127923069Y-85700588D01*
X127800588Y-85823069D01*
X127800588Y-85823070D01*
X127800586Y-85823072D01*
X127756859Y-85883256D01*
X127698768Y-85963211D01*
X127620128Y-86117552D01*
X127566597Y-86282302D01*
X127556349Y-86347007D01*
X127539500Y-86453389D01*
X127200500Y-86453389D01*
X127173402Y-86282299D01*
X127119873Y-86117555D01*
X127041232Y-85963212D01*
X126939414Y-85823072D01*
X126816928Y-85700586D01*
X126676788Y-85598768D01*
X126522445Y-85520127D01*
X126357701Y-85466598D01*
X126357699Y-85466597D01*
X126357698Y-85466597D01*
X126197685Y-85441254D01*
X126186611Y-85439500D01*
X126013389Y-85439500D01*
X126002315Y-85441254D01*
X125842302Y-85466597D01*
X125677552Y-85520128D01*
X125523211Y-85598768D01*
X125448190Y-85653275D01*
X125383072Y-85700586D01*
X125383070Y-85700588D01*
X125383069Y-85700588D01*
X125260588Y-85823069D01*
X125260588Y-85823070D01*
X125260586Y-85823072D01*
X125216859Y-85883256D01*
X125158768Y-85963211D01*
X125080128Y-86117552D01*
X125026597Y-86282302D01*
X125016349Y-86347007D01*
X124999500Y-86453389D01*
X124660500Y-86453389D01*
X124633402Y-86282299D01*
X124579873Y-86117555D01*
X124501232Y-85963212D01*
X124399414Y-85823072D01*
X124276928Y-85700586D01*
X124136788Y-85598768D01*
X123982445Y-85520127D01*
X123817701Y-85466598D01*
X123817699Y-85466597D01*
X123817698Y-85466597D01*
X123657685Y-85441254D01*
X123646611Y-85439500D01*
X123473389Y-85439500D01*
X123462315Y-85441254D01*
X123302302Y-85466597D01*
X123137552Y-85520128D01*
X122983211Y-85598768D01*
X122908190Y-85653275D01*
X122843072Y-85700586D01*
X122843070Y-85700588D01*
X122843069Y-85700588D01*
X122720588Y-85823069D01*
X122720588Y-85823070D01*
X122720586Y-85823072D01*
X122676859Y-85883256D01*
X122618768Y-85963211D01*
X122540128Y-86117552D01*
X122486597Y-86282302D01*
X122476349Y-86347007D01*
X122459500Y-86453389D01*
X119500500Y-86453389D01*
X119500500Y-83913389D01*
X122459500Y-83913389D01*
X122459500Y-84086611D01*
X122486598Y-84257701D01*
X122540127Y-84422445D01*
X122618768Y-84576788D01*
X122720586Y-84716928D01*
X122843072Y-84839414D01*
X122983212Y-84941232D01*
X123137555Y-85019873D01*
X123302299Y-85073402D01*
X123473389Y-85100500D01*
X123473390Y-85100500D01*
X123646610Y-85100500D01*
X123646611Y-85100500D01*
X123817701Y-85073402D01*
X123982445Y-85019873D01*
X124136788Y-84941232D01*
X124276928Y-84839414D01*
X124399414Y-84716928D01*
X124501232Y-84576788D01*
X124579873Y-84422445D01*
X124633402Y-84257701D01*
X124660500Y-84086611D01*
X124660500Y-83913389D01*
X124999500Y-83913389D01*
X124999500Y-84086611D01*
X125026598Y-84257701D01*
X125080127Y-84422445D01*
X125158768Y-84576788D01*
X125260586Y-84716928D01*
X125383072Y-84839414D01*
X125523212Y-84941232D01*
X125677555Y-85019873D01*
X125842299Y-85073402D01*
X126013389Y-85100500D01*
X126013390Y-85100500D01*
X126186610Y-85100500D01*
X126186611Y-85100500D01*
X126357701Y-85073402D01*
X126522445Y-85019873D01*
X126676788Y-84941232D01*
X126816928Y-84839414D01*
X126939414Y-84716928D01*
X127041232Y-84576788D01*
X127119873Y-84422445D01*
X127173402Y-84257701D01*
X127200500Y-84086611D01*
X127200500Y-83913389D01*
X127539500Y-83913389D01*
X127539500Y-84086611D01*
X127566598Y-84257701D01*
X127620127Y-84422445D01*
X127698768Y-84576788D01*
X127800586Y-84716928D01*
X127923072Y-84839414D01*
X128063212Y-84941232D01*
X128217555Y-85019873D01*
X128382299Y-85073402D01*
X128553389Y-85100500D01*
X128553390Y-85100500D01*
X128726610Y-85100500D01*
X128726611Y-85100500D01*
X128897701Y-85073402D01*
X129062445Y-85019873D01*
X129216788Y-84941232D01*
X129356928Y-84839414D01*
X129479414Y-84716928D01*
X129581232Y-84576788D01*
X129659873Y-84422445D01*
X129713402Y-84257701D01*
X129740500Y-84086611D01*
X129740500Y-83913389D01*
X130079500Y-83913389D01*
X130079500Y-84086611D01*
X130106598Y-84257701D01*
X130160127Y-84422445D01*
X130238768Y-84576788D01*
X130340586Y-84716928D01*
X130463072Y-84839414D01*
X130603212Y-84941232D01*
X130757555Y-85019873D01*
X130922299Y-85073402D01*
X131093389Y-85100500D01*
X131093390Y-85100500D01*
X131266610Y-85100500D01*
X131266611Y-85100500D01*
X131437701Y-85073402D01*
X131602445Y-85019873D01*
X131756788Y-84941232D01*
X131896928Y-84839414D01*
X132019414Y-84716928D01*
X132121232Y-84576788D01*
X132199873Y-84422445D01*
X132253402Y-84257701D01*
X132280500Y-84086611D01*
X132280500Y-83913389D01*
X132619500Y-83913389D01*
X132619500Y-84086611D01*
X132646598Y-84257701D01*
X132700127Y-84422445D01*
X132778768Y-84576788D01*
X132880586Y-84716928D01*
X133003072Y-84839414D01*
X133143212Y-84941232D01*
X133297555Y-85019873D01*
X133462299Y-85073402D01*
X133633389Y-85100500D01*
X133633390Y-85100500D01*
X133806610Y-85100500D01*
X133806611Y-85100500D01*
X133977701Y-85073402D01*
X134142445Y-85019873D01*
X134296788Y-84941232D01*
X134436928Y-84839414D01*
X134559414Y-84716928D01*
X134661232Y-84576788D01*
X134739873Y-84422445D01*
X134793402Y-84257701D01*
X134820500Y-84086611D01*
X134820500Y-83913389D01*
X134793402Y-83742299D01*
X134739873Y-83577555D01*
X134661232Y-83423212D01*
X134559414Y-83283072D01*
X134436928Y-83160586D01*
X134296788Y-83058768D01*
X134142445Y-82980127D01*
X133977701Y-82926598D01*
X133977699Y-82926597D01*
X133977698Y-82926597D01*
X133846271Y-82905781D01*
X133806611Y-82899500D01*
X133633389Y-82899500D01*
X133593728Y-82905781D01*
X133462302Y-82926597D01*
X133297552Y-82980128D01*
X133143211Y-83058768D01*
X133083941Y-83101831D01*
X133003072Y-83160586D01*
X133003070Y-83160588D01*
X133003069Y-83160588D01*
X132880588Y-83283069D01*
X132880588Y-83283070D01*
X132880586Y-83283072D01*
X132842822Y-83335050D01*
X132778768Y-83423211D01*
X132700128Y-83577552D01*
X132646597Y-83742302D01*
X132646597Y-83742304D01*
X132619500Y-83913389D01*
X132280500Y-83913389D01*
X132253402Y-83742299D01*
X132199873Y-83577555D01*
X132121232Y-83423212D01*
X132019414Y-83283072D01*
X131896928Y-83160586D01*
X131756788Y-83058768D01*
X131602445Y-82980127D01*
X131437701Y-82926598D01*
X131437699Y-82926597D01*
X131437698Y-82926597D01*
X131306271Y-82905781D01*
X131266611Y-82899500D01*
X131093389Y-82899500D01*
X131053728Y-82905781D01*
X130922302Y-82926597D01*
X130757552Y-82980128D01*
X130603211Y-83058768D01*
X130543941Y-83101831D01*
X130463072Y-83160586D01*
X130463070Y-83160588D01*
X130463069Y-83160588D01*
X130340588Y-83283069D01*
X130340588Y-83283070D01*
X130340586Y-83283072D01*
X130302822Y-83335050D01*
X130238768Y-83423211D01*
X130160128Y-83577552D01*
X130106597Y-83742302D01*
X130106597Y-83742304D01*
X130079500Y-83913389D01*
X129740500Y-83913389D01*
X129713402Y-83742299D01*
X129659873Y-83577555D01*
X129581232Y-83423212D01*
X129479414Y-83283072D01*
X129356928Y-83160586D01*
X129216788Y-83058768D01*
X129062445Y-82980127D01*
X128897701Y-82926598D01*
X128897699Y-82926597D01*
X128897698Y-82926597D01*
X128766271Y-82905781D01*
X128726611Y-82899500D01*
X128553389Y-82899500D01*
X128513728Y-82905781D01*
X128382302Y-82926597D01*
X128217552Y-82980128D01*
X128063211Y-83058768D01*
X128003941Y-83101831D01*
X127923072Y-83160586D01*
X127923070Y-83160588D01*
X127923069Y-83160588D01*
X127800588Y-83283069D01*
X127800588Y-83283070D01*
X127800586Y-83283072D01*
X127762822Y-83335050D01*
X127698768Y-83423211D01*
X127620128Y-83577552D01*
X127566597Y-83742302D01*
X127566597Y-83742304D01*
X127539500Y-83913389D01*
X127200500Y-83913389D01*
X127173402Y-83742299D01*
X127119873Y-83577555D01*
X127041232Y-83423212D01*
X126939414Y-83283072D01*
X126816928Y-83160586D01*
X126676788Y-83058768D01*
X126522445Y-82980127D01*
X126357701Y-82926598D01*
X126357699Y-82926597D01*
X126357698Y-82926597D01*
X126226271Y-82905781D01*
X126186611Y-82899500D01*
X126013389Y-82899500D01*
X125973728Y-82905781D01*
X125842302Y-82926597D01*
X125677552Y-82980128D01*
X125523211Y-83058768D01*
X125463941Y-83101831D01*
X125383072Y-83160586D01*
X125383070Y-83160588D01*
X125383069Y-83160588D01*
X125260588Y-83283069D01*
X125260588Y-83283070D01*
X125260586Y-83283072D01*
X125222822Y-83335050D01*
X125158768Y-83423211D01*
X125080128Y-83577552D01*
X125026597Y-83742302D01*
X125026597Y-83742304D01*
X124999500Y-83913389D01*
X124660500Y-83913389D01*
X124633402Y-83742299D01*
X124579873Y-83577555D01*
X124579869Y-83577547D01*
X124578401Y-83573029D01*
X124576406Y-83503188D01*
X124608649Y-83447031D01*
X125568863Y-82486819D01*
X125630186Y-82453334D01*
X125656544Y-82450500D01*
X148577273Y-82450500D01*
X148644312Y-82470185D01*
X148690067Y-82522989D01*
X148700011Y-82592147D01*
X148670986Y-82655703D01*
X148615591Y-82692431D01*
X148441782Y-82748904D01*
X148252439Y-82845380D01*
X148198282Y-82884727D01*
X148198282Y-82884728D01*
X148830591Y-83517037D01*
X148767007Y-83534075D01*
X148652993Y-83599901D01*
X148559901Y-83692993D01*
X148494075Y-83807007D01*
X148477037Y-83870591D01*
X147844728Y-83238282D01*
X147844727Y-83238282D01*
X147805380Y-83292439D01*
X147708904Y-83481783D01*
X147676760Y-83580712D01*
X147637322Y-83638388D01*
X147572964Y-83665586D01*
X147504117Y-83653671D01*
X147452642Y-83606427D01*
X147440898Y-83580712D01*
X147439873Y-83577555D01*
X147361232Y-83423212D01*
X147259414Y-83283072D01*
X147136928Y-83160586D01*
X146996788Y-83058768D01*
X146842445Y-82980127D01*
X146677701Y-82926598D01*
X146677699Y-82926597D01*
X146677698Y-82926597D01*
X146546271Y-82905781D01*
X146506611Y-82899500D01*
X146333389Y-82899500D01*
X146293728Y-82905781D01*
X146162302Y-82926597D01*
X145997552Y-82980128D01*
X145843211Y-83058768D01*
X145783941Y-83101831D01*
X145703072Y-83160586D01*
X145703070Y-83160588D01*
X145703069Y-83160588D01*
X145580588Y-83283069D01*
X145580588Y-83283070D01*
X145580586Y-83283072D01*
X145542822Y-83335050D01*
X145478768Y-83423211D01*
X145400128Y-83577552D01*
X145346597Y-83742302D01*
X145346597Y-83742304D01*
X145319500Y-83913389D01*
X145319500Y-84086611D01*
X145346598Y-84257701D01*
X145400127Y-84422445D01*
X145478768Y-84576788D01*
X145580586Y-84716928D01*
X145703072Y-84839414D01*
X145843212Y-84941232D01*
X145997555Y-85019873D01*
X146162299Y-85073402D01*
X146333389Y-85100500D01*
X146333390Y-85100500D01*
X146506610Y-85100500D01*
X146506611Y-85100500D01*
X146677701Y-85073402D01*
X146842445Y-85019873D01*
X146852994Y-85014497D01*
X146921662Y-85001600D01*
X146986404Y-85027874D01*
X146996973Y-85037300D01*
X147338181Y-85378508D01*
X147352884Y-85405435D01*
X147369477Y-85431254D01*
X147370368Y-85437454D01*
X147371666Y-85439831D01*
X147374500Y-85466189D01*
X147374500Y-85638796D01*
X147354815Y-85705835D01*
X147302011Y-85751590D01*
X147232853Y-85761534D01*
X147169297Y-85732509D01*
X147162819Y-85726477D01*
X147136930Y-85700588D01*
X147136928Y-85700586D01*
X146996788Y-85598768D01*
X146842445Y-85520127D01*
X146677701Y-85466598D01*
X146677699Y-85466597D01*
X146677698Y-85466597D01*
X146517685Y-85441254D01*
X146506611Y-85439500D01*
X146333389Y-85439500D01*
X146322315Y-85441254D01*
X146162302Y-85466597D01*
X145997552Y-85520128D01*
X145843211Y-85598768D01*
X145768190Y-85653275D01*
X145703072Y-85700586D01*
X145703070Y-85700588D01*
X145703069Y-85700588D01*
X145637181Y-85766477D01*
X145575858Y-85799962D01*
X145506166Y-85794978D01*
X145450233Y-85753106D01*
X145425816Y-85687642D01*
X145425500Y-85678796D01*
X145425500Y-85272855D01*
X145425501Y-85272842D01*
X145425501Y-85177149D01*
X145422073Y-85164355D01*
X145403318Y-85094362D01*
X145391217Y-85073402D01*
X145360465Y-85020138D01*
X145299862Y-84959535D01*
X145299861Y-84959534D01*
X145295531Y-84955204D01*
X145295520Y-84955194D01*
X144917299Y-84576973D01*
X144883814Y-84515650D01*
X144888798Y-84445958D01*
X144894498Y-84432993D01*
X144899873Y-84422445D01*
X144953402Y-84257701D01*
X144980500Y-84086611D01*
X144980500Y-83913389D01*
X144953402Y-83742299D01*
X144899873Y-83577555D01*
X144821232Y-83423212D01*
X144719414Y-83283072D01*
X144596928Y-83160586D01*
X144456788Y-83058768D01*
X144302445Y-82980127D01*
X144137701Y-82926598D01*
X144137699Y-82926597D01*
X144137698Y-82926597D01*
X144006271Y-82905781D01*
X143966611Y-82899500D01*
X143793389Y-82899500D01*
X143753728Y-82905781D01*
X143622302Y-82926597D01*
X143457552Y-82980128D01*
X143303211Y-83058768D01*
X143243941Y-83101831D01*
X143163072Y-83160586D01*
X143163070Y-83160588D01*
X143163069Y-83160588D01*
X143040588Y-83283069D01*
X143040588Y-83283070D01*
X143040586Y-83283072D01*
X143002822Y-83335050D01*
X142938768Y-83423211D01*
X142860128Y-83577552D01*
X142806597Y-83742302D01*
X142806597Y-83742304D01*
X142779500Y-83913389D01*
X142779500Y-84086611D01*
X142806598Y-84257701D01*
X142860127Y-84422445D01*
X142938768Y-84576788D01*
X143040586Y-84716928D01*
X143163072Y-84839414D01*
X143303212Y-84941232D01*
X143457555Y-85019873D01*
X143622299Y-85073402D01*
X143793389Y-85100500D01*
X143793390Y-85100500D01*
X143966610Y-85100500D01*
X143966611Y-85100500D01*
X144137701Y-85073402D01*
X144302445Y-85019873D01*
X144312992Y-85014498D01*
X144381659Y-85001598D01*
X144446401Y-85027871D01*
X144456973Y-85037299D01*
X144738181Y-85318507D01*
X144752884Y-85345434D01*
X144769477Y-85371253D01*
X144770368Y-85377453D01*
X144771666Y-85379830D01*
X144774500Y-85406188D01*
X144774500Y-85586236D01*
X144754815Y-85653275D01*
X144702011Y-85699030D01*
X144632853Y-85708974D01*
X144577615Y-85686554D01*
X144456788Y-85598768D01*
X144302445Y-85520127D01*
X144137701Y-85466598D01*
X144137699Y-85466597D01*
X144137698Y-85466597D01*
X143977685Y-85441254D01*
X143966611Y-85439500D01*
X143793389Y-85439500D01*
X143782315Y-85441254D01*
X143622302Y-85466597D01*
X143457552Y-85520128D01*
X143303211Y-85598768D01*
X143228190Y-85653275D01*
X143163072Y-85700586D01*
X143163070Y-85700588D01*
X143163069Y-85700588D01*
X143040588Y-85823069D01*
X143040588Y-85823070D01*
X143040586Y-85823072D01*
X142996859Y-85883256D01*
X142938768Y-85963211D01*
X142860128Y-86117552D01*
X142806597Y-86282302D01*
X142796349Y-86347007D01*
X142779500Y-86453389D01*
X142779500Y-86626611D01*
X142806598Y-86797701D01*
X142860127Y-86962445D01*
X142938768Y-87116788D01*
X143040586Y-87256928D01*
X143163072Y-87379414D01*
X143303212Y-87481232D01*
X143303214Y-87481233D01*
X143306784Y-87483052D01*
X143357585Y-87531021D01*
X143374500Y-87593542D01*
X143374500Y-90464811D01*
X143354815Y-90531850D01*
X143302011Y-90577605D01*
X143232853Y-90587549D01*
X143169297Y-90558524D01*
X143162819Y-90552492D01*
X141701819Y-89091492D01*
X141668334Y-89030169D01*
X141665500Y-89003811D01*
X141665500Y-87681463D01*
X141685185Y-87614424D01*
X141737989Y-87568669D01*
X141751178Y-87563533D01*
X141762445Y-87559873D01*
X141916788Y-87481232D01*
X142056928Y-87379414D01*
X142179414Y-87256928D01*
X142281232Y-87116788D01*
X142359873Y-86962445D01*
X142413402Y-86797701D01*
X142440500Y-86626611D01*
X142440500Y-86453389D01*
X142413402Y-86282299D01*
X142359873Y-86117555D01*
X142281232Y-85963212D01*
X142179414Y-85823072D01*
X142056928Y-85700586D01*
X141916788Y-85598768D01*
X141762445Y-85520127D01*
X141597701Y-85466598D01*
X141597699Y-85466597D01*
X141597698Y-85466597D01*
X141437685Y-85441254D01*
X141426611Y-85439500D01*
X141253389Y-85439500D01*
X141242315Y-85441254D01*
X141082302Y-85466597D01*
X140917552Y-85520128D01*
X140763211Y-85598768D01*
X140688190Y-85653275D01*
X140623072Y-85700586D01*
X140623070Y-85700588D01*
X140623069Y-85700588D01*
X140537181Y-85786477D01*
X140475858Y-85819962D01*
X140406166Y-85814978D01*
X140350233Y-85773106D01*
X140325816Y-85707642D01*
X140325500Y-85698796D01*
X140325500Y-85157146D01*
X140325171Y-85155920D01*
X140324754Y-85154362D01*
X140303318Y-85074361D01*
X140260465Y-85000138D01*
X139837300Y-84576973D01*
X139803815Y-84515650D01*
X139808799Y-84445958D01*
X139814494Y-84433000D01*
X139819873Y-84422445D01*
X139873402Y-84257701D01*
X139900500Y-84086611D01*
X139900500Y-83913389D01*
X140239500Y-83913389D01*
X140239500Y-84086611D01*
X140266598Y-84257701D01*
X140320127Y-84422445D01*
X140398768Y-84576788D01*
X140500586Y-84716928D01*
X140623072Y-84839414D01*
X140763212Y-84941232D01*
X140917555Y-85019873D01*
X141082299Y-85073402D01*
X141253389Y-85100500D01*
X141253390Y-85100500D01*
X141426610Y-85100500D01*
X141426611Y-85100500D01*
X141597701Y-85073402D01*
X141762445Y-85019873D01*
X141916788Y-84941232D01*
X142056928Y-84839414D01*
X142179414Y-84716928D01*
X142281232Y-84576788D01*
X142359873Y-84422445D01*
X142413402Y-84257701D01*
X142440500Y-84086611D01*
X142440500Y-83913389D01*
X142413402Y-83742299D01*
X142359873Y-83577555D01*
X142281232Y-83423212D01*
X142179414Y-83283072D01*
X142056928Y-83160586D01*
X141916788Y-83058768D01*
X141762445Y-82980127D01*
X141597701Y-82926598D01*
X141597699Y-82926597D01*
X141597698Y-82926597D01*
X141466271Y-82905781D01*
X141426611Y-82899500D01*
X141253389Y-82899500D01*
X141213728Y-82905781D01*
X141082302Y-82926597D01*
X140917552Y-82980128D01*
X140763211Y-83058768D01*
X140703941Y-83101831D01*
X140623072Y-83160586D01*
X140623070Y-83160588D01*
X140623069Y-83160588D01*
X140500588Y-83283069D01*
X140500588Y-83283070D01*
X140500586Y-83283072D01*
X140462822Y-83335050D01*
X140398768Y-83423211D01*
X140320128Y-83577552D01*
X140266597Y-83742302D01*
X140266597Y-83742304D01*
X140239500Y-83913389D01*
X139900500Y-83913389D01*
X139873402Y-83742299D01*
X139819873Y-83577555D01*
X139741232Y-83423212D01*
X139639414Y-83283072D01*
X139516928Y-83160586D01*
X139376788Y-83058768D01*
X139222445Y-82980127D01*
X139057701Y-82926598D01*
X139057699Y-82926597D01*
X139057698Y-82926597D01*
X138926271Y-82905781D01*
X138886611Y-82899500D01*
X138713389Y-82899500D01*
X138673728Y-82905781D01*
X138542302Y-82926597D01*
X138377552Y-82980128D01*
X138223211Y-83058768D01*
X138163941Y-83101831D01*
X138083072Y-83160586D01*
X138083070Y-83160588D01*
X138083069Y-83160588D01*
X137960588Y-83283069D01*
X137960588Y-83283070D01*
X137960586Y-83283072D01*
X137922822Y-83335050D01*
X137858768Y-83423211D01*
X137780128Y-83577552D01*
X137726597Y-83742302D01*
X137726597Y-83742304D01*
X137699500Y-83913389D01*
X137699500Y-84086611D01*
X137726598Y-84257701D01*
X137780127Y-84422445D01*
X137858768Y-84576788D01*
X137960586Y-84716928D01*
X138083072Y-84839414D01*
X138223212Y-84941232D01*
X138377555Y-85019873D01*
X138542299Y-85073402D01*
X138713389Y-85100500D01*
X138713390Y-85100500D01*
X138886610Y-85100500D01*
X138886611Y-85100500D01*
X139057701Y-85073402D01*
X139222445Y-85019873D01*
X139232994Y-85014497D01*
X139301662Y-85001600D01*
X139366404Y-85027874D01*
X139376973Y-85037300D01*
X139638181Y-85298508D01*
X139652884Y-85325435D01*
X139669477Y-85351254D01*
X139670368Y-85357454D01*
X139671666Y-85359831D01*
X139674500Y-85386189D01*
X139674500Y-85571705D01*
X139654815Y-85638744D01*
X139602011Y-85684499D01*
X139532853Y-85694443D01*
X139477615Y-85672023D01*
X139376788Y-85598768D01*
X139222445Y-85520127D01*
X139057701Y-85466598D01*
X139057699Y-85466597D01*
X139057698Y-85466597D01*
X138897685Y-85441254D01*
X138886611Y-85439500D01*
X138713389Y-85439500D01*
X138702315Y-85441254D01*
X138542302Y-85466597D01*
X138377552Y-85520128D01*
X138223211Y-85598768D01*
X138083066Y-85700590D01*
X138080025Y-85703188D01*
X138016262Y-85731754D01*
X137947177Y-85721312D01*
X137894704Y-85675178D01*
X137875500Y-85608892D01*
X137875500Y-85247149D01*
X137875500Y-85247147D01*
X137853318Y-85164362D01*
X137850519Y-85159514D01*
X137810469Y-85090144D01*
X137810463Y-85090136D01*
X137297300Y-84576973D01*
X137263815Y-84515650D01*
X137268799Y-84445958D01*
X137274494Y-84433000D01*
X137279873Y-84422445D01*
X137333402Y-84257701D01*
X137360500Y-84086611D01*
X137360500Y-83913389D01*
X137333402Y-83742299D01*
X137279873Y-83577555D01*
X137201232Y-83423212D01*
X137099414Y-83283072D01*
X136976928Y-83160586D01*
X136836788Y-83058768D01*
X136682445Y-82980127D01*
X136517701Y-82926598D01*
X136517699Y-82926597D01*
X136517698Y-82926597D01*
X136386271Y-82905781D01*
X136346611Y-82899500D01*
X136173389Y-82899500D01*
X136133728Y-82905781D01*
X136002302Y-82926597D01*
X135837552Y-82980128D01*
X135683211Y-83058768D01*
X135623941Y-83101831D01*
X135543072Y-83160586D01*
X135543070Y-83160588D01*
X135543069Y-83160588D01*
X135420588Y-83283069D01*
X135420588Y-83283070D01*
X135420586Y-83283072D01*
X135382822Y-83335050D01*
X135318768Y-83423211D01*
X135240128Y-83577552D01*
X135186597Y-83742302D01*
X135186597Y-83742304D01*
X135159500Y-83913389D01*
X135159500Y-84086611D01*
X135186598Y-84257701D01*
X135240127Y-84422445D01*
X135318768Y-84576788D01*
X135420586Y-84716928D01*
X135543072Y-84839414D01*
X135683212Y-84941232D01*
X135837555Y-85019873D01*
X136002299Y-85073402D01*
X136173389Y-85100500D01*
X136173390Y-85100500D01*
X136346610Y-85100500D01*
X136346611Y-85100500D01*
X136517701Y-85073402D01*
X136682445Y-85019873D01*
X136692994Y-85014497D01*
X136761662Y-85001600D01*
X136826404Y-85027874D01*
X136836973Y-85037300D01*
X137188181Y-85388508D01*
X137202884Y-85415435D01*
X137219477Y-85441254D01*
X137220368Y-85447454D01*
X137221666Y-85449831D01*
X137224500Y-85476189D01*
X137224500Y-85648796D01*
X137204815Y-85715835D01*
X137152011Y-85761590D01*
X137082853Y-85771534D01*
X137019297Y-85742509D01*
X137012819Y-85736477D01*
X136976930Y-85700588D01*
X136976928Y-85700586D01*
X136836788Y-85598768D01*
X136682445Y-85520127D01*
X136517701Y-85466598D01*
X136517699Y-85466597D01*
X136517698Y-85466597D01*
X136357685Y-85441254D01*
X136346611Y-85439500D01*
X136173389Y-85439500D01*
X136162315Y-85441254D01*
X136002302Y-85466597D01*
X135837552Y-85520128D01*
X135683211Y-85598768D01*
X135608190Y-85653275D01*
X135543072Y-85700586D01*
X135543070Y-85700588D01*
X135543069Y-85700588D01*
X135420588Y-85823069D01*
X135420588Y-85823070D01*
X135420586Y-85823072D01*
X135376859Y-85883256D01*
X135318768Y-85963211D01*
X135240128Y-86117552D01*
X135186597Y-86282302D01*
X135176349Y-86347007D01*
X135159500Y-86453389D01*
X135159500Y-86626611D01*
X135186598Y-86797701D01*
X135240127Y-86962445D01*
X135318768Y-87116788D01*
X135420586Y-87256928D01*
X135543072Y-87379414D01*
X135683212Y-87481232D01*
X135837555Y-87559873D01*
X136002299Y-87613402D01*
X136173389Y-87640500D01*
X136173390Y-87640500D01*
X136346610Y-87640500D01*
X136346611Y-87640500D01*
X136517701Y-87613402D01*
X136682445Y-87559873D01*
X136692994Y-87554497D01*
X136761662Y-87541600D01*
X136826404Y-87567874D01*
X136836973Y-87577300D01*
X140863181Y-91603508D01*
X140896666Y-91664831D01*
X140899500Y-91691189D01*
X140899500Y-94566324D01*
X140879815Y-94633363D01*
X140863181Y-94654005D01*
X140824502Y-94692683D01*
X140824500Y-94692686D01*
X140758608Y-94806812D01*
X140724500Y-94934108D01*
X140724500Y-95065891D01*
X140758608Y-95193187D01*
X140772753Y-95217686D01*
X140824500Y-95307314D01*
X140917686Y-95400500D01*
X141007969Y-95452625D01*
X141031810Y-95466390D01*
X141031814Y-95466392D01*
X141159108Y-95500500D01*
X141159110Y-95500500D01*
X141290890Y-95500500D01*
X141290892Y-95500500D01*
X141418186Y-95466392D01*
X141418193Y-95466387D01*
X141425700Y-95463280D01*
X141426775Y-95465877D01*
X141481397Y-95452625D01*
X141547425Y-95475476D01*
X141590617Y-95530396D01*
X141599500Y-95576485D01*
X141599500Y-95665891D01*
X141633609Y-95793188D01*
X141633609Y-95793189D01*
X141688349Y-95888001D01*
X141704822Y-95955901D01*
X141688349Y-96012001D01*
X141633609Y-96106813D01*
X141633609Y-96106814D01*
X141633608Y-96106816D01*
X141633608Y-96106817D01*
X141599500Y-96234111D01*
X141599500Y-96365895D01*
X141626429Y-96466398D01*
X141633609Y-96493191D01*
X141633609Y-96493192D01*
X141688349Y-96588004D01*
X141704822Y-96655904D01*
X141688349Y-96712004D01*
X141633609Y-96806816D01*
X141633609Y-96806817D01*
X141599500Y-96934114D01*
X141599500Y-97065897D01*
X141633609Y-97193194D01*
X141633609Y-97193195D01*
X141688349Y-97288007D01*
X141704822Y-97355907D01*
X141688349Y-97412007D01*
X141633609Y-97506819D01*
X141633609Y-97506820D01*
X141599500Y-97634117D01*
X141599500Y-97765900D01*
X141633608Y-97893196D01*
X141666554Y-97950259D01*
X141699500Y-98007323D01*
X141699503Y-98007326D01*
X141704447Y-98013769D01*
X141703421Y-98014556D01*
X141732923Y-98068584D01*
X141727939Y-98138276D01*
X141719145Y-98156941D01*
X141691741Y-98204405D01*
X141657633Y-98331702D01*
X141657633Y-98463485D01*
X141691742Y-98590782D01*
X141691742Y-98590783D01*
X141738353Y-98671515D01*
X141754826Y-98739415D01*
X141738353Y-98795515D01*
X141675592Y-98904220D01*
X141675592Y-98904221D01*
X141641483Y-99031518D01*
X141641483Y-99163301D01*
X141675591Y-99290597D01*
X141708537Y-99347660D01*
X141741483Y-99404724D01*
X141741485Y-99404726D01*
X141759798Y-99423039D01*
X141793283Y-99484362D01*
X141788299Y-99554054D01*
X141779506Y-99572717D01*
X141764596Y-99598542D01*
X141764595Y-99598545D01*
X141730487Y-99725839D01*
X141730487Y-99857621D01*
X141731548Y-99865679D01*
X141728045Y-99866140D01*
X141726729Y-99919839D01*
X141687525Y-99977673D01*
X141623276Y-100005131D01*
X141554382Y-99993494D01*
X141505560Y-99949048D01*
X141505448Y-99949135D01*
X141504967Y-99948508D01*
X141502716Y-99946459D01*
X141501258Y-99943998D01*
X141500503Y-99942692D01*
X141500500Y-99942686D01*
X141407314Y-99849500D01*
X141350250Y-99816554D01*
X141293187Y-99783608D01*
X141229539Y-99766554D01*
X141165892Y-99749500D01*
X141034108Y-99749500D01*
X140906812Y-99783608D01*
X140792686Y-99849500D01*
X140792683Y-99849502D01*
X140699502Y-99942683D01*
X140699500Y-99942686D01*
X140633608Y-100056812D01*
X140599500Y-100184108D01*
X140599500Y-100315891D01*
X140633608Y-100443187D01*
X140666554Y-100500250D01*
X140699500Y-100557314D01*
X140699502Y-100557316D01*
X140738181Y-100595995D01*
X140771666Y-100657318D01*
X140774500Y-100683676D01*
X140774500Y-104722852D01*
X140796682Y-104805640D01*
X140818108Y-104842750D01*
X140839535Y-104879862D01*
X140839537Y-104879864D01*
X144122492Y-108162819D01*
X144155977Y-108224142D01*
X144150993Y-108293834D01*
X144109121Y-108349767D01*
X144043657Y-108374184D01*
X144034811Y-108374500D01*
X143439801Y-108374500D01*
X143372762Y-108354815D01*
X143352120Y-108338181D01*
X137936819Y-102922880D01*
X137903334Y-102861557D01*
X137900500Y-102835199D01*
X137900500Y-102734110D01*
X137900500Y-102734108D01*
X137866392Y-102606814D01*
X137800500Y-102492686D01*
X137707314Y-102399500D01*
X137650250Y-102366554D01*
X137593187Y-102333608D01*
X137529539Y-102316554D01*
X137465892Y-102299500D01*
X137334108Y-102299500D01*
X137206812Y-102333608D01*
X137092686Y-102399500D01*
X137092683Y-102399502D01*
X136999502Y-102492683D01*
X136999500Y-102492686D01*
X136933608Y-102606812D01*
X136899500Y-102734108D01*
X136899500Y-102789808D01*
X136893261Y-102811053D01*
X136891682Y-102833142D01*
X136883609Y-102843925D01*
X136879815Y-102856847D01*
X136863081Y-102871346D01*
X136849810Y-102889075D01*
X136837189Y-102893782D01*
X136827011Y-102902602D01*
X136805093Y-102905753D01*
X136784346Y-102913492D01*
X136771185Y-102910629D01*
X136757853Y-102912546D01*
X136737709Y-102903346D01*
X136716073Y-102898640D01*
X136698347Y-102885371D01*
X136694297Y-102883521D01*
X136687819Y-102877489D01*
X136686822Y-102876492D01*
X136653337Y-102815169D01*
X136650503Y-102788811D01*
X136650503Y-102734110D01*
X136650503Y-102734108D01*
X136616395Y-102606814D01*
X136550503Y-102492686D01*
X136457317Y-102399500D01*
X136400253Y-102366554D01*
X136343190Y-102333608D01*
X136279542Y-102316554D01*
X136215895Y-102299500D01*
X136084111Y-102299500D01*
X135956815Y-102333608D01*
X135842689Y-102399500D01*
X135842686Y-102399502D01*
X135749505Y-102492683D01*
X135749503Y-102492686D01*
X135683611Y-102606812D01*
X135672910Y-102646751D01*
X135649503Y-102734108D01*
X135649503Y-102865892D01*
X135655715Y-102889075D01*
X135683611Y-102993187D01*
X135716557Y-103050250D01*
X135749503Y-103107314D01*
X135842689Y-103200500D01*
X135956817Y-103266392D01*
X136084111Y-103300500D01*
X136138814Y-103300500D01*
X136205853Y-103320185D01*
X136226495Y-103336819D01*
X136621529Y-103731853D01*
X136695752Y-103774706D01*
X136778538Y-103796888D01*
X137342423Y-103796888D01*
X137409462Y-103816573D01*
X137430104Y-103833207D01*
X139029298Y-105432401D01*
X139062783Y-105493724D01*
X139057799Y-105563416D01*
X139015927Y-105619349D01*
X138950463Y-105643766D01*
X138941617Y-105644082D01*
X136155771Y-105644082D01*
X136088732Y-105624397D01*
X136068090Y-105607763D01*
X135111819Y-104651492D01*
X135078334Y-104590169D01*
X135075500Y-104563811D01*
X135075500Y-103233676D01*
X135095185Y-103166637D01*
X135111819Y-103145995D01*
X135111926Y-103145888D01*
X135150500Y-103107314D01*
X135216392Y-102993186D01*
X135250500Y-102865892D01*
X135250500Y-102734108D01*
X135216392Y-102606814D01*
X135150500Y-102492686D01*
X135057314Y-102399500D01*
X135000250Y-102366554D01*
X134943187Y-102333608D01*
X134879539Y-102316554D01*
X134815892Y-102299500D01*
X134684108Y-102299500D01*
X134556814Y-102333608D01*
X134556813Y-102333608D01*
X134556811Y-102333609D01*
X134556810Y-102333609D01*
X134462000Y-102388348D01*
X134394100Y-102404821D01*
X134338000Y-102388348D01*
X134243189Y-102333609D01*
X134243186Y-102333608D01*
X134115892Y-102299500D01*
X133984108Y-102299500D01*
X133856814Y-102333608D01*
X133856813Y-102333608D01*
X133856811Y-102333609D01*
X133856810Y-102333609D01*
X133761998Y-102388349D01*
X133694097Y-102404822D01*
X133637998Y-102388349D01*
X133543186Y-102333609D01*
X133543183Y-102333608D01*
X133415889Y-102299500D01*
X133284105Y-102299500D01*
X133156811Y-102333608D01*
X133156810Y-102333608D01*
X133156808Y-102333609D01*
X133156807Y-102333609D01*
X133061995Y-102388349D01*
X132994094Y-102404822D01*
X132937995Y-102388349D01*
X132843183Y-102333609D01*
X132843180Y-102333608D01*
X132715886Y-102299500D01*
X132584102Y-102299500D01*
X132456808Y-102333608D01*
X132456807Y-102333608D01*
X132456805Y-102333609D01*
X132456804Y-102333609D01*
X132361992Y-102388349D01*
X132294091Y-102404822D01*
X132237992Y-102388349D01*
X132143180Y-102333609D01*
X132143177Y-102333608D01*
X132015883Y-102299500D01*
X131884099Y-102299500D01*
X131756805Y-102333608D01*
X131756804Y-102333608D01*
X131756802Y-102333609D01*
X131756801Y-102333609D01*
X131661989Y-102388349D01*
X131594088Y-102404822D01*
X131537989Y-102388349D01*
X131443177Y-102333609D01*
X131443174Y-102333608D01*
X131315880Y-102299500D01*
X131184096Y-102299500D01*
X131056800Y-102333608D01*
X130942674Y-102399500D01*
X130942671Y-102399502D01*
X130849490Y-102492683D01*
X130849488Y-102492686D01*
X130783596Y-102606812D01*
X130772895Y-102646751D01*
X130749488Y-102734108D01*
X130749488Y-102865892D01*
X130755700Y-102889075D01*
X130783596Y-102993187D01*
X130816542Y-103050250D01*
X130849488Y-103107314D01*
X130942674Y-103200500D01*
X131056802Y-103266392D01*
X131181586Y-103299827D01*
X131241244Y-103336191D01*
X131271774Y-103399037D01*
X131273491Y-103419601D01*
X131273491Y-104012219D01*
X131271536Y-104021715D01*
X131273491Y-104054948D01*
X131273491Y-104096431D01*
X131273500Y-104096566D01*
X131273500Y-104188241D01*
X131295682Y-104271029D01*
X131317108Y-104308139D01*
X131338535Y-104345251D01*
X131338536Y-104345252D01*
X131338537Y-104345253D01*
X134638181Y-107644895D01*
X134671666Y-107706218D01*
X134674500Y-107732576D01*
X134674500Y-109098796D01*
X134654815Y-109165835D01*
X134602011Y-109211590D01*
X134532853Y-109221534D01*
X134469297Y-109192509D01*
X134462819Y-109186477D01*
X134436930Y-109160588D01*
X134436928Y-109160586D01*
X134296788Y-109058768D01*
X134142445Y-108980127D01*
X133977701Y-108926598D01*
X133977699Y-108926597D01*
X133977698Y-108926597D01*
X133846271Y-108905781D01*
X133806611Y-108899500D01*
X133633389Y-108899500D01*
X133593728Y-108905781D01*
X133462302Y-108926597D01*
X133297552Y-108980128D01*
X133143211Y-109058768D01*
X133063256Y-109116859D01*
X133003072Y-109160586D01*
X133003070Y-109160588D01*
X133003069Y-109160588D01*
X132880588Y-109283069D01*
X132880588Y-109283070D01*
X132880586Y-109283072D01*
X132842822Y-109335050D01*
X132778768Y-109423211D01*
X132700128Y-109577552D01*
X132646597Y-109742302D01*
X132636349Y-109807007D01*
X132619500Y-109913389D01*
X132619500Y-110086611D01*
X132646598Y-110257701D01*
X132700127Y-110422445D01*
X132778768Y-110576788D01*
X132880586Y-110716928D01*
X133003072Y-110839414D01*
X133143212Y-110941232D01*
X133297555Y-111019873D01*
X133462299Y-111073402D01*
X133633389Y-111100500D01*
X133633390Y-111100500D01*
X133806610Y-111100500D01*
X133806611Y-111100500D01*
X133977701Y-111073402D01*
X134142445Y-111019873D01*
X134296788Y-110941232D01*
X134436928Y-110839414D01*
X134462819Y-110813523D01*
X134524142Y-110780038D01*
X134593834Y-110785022D01*
X134649767Y-110826894D01*
X134674184Y-110892358D01*
X134674500Y-110901204D01*
X134674500Y-111237147D01*
X134674500Y-111322853D01*
X134677741Y-111334947D01*
X134696682Y-111405640D01*
X134716232Y-111439500D01*
X134739535Y-111479862D01*
X134739537Y-111479864D01*
X135222699Y-111963026D01*
X135256184Y-112024349D01*
X135251200Y-112094041D01*
X135245507Y-112106994D01*
X135240126Y-112117556D01*
X135186597Y-112282301D01*
X135176349Y-112347007D01*
X135159500Y-112453389D01*
X135159500Y-112626611D01*
X135186598Y-112797701D01*
X135240127Y-112962445D01*
X135318768Y-113116788D01*
X135420586Y-113256928D01*
X135543072Y-113379414D01*
X135683212Y-113481232D01*
X135837555Y-113559873D01*
X136002299Y-113613402D01*
X136173389Y-113640500D01*
X136173390Y-113640500D01*
X136346610Y-113640500D01*
X136346611Y-113640500D01*
X136517701Y-113613402D01*
X136682445Y-113559873D01*
X136836788Y-113481232D01*
X136976928Y-113379414D01*
X137099414Y-113256928D01*
X137201232Y-113116788D01*
X137279873Y-112962445D01*
X137333402Y-112797701D01*
X137360500Y-112626611D01*
X137360500Y-112453389D01*
X137333402Y-112282299D01*
X137279873Y-112117555D01*
X137201232Y-111963212D01*
X137099414Y-111823072D01*
X136976928Y-111700586D01*
X136836788Y-111598768D01*
X136682445Y-111520127D01*
X136517701Y-111466598D01*
X136517699Y-111466597D01*
X136517698Y-111466597D01*
X136386271Y-111445781D01*
X136346611Y-111439500D01*
X136173389Y-111439500D01*
X136141192Y-111444599D01*
X136002301Y-111466597D01*
X135837556Y-111520126D01*
X135826994Y-111525507D01*
X135758324Y-111538398D01*
X135693585Y-111512117D01*
X135683026Y-111502699D01*
X135361819Y-111181492D01*
X135347115Y-111154564D01*
X135330523Y-111128746D01*
X135329631Y-111122545D01*
X135328334Y-111120169D01*
X135325500Y-111093811D01*
X135325500Y-110921204D01*
X135345185Y-110854165D01*
X135397989Y-110808410D01*
X135467147Y-110798466D01*
X135530703Y-110827491D01*
X135537181Y-110833523D01*
X135543072Y-110839414D01*
X135683212Y-110941232D01*
X135837555Y-111019873D01*
X136002299Y-111073402D01*
X136173389Y-111100500D01*
X136173390Y-111100500D01*
X136346610Y-111100500D01*
X136346611Y-111100500D01*
X136517701Y-111073402D01*
X136682445Y-111019873D01*
X136836788Y-110941232D01*
X136976928Y-110839414D01*
X136976930Y-110839411D01*
X136977614Y-110838915D01*
X137043420Y-110815434D01*
X137111474Y-110831259D01*
X137160169Y-110881364D01*
X137174500Y-110939232D01*
X137174500Y-111197147D01*
X137174500Y-111282853D01*
X137182538Y-111312852D01*
X137196682Y-111365640D01*
X137212394Y-111392853D01*
X137239535Y-111439862D01*
X137239537Y-111439864D01*
X137762699Y-111963026D01*
X137796184Y-112024349D01*
X137791200Y-112094041D01*
X137785507Y-112106994D01*
X137780126Y-112117556D01*
X137726597Y-112282301D01*
X137716349Y-112347007D01*
X137699500Y-112453389D01*
X137699500Y-112626611D01*
X137726598Y-112797701D01*
X137780127Y-112962445D01*
X137858768Y-113116788D01*
X137960586Y-113256928D01*
X138083072Y-113379414D01*
X138223212Y-113481232D01*
X138377555Y-113559873D01*
X138542299Y-113613402D01*
X138713389Y-113640500D01*
X138713390Y-113640500D01*
X138886610Y-113640500D01*
X138886611Y-113640500D01*
X139057701Y-113613402D01*
X139222445Y-113559873D01*
X139376788Y-113481232D01*
X139516928Y-113379414D01*
X139639414Y-113256928D01*
X139741232Y-113116788D01*
X139819873Y-112962445D01*
X139873402Y-112797701D01*
X139900500Y-112626611D01*
X139900500Y-112453389D01*
X139873402Y-112282299D01*
X139819873Y-112117555D01*
X139741232Y-111963212D01*
X139639414Y-111823072D01*
X139516928Y-111700586D01*
X139376788Y-111598768D01*
X139222445Y-111520127D01*
X139057701Y-111466598D01*
X139057699Y-111466597D01*
X139057698Y-111466597D01*
X138926271Y-111445781D01*
X138886611Y-111439500D01*
X138713389Y-111439500D01*
X138681192Y-111444599D01*
X138542301Y-111466597D01*
X138377556Y-111520126D01*
X138366994Y-111525507D01*
X138298324Y-111538398D01*
X138233585Y-111512117D01*
X138223026Y-111502699D01*
X137861819Y-111141492D01*
X137847115Y-111114564D01*
X137830523Y-111088746D01*
X137829631Y-111082545D01*
X137828334Y-111080169D01*
X137825500Y-111053811D01*
X137825500Y-110881204D01*
X137845185Y-110814165D01*
X137897989Y-110768410D01*
X137967147Y-110758466D01*
X138030703Y-110787491D01*
X138037181Y-110793523D01*
X138083072Y-110839414D01*
X138223212Y-110941232D01*
X138377555Y-111019873D01*
X138542299Y-111073402D01*
X138713389Y-111100500D01*
X138713390Y-111100500D01*
X138886610Y-111100500D01*
X138886611Y-111100500D01*
X139057701Y-111073402D01*
X139222445Y-111019873D01*
X139376788Y-110941232D01*
X139516928Y-110839414D01*
X139562819Y-110793523D01*
X139624142Y-110760038D01*
X139693834Y-110765022D01*
X139749767Y-110806894D01*
X139774184Y-110872358D01*
X139774500Y-110881204D01*
X139774500Y-111342852D01*
X139796682Y-111425640D01*
X139804895Y-111439864D01*
X139839535Y-111499862D01*
X139839537Y-111499864D01*
X140302699Y-111963026D01*
X140336184Y-112024349D01*
X140331200Y-112094041D01*
X140325507Y-112106994D01*
X140320126Y-112117556D01*
X140266597Y-112282301D01*
X140256349Y-112347007D01*
X140239500Y-112453389D01*
X140239500Y-112626611D01*
X140266598Y-112797701D01*
X140320127Y-112962445D01*
X140398768Y-113116788D01*
X140500586Y-113256928D01*
X140623072Y-113379414D01*
X140763212Y-113481232D01*
X140917555Y-113559873D01*
X141082299Y-113613402D01*
X141253389Y-113640500D01*
X141253390Y-113640500D01*
X141426610Y-113640500D01*
X141426611Y-113640500D01*
X141597701Y-113613402D01*
X141762445Y-113559873D01*
X141916788Y-113481232D01*
X142056928Y-113379414D01*
X142179414Y-113256928D01*
X142281232Y-113116788D01*
X142359873Y-112962445D01*
X142413402Y-112797701D01*
X142440500Y-112626611D01*
X142440500Y-112453389D01*
X142779500Y-112453389D01*
X142779500Y-112626611D01*
X142806598Y-112797701D01*
X142860127Y-112962445D01*
X142938768Y-113116788D01*
X143040586Y-113256928D01*
X143163072Y-113379414D01*
X143303212Y-113481232D01*
X143457555Y-113559873D01*
X143622299Y-113613402D01*
X143793389Y-113640500D01*
X143793390Y-113640500D01*
X143966610Y-113640500D01*
X143966611Y-113640500D01*
X144137701Y-113613402D01*
X144302445Y-113559873D01*
X144456788Y-113481232D01*
X144596928Y-113379414D01*
X144719414Y-113256928D01*
X144821232Y-113116788D01*
X144899873Y-112962445D01*
X144953402Y-112797701D01*
X144980500Y-112626611D01*
X144980500Y-112453389D01*
X144953402Y-112282299D01*
X144899873Y-112117555D01*
X144821232Y-111963212D01*
X144719414Y-111823072D01*
X144596928Y-111700586D01*
X144456788Y-111598768D01*
X144302445Y-111520127D01*
X144137701Y-111466598D01*
X144137699Y-111466597D01*
X144137698Y-111466597D01*
X144006271Y-111445781D01*
X143966611Y-111439500D01*
X143793389Y-111439500D01*
X143753728Y-111445781D01*
X143622302Y-111466597D01*
X143457552Y-111520128D01*
X143303211Y-111598768D01*
X143223256Y-111656859D01*
X143163072Y-111700586D01*
X143163070Y-111700588D01*
X143163069Y-111700588D01*
X143040588Y-111823069D01*
X143040588Y-111823070D01*
X143040586Y-111823072D01*
X142996859Y-111883256D01*
X142938768Y-111963211D01*
X142860128Y-112117552D01*
X142806597Y-112282302D01*
X142796349Y-112347007D01*
X142779500Y-112453389D01*
X142440500Y-112453389D01*
X142413402Y-112282299D01*
X142359873Y-112117555D01*
X142281232Y-111963212D01*
X142179414Y-111823072D01*
X142056928Y-111700586D01*
X141916788Y-111598768D01*
X141762445Y-111520127D01*
X141597701Y-111466598D01*
X141597699Y-111466597D01*
X141597698Y-111466597D01*
X141466271Y-111445781D01*
X141426611Y-111439500D01*
X141253389Y-111439500D01*
X141221192Y-111444599D01*
X141082301Y-111466597D01*
X140917556Y-111520126D01*
X140906994Y-111525507D01*
X140838324Y-111538398D01*
X140773585Y-111512117D01*
X140763026Y-111502699D01*
X140461819Y-111201492D01*
X140447115Y-111174564D01*
X140430523Y-111148746D01*
X140429631Y-111142545D01*
X140428334Y-111140169D01*
X140425500Y-111113811D01*
X140425500Y-110939232D01*
X140445185Y-110872193D01*
X140497989Y-110826438D01*
X140567147Y-110816494D01*
X140622386Y-110838915D01*
X140623069Y-110839411D01*
X140623072Y-110839414D01*
X140671603Y-110874674D01*
X140763207Y-110941229D01*
X140763209Y-110941230D01*
X140763212Y-110941232D01*
X140917555Y-111019873D01*
X141082299Y-111073402D01*
X141253389Y-111100500D01*
X141253390Y-111100500D01*
X141426610Y-111100500D01*
X141426611Y-111100500D01*
X141597701Y-111073402D01*
X141762445Y-111019873D01*
X141916788Y-110941232D01*
X142056928Y-110839414D01*
X142179414Y-110716928D01*
X142281232Y-110576788D01*
X142359873Y-110422445D01*
X142413402Y-110257701D01*
X142440500Y-110086611D01*
X142440500Y-109913389D01*
X142413402Y-109742299D01*
X142359873Y-109577555D01*
X142281232Y-109423212D01*
X142179414Y-109283072D01*
X142056928Y-109160586D01*
X141916788Y-109058768D01*
X141762445Y-108980127D01*
X141762444Y-108980126D01*
X141762445Y-108980126D01*
X141751177Y-108976465D01*
X141693503Y-108937025D01*
X141666308Y-108872666D01*
X141665500Y-108858536D01*
X141665500Y-108367965D01*
X141685185Y-108300926D01*
X141737989Y-108255171D01*
X141807147Y-108245227D01*
X141870703Y-108274252D01*
X141877181Y-108280284D01*
X142902519Y-109305622D01*
X142936004Y-109366945D01*
X142931020Y-109436637D01*
X142925323Y-109449597D01*
X142860129Y-109577549D01*
X142806597Y-109742302D01*
X142796349Y-109807007D01*
X142779500Y-109913389D01*
X142779500Y-110086611D01*
X142806598Y-110257701D01*
X142860127Y-110422445D01*
X142938768Y-110576788D01*
X143040586Y-110716928D01*
X143163072Y-110839414D01*
X143303212Y-110941232D01*
X143457555Y-111019873D01*
X143622299Y-111073402D01*
X143793389Y-111100500D01*
X143793390Y-111100500D01*
X143966610Y-111100500D01*
X143966611Y-111100500D01*
X144137701Y-111073402D01*
X144302445Y-111019873D01*
X144456788Y-110941232D01*
X144596928Y-110839414D01*
X144612819Y-110823523D01*
X144674142Y-110790038D01*
X144743834Y-110795022D01*
X144799767Y-110836894D01*
X144824184Y-110902358D01*
X144824500Y-110911204D01*
X144824500Y-111227147D01*
X144824500Y-111312853D01*
X144829768Y-111332512D01*
X144846682Y-111395640D01*
X144863476Y-111424727D01*
X144889535Y-111469862D01*
X144889537Y-111469864D01*
X145382699Y-111963026D01*
X145416184Y-112024349D01*
X145411200Y-112094041D01*
X145405507Y-112106994D01*
X145400126Y-112117556D01*
X145346597Y-112282301D01*
X145336349Y-112347007D01*
X145319500Y-112453389D01*
X145319500Y-112626611D01*
X145346598Y-112797701D01*
X145400127Y-112962445D01*
X145478768Y-113116788D01*
X145580586Y-113256928D01*
X145703072Y-113379414D01*
X145843212Y-113481232D01*
X145997555Y-113559873D01*
X146162299Y-113613402D01*
X146333389Y-113640500D01*
X146333390Y-113640500D01*
X146506610Y-113640500D01*
X146506611Y-113640500D01*
X146677701Y-113613402D01*
X146842445Y-113559873D01*
X146996788Y-113481232D01*
X147136928Y-113379414D01*
X147259414Y-113256928D01*
X147361232Y-113116788D01*
X147439873Y-112962445D01*
X147440896Y-112959294D01*
X147441610Y-112958250D01*
X147441734Y-112957952D01*
X147441796Y-112957977D01*
X147480327Y-112901618D01*
X147544683Y-112874415D01*
X147613530Y-112886323D01*
X147665011Y-112933562D01*
X147676760Y-112959287D01*
X147708904Y-113058217D01*
X147805375Y-113247550D01*
X147844728Y-113301716D01*
X148477037Y-112669408D01*
X148494075Y-112732993D01*
X148559901Y-112847007D01*
X148652993Y-112940099D01*
X148767007Y-113005925D01*
X148830590Y-113022962D01*
X148198282Y-113655269D01*
X148198282Y-113655270D01*
X148252449Y-113694624D01*
X148441782Y-113791095D01*
X148643870Y-113856757D01*
X148853754Y-113890000D01*
X149066246Y-113890000D01*
X149276127Y-113856757D01*
X149276130Y-113856757D01*
X149478217Y-113791095D01*
X149667554Y-113694622D01*
X149721716Y-113655270D01*
X149721717Y-113655270D01*
X149089408Y-113022962D01*
X149152993Y-113005925D01*
X149267007Y-112940099D01*
X149360099Y-112847007D01*
X149425925Y-112732993D01*
X149442962Y-112669408D01*
X150075270Y-113301717D01*
X150075270Y-113301716D01*
X150114622Y-113247554D01*
X150211096Y-113058215D01*
X150243239Y-112959288D01*
X150282676Y-112901612D01*
X150347034Y-112874413D01*
X150415880Y-112886327D01*
X150467357Y-112933571D01*
X150479100Y-112959284D01*
X150480127Y-112962446D01*
X150502281Y-113005925D01*
X150558768Y-113116788D01*
X150660586Y-113256928D01*
X150783072Y-113379414D01*
X150923212Y-113481232D01*
X151077555Y-113559873D01*
X151242299Y-113613402D01*
X151413389Y-113640500D01*
X151413390Y-113640500D01*
X151586610Y-113640500D01*
X151586611Y-113640500D01*
X151757701Y-113613402D01*
X151922445Y-113559873D01*
X152076788Y-113481232D01*
X152216928Y-113379414D01*
X152339414Y-113256928D01*
X152441232Y-113116788D01*
X152519873Y-112962445D01*
X152573402Y-112797701D01*
X152600500Y-112626611D01*
X152600500Y-112453389D01*
X152573402Y-112282299D01*
X152519873Y-112117555D01*
X152441232Y-111963212D01*
X152339414Y-111823072D01*
X152216928Y-111700586D01*
X152106537Y-111620382D01*
X152076787Y-111598767D01*
X152068199Y-111594391D01*
X152017406Y-111546414D01*
X152000500Y-111483909D01*
X152000500Y-111224500D01*
X152020185Y-111157461D01*
X152072989Y-111111706D01*
X152124500Y-111100500D01*
X152374676Y-111100500D01*
X152374677Y-111100499D01*
X152447740Y-111085966D01*
X152530601Y-111030601D01*
X152585966Y-110947740D01*
X152600500Y-110874674D01*
X152600500Y-109125326D01*
X152600500Y-109125323D01*
X152600499Y-109125321D01*
X152585967Y-109052264D01*
X152585966Y-109052260D01*
X152564342Y-109019897D01*
X152530601Y-108969399D01*
X152447740Y-108914034D01*
X152447739Y-108914033D01*
X152447735Y-108914032D01*
X152374677Y-108899500D01*
X152374674Y-108899500D01*
X152124500Y-108899500D01*
X152057461Y-108879815D01*
X152011706Y-108827011D01*
X152000500Y-108775500D01*
X152000500Y-105024500D01*
X152020185Y-104957461D01*
X152072989Y-104911706D01*
X152124500Y-104900500D01*
X158115890Y-104900500D01*
X158115892Y-104900500D01*
X158243186Y-104866392D01*
X158357314Y-104800500D01*
X158450500Y-104707314D01*
X158516392Y-104593186D01*
X158550500Y-104465892D01*
X158550500Y-104334108D01*
X158516392Y-104206814D01*
X158450500Y-104092686D01*
X158357314Y-103999500D01*
X158300250Y-103966554D01*
X158243187Y-103933608D01*
X158179539Y-103916554D01*
X158115892Y-103899500D01*
X151565892Y-103899500D01*
X151434108Y-103899500D01*
X151306812Y-103933608D01*
X151192686Y-103999500D01*
X151192683Y-103999502D01*
X151099502Y-104092683D01*
X151099500Y-104092686D01*
X151033608Y-104206812D01*
X150999500Y-104334108D01*
X150999500Y-108775500D01*
X150979815Y-108842539D01*
X150927011Y-108888294D01*
X150875500Y-108899500D01*
X150625323Y-108899500D01*
X150552264Y-108914032D01*
X150552260Y-108914033D01*
X150469399Y-108969399D01*
X150414033Y-109052260D01*
X150414032Y-109052264D01*
X150399500Y-109125321D01*
X150399500Y-109335050D01*
X150379815Y-109402089D01*
X150327011Y-109447844D01*
X150257853Y-109457788D01*
X150194297Y-109428763D01*
X150165015Y-109391345D01*
X150114624Y-109292450D01*
X150075270Y-109238282D01*
X150075269Y-109238282D01*
X149442962Y-109870590D01*
X149425925Y-109807007D01*
X149360099Y-109692993D01*
X149267007Y-109599901D01*
X149152993Y-109534075D01*
X149089409Y-109517037D01*
X149721716Y-108884728D01*
X149667550Y-108845375D01*
X149478217Y-108748904D01*
X149276129Y-108683242D01*
X149066246Y-108650000D01*
X148853754Y-108650000D01*
X148643872Y-108683242D01*
X148643869Y-108683242D01*
X148441782Y-108748904D01*
X148252439Y-108845380D01*
X148198282Y-108884727D01*
X148198282Y-108884728D01*
X148830591Y-109517037D01*
X148767007Y-109534075D01*
X148652993Y-109599901D01*
X148559901Y-109692993D01*
X148494075Y-109807007D01*
X148477037Y-109870591D01*
X147844728Y-109238282D01*
X147844727Y-109238282D01*
X147805380Y-109292439D01*
X147708904Y-109481783D01*
X147676760Y-109580712D01*
X147637322Y-109638388D01*
X147572964Y-109665586D01*
X147504117Y-109653671D01*
X147452642Y-109606427D01*
X147440898Y-109580712D01*
X147439873Y-109577555D01*
X147361232Y-109423212D01*
X147259414Y-109283072D01*
X147136928Y-109160586D01*
X146996788Y-109058768D01*
X146842445Y-108980127D01*
X146677701Y-108926598D01*
X146677699Y-108926597D01*
X146677698Y-108926597D01*
X146546271Y-108905781D01*
X146506611Y-108899500D01*
X146333389Y-108899500D01*
X146301192Y-108904599D01*
X146162301Y-108926597D01*
X145997556Y-108980126D01*
X145986994Y-108985507D01*
X145918324Y-108998398D01*
X145853585Y-108972117D01*
X145843026Y-108962699D01*
X141461819Y-104581492D01*
X141428334Y-104520169D01*
X141425500Y-104493811D01*
X141425500Y-101620000D01*
X160605138Y-101620000D01*
X161408012Y-101620000D01*
X161390795Y-101629940D01*
X161334940Y-101685795D01*
X161295444Y-101754204D01*
X161275000Y-101830504D01*
X161275000Y-101909496D01*
X161295444Y-101985796D01*
X161334940Y-102054205D01*
X161390795Y-102110060D01*
X161408012Y-102120000D01*
X160605138Y-102120000D01*
X160613430Y-102161690D01*
X160613430Y-102161692D01*
X160688807Y-102343671D01*
X160688814Y-102343684D01*
X160798248Y-102507462D01*
X160798251Y-102507466D01*
X160937533Y-102646748D01*
X160937537Y-102646751D01*
X161101315Y-102756185D01*
X161101328Y-102756192D01*
X161283306Y-102831569D01*
X161283318Y-102831572D01*
X161476504Y-102869999D01*
X161476508Y-102870000D01*
X161875000Y-102870000D01*
X161875000Y-102170000D01*
X162375000Y-102170000D01*
X162375000Y-102870000D01*
X162773492Y-102870000D01*
X162773495Y-102869999D01*
X162966681Y-102831572D01*
X162966693Y-102831569D01*
X163148671Y-102756192D01*
X163148684Y-102756185D01*
X163312462Y-102646751D01*
X163312466Y-102646748D01*
X163451748Y-102507466D01*
X163451751Y-102507462D01*
X163561185Y-102343684D01*
X163561192Y-102343671D01*
X163636569Y-102161692D01*
X163636569Y-102161690D01*
X163644862Y-102120000D01*
X162841988Y-102120000D01*
X162859205Y-102110060D01*
X162915060Y-102054205D01*
X162954556Y-101985796D01*
X162975000Y-101909496D01*
X162975000Y-101830504D01*
X162954556Y-101754204D01*
X162915060Y-101685795D01*
X162859205Y-101629940D01*
X162841988Y-101620000D01*
X163644862Y-101620000D01*
X164955138Y-101620000D01*
X165758012Y-101620000D01*
X165740795Y-101629940D01*
X165684940Y-101685795D01*
X165645444Y-101754204D01*
X165625000Y-101830504D01*
X165625000Y-101909496D01*
X165645444Y-101985796D01*
X165684940Y-102054205D01*
X165740795Y-102110060D01*
X165758012Y-102120000D01*
X164955138Y-102120000D01*
X164963430Y-102161690D01*
X164963430Y-102161692D01*
X165038807Y-102343671D01*
X165038814Y-102343684D01*
X165148248Y-102507462D01*
X165148251Y-102507466D01*
X165287533Y-102646748D01*
X165287537Y-102646751D01*
X165451315Y-102756185D01*
X165451328Y-102756192D01*
X165633306Y-102831569D01*
X165633318Y-102831572D01*
X165826504Y-102869999D01*
X165826508Y-102870000D01*
X166075000Y-102870000D01*
X166075000Y-102170000D01*
X166575000Y-102170000D01*
X166575000Y-102870000D01*
X166823492Y-102870000D01*
X166823495Y-102869999D01*
X167016681Y-102831572D01*
X167016693Y-102831569D01*
X167198671Y-102756192D01*
X167198684Y-102756185D01*
X167362462Y-102646751D01*
X167362466Y-102646748D01*
X167501748Y-102507466D01*
X167501751Y-102507462D01*
X167611185Y-102343684D01*
X167611192Y-102343671D01*
X167686569Y-102161692D01*
X167686569Y-102161690D01*
X167694862Y-102120000D01*
X166891988Y-102120000D01*
X166909205Y-102110060D01*
X166965060Y-102054205D01*
X167004556Y-101985796D01*
X167025000Y-101909496D01*
X167025000Y-101830504D01*
X167004556Y-101754204D01*
X166965060Y-101685795D01*
X166909205Y-101629940D01*
X166891988Y-101620000D01*
X167694862Y-101620000D01*
X167686569Y-101578309D01*
X167686569Y-101578307D01*
X167611192Y-101396328D01*
X167611185Y-101396315D01*
X167501751Y-101232537D01*
X167501748Y-101232533D01*
X167362466Y-101093251D01*
X167362462Y-101093248D01*
X167198684Y-100983814D01*
X167198671Y-100983807D01*
X167016693Y-100908430D01*
X167016681Y-100908427D01*
X166823495Y-100870000D01*
X166575000Y-100870000D01*
X166575000Y-101570000D01*
X166075000Y-101570000D01*
X166075000Y-100870000D01*
X165826504Y-100870000D01*
X165633318Y-100908427D01*
X165633306Y-100908430D01*
X165451328Y-100983807D01*
X165451315Y-100983814D01*
X165287537Y-101093248D01*
X165287533Y-101093251D01*
X165148251Y-101232533D01*
X165148248Y-101232537D01*
X165038814Y-101396315D01*
X165038807Y-101396328D01*
X164963430Y-101578307D01*
X164963430Y-101578309D01*
X164955138Y-101620000D01*
X163644862Y-101620000D01*
X163636569Y-101578309D01*
X163636569Y-101578307D01*
X163561192Y-101396328D01*
X163561185Y-101396315D01*
X163451751Y-101232537D01*
X163451748Y-101232533D01*
X163312466Y-101093251D01*
X163312462Y-101093248D01*
X163148684Y-100983814D01*
X163148671Y-100983807D01*
X162966693Y-100908430D01*
X162966681Y-100908427D01*
X162773495Y-100870000D01*
X162375000Y-100870000D01*
X162375000Y-101570000D01*
X161875000Y-101570000D01*
X161875000Y-100870000D01*
X161476504Y-100870000D01*
X161283318Y-100908427D01*
X161283306Y-100908430D01*
X161101328Y-100983807D01*
X161101315Y-100983814D01*
X160937537Y-101093248D01*
X160937533Y-101093251D01*
X160798251Y-101232533D01*
X160798248Y-101232537D01*
X160688814Y-101396315D01*
X160688807Y-101396328D01*
X160613430Y-101578307D01*
X160613430Y-101578309D01*
X160605138Y-101620000D01*
X141425500Y-101620000D01*
X141425500Y-100683676D01*
X141431910Y-100661843D01*
X141433765Y-100639163D01*
X141442531Y-100625673D01*
X141445185Y-100616637D01*
X141450994Y-100608360D01*
X141455995Y-100601818D01*
X141500500Y-100557314D01*
X141532806Y-100501358D01*
X141537676Y-100494989D01*
X141559646Y-100478888D01*
X141579361Y-100460090D01*
X141587415Y-100458537D01*
X141594033Y-100453688D01*
X141621222Y-100452021D01*
X141647968Y-100446866D01*
X141655583Y-100449914D01*
X141663771Y-100449413D01*
X141687545Y-100462710D01*
X141712833Y-100472834D01*
X141717590Y-100479515D01*
X141724751Y-100483520D01*
X141737562Y-100507560D01*
X141753362Y-100529748D01*
X141756530Y-100543155D01*
X141757610Y-100545181D01*
X141757455Y-100547068D01*
X141759120Y-100554111D01*
X141759503Y-100557019D01*
X141759504Y-100557022D01*
X141759504Y-100557024D01*
X141769946Y-100595995D01*
X141793612Y-100684319D01*
X141826558Y-100741382D01*
X141859504Y-100798446D01*
X141952690Y-100891632D01*
X142066818Y-100957524D01*
X142194112Y-100991632D01*
X142194114Y-100991632D01*
X142325894Y-100991632D01*
X142325896Y-100991632D01*
X142453190Y-100957524D01*
X142567318Y-100891632D01*
X142660504Y-100798446D01*
X142726396Y-100684318D01*
X142760504Y-100557024D01*
X142760504Y-100517780D01*
X142780189Y-100450741D01*
X142796823Y-100430099D01*
X143936326Y-99290596D01*
X145110465Y-98116457D01*
X145153318Y-98042234D01*
X145175500Y-97959448D01*
X145175500Y-97873742D01*
X145175500Y-95077525D01*
X159449500Y-95077525D01*
X159449500Y-95222475D01*
X159487016Y-95362485D01*
X159487017Y-95362488D01*
X159490059Y-95369831D01*
X159499500Y-95417288D01*
X159499500Y-99682710D01*
X159490063Y-99730159D01*
X159487016Y-99737513D01*
X159474665Y-99783608D01*
X159449500Y-99877525D01*
X159449500Y-100022475D01*
X159485262Y-100155940D01*
X159487017Y-100162488D01*
X159559488Y-100288011D01*
X159559490Y-100288013D01*
X159559491Y-100288015D01*
X159661985Y-100390509D01*
X159661986Y-100390510D01*
X159661988Y-100390511D01*
X159787511Y-100462982D01*
X159787512Y-100462982D01*
X159787515Y-100462984D01*
X159927525Y-100500500D01*
X159927528Y-100500500D01*
X160072472Y-100500500D01*
X160072475Y-100500500D01*
X160212485Y-100462984D01*
X160338015Y-100390509D01*
X160440509Y-100288015D01*
X160512984Y-100162485D01*
X160550500Y-100022475D01*
X160550500Y-99877525D01*
X160512984Y-99737515D01*
X160512983Y-99737513D01*
X160509937Y-99730159D01*
X160500500Y-99682710D01*
X160500500Y-95417288D01*
X160509941Y-95369831D01*
X160512982Y-95362488D01*
X160512981Y-95362488D01*
X160512984Y-95362485D01*
X160550500Y-95222475D01*
X160550500Y-95077525D01*
X160512984Y-94937515D01*
X160495547Y-94907314D01*
X160440511Y-94811988D01*
X160440506Y-94811982D01*
X160338017Y-94709493D01*
X160338011Y-94709488D01*
X160212488Y-94637017D01*
X160212489Y-94637017D01*
X160196072Y-94632618D01*
X160072475Y-94599500D01*
X159927525Y-94599500D01*
X159803928Y-94632618D01*
X159787511Y-94637017D01*
X159661988Y-94709488D01*
X159661982Y-94709493D01*
X159559493Y-94811982D01*
X159559488Y-94811988D01*
X159487017Y-94937511D01*
X159487016Y-94937515D01*
X159449500Y-95077525D01*
X145175500Y-95077525D01*
X145175500Y-92980000D01*
X160605138Y-92980000D01*
X161408012Y-92980000D01*
X161390795Y-92989940D01*
X161334940Y-93045795D01*
X161295444Y-93114204D01*
X161275000Y-93190504D01*
X161275000Y-93269496D01*
X161295444Y-93345796D01*
X161334940Y-93414205D01*
X161390795Y-93470060D01*
X161408012Y-93480000D01*
X160605138Y-93480000D01*
X160613430Y-93521690D01*
X160613430Y-93521692D01*
X160688807Y-93703671D01*
X160688814Y-93703684D01*
X160798248Y-93867462D01*
X160798251Y-93867466D01*
X160937533Y-94006748D01*
X160937537Y-94006751D01*
X161101315Y-94116185D01*
X161101328Y-94116192D01*
X161283306Y-94191569D01*
X161283318Y-94191572D01*
X161476504Y-94229999D01*
X161476508Y-94230000D01*
X161875000Y-94230000D01*
X161875000Y-93530000D01*
X162375000Y-93530000D01*
X162375000Y-94230000D01*
X162773492Y-94230000D01*
X162773495Y-94229999D01*
X162966681Y-94191572D01*
X162966693Y-94191569D01*
X163148671Y-94116192D01*
X163148684Y-94116185D01*
X163312462Y-94006751D01*
X163312466Y-94006748D01*
X163451748Y-93867466D01*
X163451751Y-93867462D01*
X163561185Y-93703684D01*
X163561192Y-93703671D01*
X163636569Y-93521692D01*
X163636569Y-93521690D01*
X163644862Y-93480000D01*
X162841988Y-93480000D01*
X162859205Y-93470060D01*
X162915060Y-93414205D01*
X162954556Y-93345796D01*
X162975000Y-93269496D01*
X162975000Y-93190504D01*
X162954556Y-93114204D01*
X162915060Y-93045795D01*
X162859205Y-92989940D01*
X162841988Y-92980000D01*
X163644862Y-92980000D01*
X164955138Y-92980000D01*
X165758012Y-92980000D01*
X165740795Y-92989940D01*
X165684940Y-93045795D01*
X165645444Y-93114204D01*
X165625000Y-93190504D01*
X165625000Y-93269496D01*
X165645444Y-93345796D01*
X165684940Y-93414205D01*
X165740795Y-93470060D01*
X165758012Y-93480000D01*
X164955138Y-93480000D01*
X164963430Y-93521690D01*
X164963430Y-93521692D01*
X165038807Y-93703671D01*
X165038814Y-93703684D01*
X165148248Y-93867462D01*
X165148251Y-93867466D01*
X165287533Y-94006748D01*
X165287537Y-94006751D01*
X165451315Y-94116185D01*
X165451328Y-94116192D01*
X165633306Y-94191569D01*
X165633318Y-94191572D01*
X165826504Y-94229999D01*
X165826508Y-94230000D01*
X166075000Y-94230000D01*
X166075000Y-93530000D01*
X166575000Y-93530000D01*
X166575000Y-94230000D01*
X166823492Y-94230000D01*
X166823495Y-94229999D01*
X167016681Y-94191572D01*
X167016693Y-94191569D01*
X167198671Y-94116192D01*
X167198684Y-94116185D01*
X167362462Y-94006751D01*
X167362466Y-94006748D01*
X167501748Y-93867466D01*
X167501751Y-93867462D01*
X167611185Y-93703684D01*
X167611192Y-93703671D01*
X167686569Y-93521692D01*
X167686569Y-93521690D01*
X167694862Y-93480000D01*
X166891988Y-93480000D01*
X166909205Y-93470060D01*
X166965060Y-93414205D01*
X167004556Y-93345796D01*
X167025000Y-93269496D01*
X167025000Y-93190504D01*
X167004556Y-93114204D01*
X166965060Y-93045795D01*
X166909205Y-92989940D01*
X166891988Y-92980000D01*
X167694862Y-92980000D01*
X167686569Y-92938309D01*
X167686569Y-92938307D01*
X167611192Y-92756328D01*
X167611185Y-92756315D01*
X167501751Y-92592537D01*
X167501748Y-92592533D01*
X167362466Y-92453251D01*
X167362462Y-92453248D01*
X167198684Y-92343814D01*
X167198671Y-92343807D01*
X167016693Y-92268430D01*
X167016681Y-92268427D01*
X166823495Y-92230000D01*
X166575000Y-92230000D01*
X166575000Y-92930000D01*
X166075000Y-92930000D01*
X166075000Y-92230000D01*
X165826504Y-92230000D01*
X165633318Y-92268427D01*
X165633306Y-92268430D01*
X165451328Y-92343807D01*
X165451315Y-92343814D01*
X165287537Y-92453248D01*
X165287533Y-92453251D01*
X165148251Y-92592533D01*
X165148248Y-92592537D01*
X165038814Y-92756315D01*
X165038807Y-92756328D01*
X164963430Y-92938307D01*
X164963430Y-92938309D01*
X164955138Y-92980000D01*
X163644862Y-92980000D01*
X163636569Y-92938309D01*
X163636569Y-92938307D01*
X163561192Y-92756328D01*
X163561185Y-92756315D01*
X163451751Y-92592537D01*
X163451748Y-92592533D01*
X163312466Y-92453251D01*
X163312462Y-92453248D01*
X163148684Y-92343814D01*
X163148671Y-92343807D01*
X162966693Y-92268430D01*
X162966681Y-92268427D01*
X162773495Y-92230000D01*
X162375000Y-92230000D01*
X162375000Y-92930000D01*
X161875000Y-92930000D01*
X161875000Y-92230000D01*
X161476504Y-92230000D01*
X161283318Y-92268427D01*
X161283306Y-92268430D01*
X161101328Y-92343807D01*
X161101315Y-92343814D01*
X160937537Y-92453248D01*
X160937533Y-92453251D01*
X160798251Y-92592533D01*
X160798248Y-92592537D01*
X160688814Y-92756315D01*
X160688807Y-92756328D01*
X160613430Y-92938307D01*
X160613430Y-92938309D01*
X160605138Y-92980000D01*
X145175500Y-92980000D01*
X145175500Y-90136187D01*
X145195185Y-90069148D01*
X145211814Y-90048511D01*
X147889652Y-87370672D01*
X147889657Y-87370669D01*
X147899860Y-87360465D01*
X147899862Y-87360465D01*
X147960465Y-87299862D01*
X148003318Y-87225638D01*
X148006635Y-87213258D01*
X148024922Y-87145012D01*
X148057014Y-87089431D01*
X148477037Y-86669408D01*
X148494075Y-86732993D01*
X148559901Y-86847007D01*
X148652993Y-86940099D01*
X148767007Y-87005925D01*
X148830590Y-87022962D01*
X148198282Y-87655269D01*
X148198282Y-87655270D01*
X148252449Y-87694624D01*
X148441782Y-87791095D01*
X148643870Y-87856757D01*
X148853754Y-87890000D01*
X149066246Y-87890000D01*
X149276127Y-87856757D01*
X149276130Y-87856757D01*
X149478217Y-87791095D01*
X149667554Y-87694622D01*
X149721716Y-87655270D01*
X149721717Y-87655270D01*
X149089408Y-87022962D01*
X149152993Y-87005925D01*
X149267007Y-86940099D01*
X149360099Y-86847007D01*
X149425925Y-86732993D01*
X149442962Y-86669408D01*
X150075270Y-87301717D01*
X150075270Y-87301716D01*
X150114622Y-87247554D01*
X150211096Y-87058215D01*
X150243239Y-86959288D01*
X150282676Y-86901612D01*
X150347034Y-86874413D01*
X150415880Y-86886327D01*
X150467357Y-86933571D01*
X150479100Y-86959284D01*
X150480127Y-86962446D01*
X150528924Y-87058215D01*
X150558768Y-87116788D01*
X150660586Y-87256928D01*
X150783072Y-87379414D01*
X150923212Y-87481232D01*
X151077555Y-87559873D01*
X151242299Y-87613402D01*
X151413389Y-87640500D01*
X151413390Y-87640500D01*
X151586610Y-87640500D01*
X151586611Y-87640500D01*
X151757701Y-87613402D01*
X151922445Y-87559873D01*
X152076788Y-87481232D01*
X152216928Y-87379414D01*
X152339414Y-87256928D01*
X152441232Y-87116788D01*
X152519873Y-86962445D01*
X152573402Y-86797701D01*
X152600500Y-86626611D01*
X152600500Y-86453389D01*
X152573402Y-86282299D01*
X152519873Y-86117555D01*
X152441232Y-85963212D01*
X152339414Y-85823072D01*
X152216928Y-85700586D01*
X152076788Y-85598768D01*
X151922445Y-85520127D01*
X151757701Y-85466598D01*
X151757699Y-85466597D01*
X151757698Y-85466597D01*
X151597685Y-85441254D01*
X151586611Y-85439500D01*
X151413389Y-85439500D01*
X151402315Y-85441254D01*
X151242302Y-85466597D01*
X151077552Y-85520128D01*
X150923211Y-85598768D01*
X150848190Y-85653275D01*
X150783072Y-85700586D01*
X150783070Y-85700588D01*
X150783069Y-85700588D01*
X150660588Y-85823069D01*
X150660588Y-85823070D01*
X150660586Y-85823072D01*
X150616859Y-85883256D01*
X150558768Y-85963211D01*
X150480128Y-86117550D01*
X150479099Y-86120720D01*
X150478381Y-86121769D01*
X150478266Y-86122048D01*
X150478207Y-86122023D01*
X150439657Y-86178393D01*
X150375297Y-86205587D01*
X150306451Y-86193668D01*
X150254979Y-86146420D01*
X150243239Y-86120711D01*
X150211096Y-86021784D01*
X150114624Y-85832449D01*
X150075270Y-85778282D01*
X150075269Y-85778282D01*
X149442962Y-86410590D01*
X149425925Y-86347007D01*
X149360099Y-86232993D01*
X149267007Y-86139901D01*
X149152993Y-86074075D01*
X149089408Y-86057037D01*
X149721716Y-85424728D01*
X149667550Y-85385375D01*
X149657954Y-85380486D01*
X149607157Y-85332512D01*
X149590361Y-85264692D01*
X149612897Y-85198556D01*
X149657954Y-85159514D01*
X149667554Y-85154622D01*
X149721716Y-85115270D01*
X149721717Y-85115270D01*
X149089408Y-84482962D01*
X149152993Y-84465925D01*
X149267007Y-84400099D01*
X149360099Y-84307007D01*
X149425925Y-84192993D01*
X149442962Y-84129408D01*
X150075270Y-84761717D01*
X150075270Y-84761716D01*
X150114622Y-84707554D01*
X150165015Y-84608654D01*
X150212990Y-84557858D01*
X150280811Y-84541063D01*
X150346946Y-84563600D01*
X150390397Y-84618315D01*
X150399500Y-84664949D01*
X150399500Y-84874678D01*
X150414032Y-84947735D01*
X150414033Y-84947739D01*
X150419021Y-84955204D01*
X150469399Y-85030601D01*
X150534889Y-85074359D01*
X150552260Y-85085966D01*
X150552264Y-85085967D01*
X150625321Y-85100499D01*
X150625324Y-85100500D01*
X150625326Y-85100500D01*
X152374676Y-85100500D01*
X152374677Y-85100499D01*
X152447740Y-85085966D01*
X152530601Y-85030601D01*
X152585966Y-84947740D01*
X152600500Y-84874674D01*
X152600500Y-83195544D01*
X152620185Y-83128505D01*
X152672989Y-83082750D01*
X152742147Y-83072806D01*
X152805703Y-83101831D01*
X152812181Y-83107863D01*
X154913181Y-85208863D01*
X154946666Y-85270186D01*
X154949500Y-85296544D01*
X154949500Y-85891324D01*
X154929815Y-85958363D01*
X154913181Y-85979005D01*
X154899502Y-85992683D01*
X154899500Y-85992686D01*
X154833608Y-86106812D01*
X154799500Y-86234108D01*
X154799500Y-86365891D01*
X154833608Y-86493187D01*
X154860636Y-86540000D01*
X154899500Y-86607314D01*
X154992686Y-86700500D01*
X155106814Y-86766392D01*
X155234108Y-86800500D01*
X155234110Y-86800500D01*
X155365890Y-86800500D01*
X155365892Y-86800500D01*
X155493186Y-86766392D01*
X155607314Y-86700500D01*
X155700500Y-86607314D01*
X155766392Y-86493186D01*
X155800500Y-86365892D01*
X155800500Y-86234108D01*
X155766392Y-86106814D01*
X155700500Y-85992686D01*
X155686819Y-85979005D01*
X155653334Y-85917682D01*
X155650500Y-85891324D01*
X155650500Y-85053858D01*
X155650500Y-85053856D01*
X155626614Y-84964712D01*
X155626613Y-84964711D01*
X155626613Y-84964709D01*
X155612079Y-84939537D01*
X155612077Y-84939534D01*
X155580470Y-84884788D01*
X152515212Y-81819530D01*
X152515211Y-81819529D01*
X152515208Y-81819527D01*
X152435290Y-81773387D01*
X152435289Y-81773386D01*
X152435288Y-81773386D01*
X152346144Y-81749500D01*
X125506144Y-81749500D01*
X125413856Y-81749500D01*
X125324712Y-81773386D01*
X125324709Y-81773387D01*
X125244791Y-81819527D01*
X125244786Y-81819531D01*
X124112969Y-82951347D01*
X124051646Y-82984832D01*
X123986970Y-82981597D01*
X123817698Y-82926597D01*
X123686271Y-82905781D01*
X123646611Y-82899500D01*
X123473389Y-82899500D01*
X123433728Y-82905781D01*
X123302302Y-82926597D01*
X123137552Y-82980128D01*
X122983211Y-83058768D01*
X122923941Y-83101831D01*
X122843072Y-83160586D01*
X122843070Y-83160588D01*
X122843069Y-83160588D01*
X122720588Y-83283069D01*
X122720588Y-83283070D01*
X122720586Y-83283072D01*
X122682822Y-83335050D01*
X122618768Y-83423211D01*
X122540128Y-83577552D01*
X122486597Y-83742302D01*
X122486597Y-83742304D01*
X122459500Y-83913389D01*
X119500500Y-83913389D01*
X119500500Y-80376424D01*
X119520185Y-80309385D01*
X119572989Y-80263630D01*
X119642147Y-80253686D01*
X119705703Y-80282711D01*
X119742431Y-80338106D01*
X119794781Y-80499221D01*
X119887715Y-80681613D01*
X120008028Y-80847213D01*
X120152786Y-80991971D01*
X120307749Y-81104556D01*
X120318390Y-81112287D01*
X120434607Y-81171503D01*
X120500776Y-81205218D01*
X120500778Y-81205218D01*
X120500781Y-81205220D01*
X120605137Y-81239127D01*
X120695465Y-81268477D01*
X120796557Y-81284488D01*
X120897648Y-81300500D01*
X120897649Y-81300500D01*
X121102351Y-81300500D01*
X121102352Y-81300500D01*
X121304534Y-81268477D01*
X121499219Y-81205220D01*
X121681610Y-81112287D01*
X121774590Y-81044732D01*
X121847213Y-80991971D01*
X121847215Y-80991968D01*
X121847219Y-80991966D01*
X121991966Y-80847219D01*
X121991968Y-80847215D01*
X121991971Y-80847213D01*
X122044732Y-80774590D01*
X122112287Y-80681610D01*
X122205220Y-80499219D01*
X122268477Y-80304534D01*
X122300500Y-80102352D01*
X122300500Y-79897648D01*
X122268477Y-79695465D01*
X122205218Y-79500776D01*
X122171503Y-79434607D01*
X122112287Y-79318390D01*
X122104556Y-79307749D01*
X121991971Y-79152786D01*
X121847213Y-79008028D01*
X121681613Y-78887715D01*
X121681612Y-78887714D01*
X121681610Y-78887713D01*
X121624653Y-78858691D01*
X121499223Y-78794781D01*
X121338106Y-78742431D01*
X121280431Y-78702993D01*
X121253233Y-78638634D01*
X121265148Y-78569788D01*
X121312392Y-78518312D01*
X121376425Y-78500500D01*
X166623575Y-78500500D01*
X166639013Y-78505033D01*
G37*
%TD.AperFunction*%
%TD*%
M02*
