%TF.GenerationSoftware,KiCad,Pcbnew,9.0.5*%
%TF.CreationDate,2025-10-21T09:40:09+03:30*%
%TF.ProjectId,WeAct-STM32G474,57654163-742d-4535-944d-333247343734,rev?*%
%TF.SameCoordinates,Original*%
%TF.FileFunction,Legend,Top*%
%TF.FilePolarity,Positive*%
%FSLAX46Y46*%
G04 Gerber Fmt 4.6, Leading zero omitted, Abs format (unit mm)*
G04 Created by KiCad (PCBNEW 9.0.5) date 2025-10-21 09:40:09*
%MOMM*%
%LPD*%
G01*
G04 APERTURE LIST*
%ADD10C,0.150000*%
%ADD11C,0.100000*%
%ADD12C,0.120000*%
G04 APERTURE END LIST*
D10*
X141390476Y-92802295D02*
X141390476Y-93449914D01*
X141390476Y-93449914D02*
X141428571Y-93526104D01*
X141428571Y-93526104D02*
X141466666Y-93564200D01*
X141466666Y-93564200D02*
X141542857Y-93602295D01*
X141542857Y-93602295D02*
X141695238Y-93602295D01*
X141695238Y-93602295D02*
X141771428Y-93564200D01*
X141771428Y-93564200D02*
X141809523Y-93526104D01*
X141809523Y-93526104D02*
X141847619Y-93449914D01*
X141847619Y-93449914D02*
X141847619Y-92802295D01*
X142190475Y-92878485D02*
X142228571Y-92840390D01*
X142228571Y-92840390D02*
X142304761Y-92802295D01*
X142304761Y-92802295D02*
X142495237Y-92802295D01*
X142495237Y-92802295D02*
X142571428Y-92840390D01*
X142571428Y-92840390D02*
X142609523Y-92878485D01*
X142609523Y-92878485D02*
X142647618Y-92954676D01*
X142647618Y-92954676D02*
X142647618Y-93030866D01*
X142647618Y-93030866D02*
X142609523Y-93145152D01*
X142609523Y-93145152D02*
X142152380Y-93602295D01*
X142152380Y-93602295D02*
X142647618Y-93602295D01*
X160233333Y-102362295D02*
X160233333Y-102933723D01*
X160233333Y-102933723D02*
X160195238Y-103048009D01*
X160195238Y-103048009D02*
X160119047Y-103124200D01*
X160119047Y-103124200D02*
X160004762Y-103162295D01*
X160004762Y-103162295D02*
X159928571Y-103162295D01*
X160538095Y-102362295D02*
X161033333Y-102362295D01*
X161033333Y-102362295D02*
X160766667Y-102667057D01*
X160766667Y-102667057D02*
X160880952Y-102667057D01*
X160880952Y-102667057D02*
X160957143Y-102705152D01*
X160957143Y-102705152D02*
X160995238Y-102743247D01*
X160995238Y-102743247D02*
X161033333Y-102819438D01*
X161033333Y-102819438D02*
X161033333Y-103009914D01*
X161033333Y-103009914D02*
X160995238Y-103086104D01*
X160995238Y-103086104D02*
X160957143Y-103124200D01*
X160957143Y-103124200D02*
X160880952Y-103162295D01*
X160880952Y-103162295D02*
X160652381Y-103162295D01*
X160652381Y-103162295D02*
X160576190Y-103124200D01*
X160576190Y-103124200D02*
X160538095Y-103086104D01*
X124135714Y-102057396D02*
X124097618Y-102095492D01*
X124097618Y-102095492D02*
X123983333Y-102133587D01*
X123983333Y-102133587D02*
X123907142Y-102133587D01*
X123907142Y-102133587D02*
X123792856Y-102095492D01*
X123792856Y-102095492D02*
X123716666Y-102019301D01*
X123716666Y-102019301D02*
X123678571Y-101943111D01*
X123678571Y-101943111D02*
X123640475Y-101790730D01*
X123640475Y-101790730D02*
X123640475Y-101676444D01*
X123640475Y-101676444D02*
X123678571Y-101524063D01*
X123678571Y-101524063D02*
X123716666Y-101447872D01*
X123716666Y-101447872D02*
X123792856Y-101371682D01*
X123792856Y-101371682D02*
X123907142Y-101333587D01*
X123907142Y-101333587D02*
X123983333Y-101333587D01*
X123983333Y-101333587D02*
X124097618Y-101371682D01*
X124097618Y-101371682D02*
X124135714Y-101409777D01*
X124897618Y-102133587D02*
X124440475Y-102133587D01*
X124669047Y-102133587D02*
X124669047Y-101333587D01*
X124669047Y-101333587D02*
X124592856Y-101447872D01*
X124592856Y-101447872D02*
X124516666Y-101524063D01*
X124516666Y-101524063D02*
X124440475Y-101562158D01*
X125202380Y-101409777D02*
X125240476Y-101371682D01*
X125240476Y-101371682D02*
X125316666Y-101333587D01*
X125316666Y-101333587D02*
X125507142Y-101333587D01*
X125507142Y-101333587D02*
X125583333Y-101371682D01*
X125583333Y-101371682D02*
X125621428Y-101409777D01*
X125621428Y-101409777D02*
X125659523Y-101485968D01*
X125659523Y-101485968D02*
X125659523Y-101562158D01*
X125659523Y-101562158D02*
X125621428Y-101676444D01*
X125621428Y-101676444D02*
X125164285Y-102133587D01*
X125164285Y-102133587D02*
X125659523Y-102133587D01*
X124135714Y-95307396D02*
X124097618Y-95345492D01*
X124097618Y-95345492D02*
X123983333Y-95383587D01*
X123983333Y-95383587D02*
X123907142Y-95383587D01*
X123907142Y-95383587D02*
X123792856Y-95345492D01*
X123792856Y-95345492D02*
X123716666Y-95269301D01*
X123716666Y-95269301D02*
X123678571Y-95193111D01*
X123678571Y-95193111D02*
X123640475Y-95040730D01*
X123640475Y-95040730D02*
X123640475Y-94926444D01*
X123640475Y-94926444D02*
X123678571Y-94774063D01*
X123678571Y-94774063D02*
X123716666Y-94697872D01*
X123716666Y-94697872D02*
X123792856Y-94621682D01*
X123792856Y-94621682D02*
X123907142Y-94583587D01*
X123907142Y-94583587D02*
X123983333Y-94583587D01*
X123983333Y-94583587D02*
X124097618Y-94621682D01*
X124097618Y-94621682D02*
X124135714Y-94659777D01*
X124897618Y-95383587D02*
X124440475Y-95383587D01*
X124669047Y-95383587D02*
X124669047Y-94583587D01*
X124669047Y-94583587D02*
X124592856Y-94697872D01*
X124592856Y-94697872D02*
X124516666Y-94774063D01*
X124516666Y-94774063D02*
X124440475Y-94812158D01*
X125659523Y-95383587D02*
X125202380Y-95383587D01*
X125430952Y-95383587D02*
X125430952Y-94583587D01*
X125430952Y-94583587D02*
X125354761Y-94697872D01*
X125354761Y-94697872D02*
X125278571Y-94774063D01*
X125278571Y-94774063D02*
X125202380Y-94812158D01*
X125916667Y-103762295D02*
X125650000Y-103381342D01*
X125459524Y-103762295D02*
X125459524Y-102962295D01*
X125459524Y-102962295D02*
X125764286Y-102962295D01*
X125764286Y-102962295D02*
X125840476Y-103000390D01*
X125840476Y-103000390D02*
X125878571Y-103038485D01*
X125878571Y-103038485D02*
X125916667Y-103114676D01*
X125916667Y-103114676D02*
X125916667Y-103228961D01*
X125916667Y-103228961D02*
X125878571Y-103305152D01*
X125878571Y-103305152D02*
X125840476Y-103343247D01*
X125840476Y-103343247D02*
X125764286Y-103381342D01*
X125764286Y-103381342D02*
X125459524Y-103381342D01*
X126640476Y-102962295D02*
X126259524Y-102962295D01*
X126259524Y-102962295D02*
X126221428Y-103343247D01*
X126221428Y-103343247D02*
X126259524Y-103305152D01*
X126259524Y-103305152D02*
X126335714Y-103267057D01*
X126335714Y-103267057D02*
X126526190Y-103267057D01*
X126526190Y-103267057D02*
X126602381Y-103305152D01*
X126602381Y-103305152D02*
X126640476Y-103343247D01*
X126640476Y-103343247D02*
X126678571Y-103419438D01*
X126678571Y-103419438D02*
X126678571Y-103609914D01*
X126678571Y-103609914D02*
X126640476Y-103686104D01*
X126640476Y-103686104D02*
X126602381Y-103724200D01*
X126602381Y-103724200D02*
X126526190Y-103762295D01*
X126526190Y-103762295D02*
X126335714Y-103762295D01*
X126335714Y-103762295D02*
X126259524Y-103724200D01*
X126259524Y-103724200D02*
X126221428Y-103686104D01*
X141583333Y-104193247D02*
X141316667Y-104193247D01*
X141316667Y-104612295D02*
X141316667Y-103812295D01*
X141316667Y-103812295D02*
X141697619Y-103812295D01*
X142269047Y-104193247D02*
X142383333Y-104231342D01*
X142383333Y-104231342D02*
X142421428Y-104269438D01*
X142421428Y-104269438D02*
X142459524Y-104345628D01*
X142459524Y-104345628D02*
X142459524Y-104459914D01*
X142459524Y-104459914D02*
X142421428Y-104536104D01*
X142421428Y-104536104D02*
X142383333Y-104574200D01*
X142383333Y-104574200D02*
X142307143Y-104612295D01*
X142307143Y-104612295D02*
X142002381Y-104612295D01*
X142002381Y-104612295D02*
X142002381Y-103812295D01*
X142002381Y-103812295D02*
X142269047Y-103812295D01*
X142269047Y-103812295D02*
X142345238Y-103850390D01*
X142345238Y-103850390D02*
X142383333Y-103888485D01*
X142383333Y-103888485D02*
X142421428Y-103964676D01*
X142421428Y-103964676D02*
X142421428Y-104040866D01*
X142421428Y-104040866D02*
X142383333Y-104117057D01*
X142383333Y-104117057D02*
X142345238Y-104155152D01*
X142345238Y-104155152D02*
X142269047Y-104193247D01*
X142269047Y-104193247D02*
X142002381Y-104193247D01*
X143221428Y-104612295D02*
X142764285Y-104612295D01*
X142992857Y-104612295D02*
X142992857Y-103812295D01*
X142992857Y-103812295D02*
X142916666Y-103926580D01*
X142916666Y-103926580D02*
X142840476Y-104002771D01*
X142840476Y-104002771D02*
X142764285Y-104040866D01*
X152333333Y-81042295D02*
X152333333Y-81613723D01*
X152333333Y-81613723D02*
X152295238Y-81728009D01*
X152295238Y-81728009D02*
X152219047Y-81804200D01*
X152219047Y-81804200D02*
X152104762Y-81842295D01*
X152104762Y-81842295D02*
X152028571Y-81842295D01*
X153133333Y-81842295D02*
X152676190Y-81842295D01*
X152904762Y-81842295D02*
X152904762Y-81042295D01*
X152904762Y-81042295D02*
X152828571Y-81156580D01*
X152828571Y-81156580D02*
X152752381Y-81232771D01*
X152752381Y-81232771D02*
X152676190Y-81270866D01*
X167066667Y-89562295D02*
X166800000Y-89181342D01*
X166609524Y-89562295D02*
X166609524Y-88762295D01*
X166609524Y-88762295D02*
X166914286Y-88762295D01*
X166914286Y-88762295D02*
X166990476Y-88800390D01*
X166990476Y-88800390D02*
X167028571Y-88838485D01*
X167028571Y-88838485D02*
X167066667Y-88914676D01*
X167066667Y-88914676D02*
X167066667Y-89028961D01*
X167066667Y-89028961D02*
X167028571Y-89105152D01*
X167028571Y-89105152D02*
X166990476Y-89143247D01*
X166990476Y-89143247D02*
X166914286Y-89181342D01*
X166914286Y-89181342D02*
X166609524Y-89181342D01*
X167828571Y-89562295D02*
X167371428Y-89562295D01*
X167600000Y-89562295D02*
X167600000Y-88762295D01*
X167600000Y-88762295D02*
X167523809Y-88876580D01*
X167523809Y-88876580D02*
X167447619Y-88952771D01*
X167447619Y-88952771D02*
X167371428Y-88990866D01*
X163066667Y-90762295D02*
X162800000Y-90381342D01*
X162609524Y-90762295D02*
X162609524Y-89962295D01*
X162609524Y-89962295D02*
X162914286Y-89962295D01*
X162914286Y-89962295D02*
X162990476Y-90000390D01*
X162990476Y-90000390D02*
X163028571Y-90038485D01*
X163028571Y-90038485D02*
X163066667Y-90114676D01*
X163066667Y-90114676D02*
X163066667Y-90228961D01*
X163066667Y-90228961D02*
X163028571Y-90305152D01*
X163028571Y-90305152D02*
X162990476Y-90343247D01*
X162990476Y-90343247D02*
X162914286Y-90381342D01*
X162914286Y-90381342D02*
X162609524Y-90381342D01*
X163752381Y-89962295D02*
X163600000Y-89962295D01*
X163600000Y-89962295D02*
X163523809Y-90000390D01*
X163523809Y-90000390D02*
X163485714Y-90038485D01*
X163485714Y-90038485D02*
X163409524Y-90152771D01*
X163409524Y-90152771D02*
X163371428Y-90305152D01*
X163371428Y-90305152D02*
X163371428Y-90609914D01*
X163371428Y-90609914D02*
X163409524Y-90686104D01*
X163409524Y-90686104D02*
X163447619Y-90724200D01*
X163447619Y-90724200D02*
X163523809Y-90762295D01*
X163523809Y-90762295D02*
X163676190Y-90762295D01*
X163676190Y-90762295D02*
X163752381Y-90724200D01*
X163752381Y-90724200D02*
X163790476Y-90686104D01*
X163790476Y-90686104D02*
X163828571Y-90609914D01*
X163828571Y-90609914D02*
X163828571Y-90419438D01*
X163828571Y-90419438D02*
X163790476Y-90343247D01*
X163790476Y-90343247D02*
X163752381Y-90305152D01*
X163752381Y-90305152D02*
X163676190Y-90267057D01*
X163676190Y-90267057D02*
X163523809Y-90267057D01*
X163523809Y-90267057D02*
X163447619Y-90305152D01*
X163447619Y-90305152D02*
X163409524Y-90343247D01*
X163409524Y-90343247D02*
X163371428Y-90419438D01*
X146366667Y-97636104D02*
X146328571Y-97674200D01*
X146328571Y-97674200D02*
X146214286Y-97712295D01*
X146214286Y-97712295D02*
X146138095Y-97712295D01*
X146138095Y-97712295D02*
X146023809Y-97674200D01*
X146023809Y-97674200D02*
X145947619Y-97598009D01*
X145947619Y-97598009D02*
X145909524Y-97521819D01*
X145909524Y-97521819D02*
X145871428Y-97369438D01*
X145871428Y-97369438D02*
X145871428Y-97255152D01*
X145871428Y-97255152D02*
X145909524Y-97102771D01*
X145909524Y-97102771D02*
X145947619Y-97026580D01*
X145947619Y-97026580D02*
X146023809Y-96950390D01*
X146023809Y-96950390D02*
X146138095Y-96912295D01*
X146138095Y-96912295D02*
X146214286Y-96912295D01*
X146214286Y-96912295D02*
X146328571Y-96950390D01*
X146328571Y-96950390D02*
X146366667Y-96988485D01*
X146671428Y-96988485D02*
X146709524Y-96950390D01*
X146709524Y-96950390D02*
X146785714Y-96912295D01*
X146785714Y-96912295D02*
X146976190Y-96912295D01*
X146976190Y-96912295D02*
X147052381Y-96950390D01*
X147052381Y-96950390D02*
X147090476Y-96988485D01*
X147090476Y-96988485D02*
X147128571Y-97064676D01*
X147128571Y-97064676D02*
X147128571Y-97140866D01*
X147128571Y-97140866D02*
X147090476Y-97255152D01*
X147090476Y-97255152D02*
X146633333Y-97712295D01*
X146633333Y-97712295D02*
X147128571Y-97712295D01*
D11*
X157509524Y-98764895D02*
X157509524Y-97964895D01*
X157509524Y-97964895D02*
X157700000Y-97964895D01*
X157700000Y-97964895D02*
X157814286Y-98002990D01*
X157814286Y-98002990D02*
X157890476Y-98079180D01*
X157890476Y-98079180D02*
X157928571Y-98155371D01*
X157928571Y-98155371D02*
X157966667Y-98307752D01*
X157966667Y-98307752D02*
X157966667Y-98422038D01*
X157966667Y-98422038D02*
X157928571Y-98574419D01*
X157928571Y-98574419D02*
X157890476Y-98650609D01*
X157890476Y-98650609D02*
X157814286Y-98726800D01*
X157814286Y-98726800D02*
X157700000Y-98764895D01*
X157700000Y-98764895D02*
X157509524Y-98764895D01*
X158271428Y-98041085D02*
X158309524Y-98002990D01*
X158309524Y-98002990D02*
X158385714Y-97964895D01*
X158385714Y-97964895D02*
X158576190Y-97964895D01*
X158576190Y-97964895D02*
X158652381Y-98002990D01*
X158652381Y-98002990D02*
X158690476Y-98041085D01*
X158690476Y-98041085D02*
X158728571Y-98117276D01*
X158728571Y-98117276D02*
X158728571Y-98193466D01*
X158728571Y-98193466D02*
X158690476Y-98307752D01*
X158690476Y-98307752D02*
X158233333Y-98764895D01*
X158233333Y-98764895D02*
X158728571Y-98764895D01*
D10*
X166166667Y-106062295D02*
X165900000Y-105681342D01*
X165709524Y-106062295D02*
X165709524Y-105262295D01*
X165709524Y-105262295D02*
X166014286Y-105262295D01*
X166014286Y-105262295D02*
X166090476Y-105300390D01*
X166090476Y-105300390D02*
X166128571Y-105338485D01*
X166128571Y-105338485D02*
X166166667Y-105414676D01*
X166166667Y-105414676D02*
X166166667Y-105528961D01*
X166166667Y-105528961D02*
X166128571Y-105605152D01*
X166128571Y-105605152D02*
X166090476Y-105643247D01*
X166090476Y-105643247D02*
X166014286Y-105681342D01*
X166014286Y-105681342D02*
X165709524Y-105681342D01*
X166471428Y-105338485D02*
X166509524Y-105300390D01*
X166509524Y-105300390D02*
X166585714Y-105262295D01*
X166585714Y-105262295D02*
X166776190Y-105262295D01*
X166776190Y-105262295D02*
X166852381Y-105300390D01*
X166852381Y-105300390D02*
X166890476Y-105338485D01*
X166890476Y-105338485D02*
X166928571Y-105414676D01*
X166928571Y-105414676D02*
X166928571Y-105490866D01*
X166928571Y-105490866D02*
X166890476Y-105605152D01*
X166890476Y-105605152D02*
X166433333Y-106062295D01*
X166433333Y-106062295D02*
X166928571Y-106062295D01*
X166862295Y-112414285D02*
X166062295Y-112414285D01*
X166062295Y-112414285D02*
X166862295Y-111957142D01*
X166862295Y-111957142D02*
X166062295Y-111957142D01*
X166862295Y-111119047D02*
X166481342Y-111385714D01*
X166862295Y-111576190D02*
X166062295Y-111576190D01*
X166062295Y-111576190D02*
X166062295Y-111271428D01*
X166062295Y-111271428D02*
X166100390Y-111195238D01*
X166100390Y-111195238D02*
X166138485Y-111157143D01*
X166138485Y-111157143D02*
X166214676Y-111119047D01*
X166214676Y-111119047D02*
X166328961Y-111119047D01*
X166328961Y-111119047D02*
X166405152Y-111157143D01*
X166405152Y-111157143D02*
X166443247Y-111195238D01*
X166443247Y-111195238D02*
X166481342Y-111271428D01*
X166481342Y-111271428D02*
X166481342Y-111576190D01*
X166824200Y-110814286D02*
X166862295Y-110700000D01*
X166862295Y-110700000D02*
X166862295Y-110509524D01*
X166862295Y-110509524D02*
X166824200Y-110433333D01*
X166824200Y-110433333D02*
X166786104Y-110395238D01*
X166786104Y-110395238D02*
X166709914Y-110357143D01*
X166709914Y-110357143D02*
X166633723Y-110357143D01*
X166633723Y-110357143D02*
X166557533Y-110395238D01*
X166557533Y-110395238D02*
X166519438Y-110433333D01*
X166519438Y-110433333D02*
X166481342Y-110509524D01*
X166481342Y-110509524D02*
X166443247Y-110661905D01*
X166443247Y-110661905D02*
X166405152Y-110738095D01*
X166405152Y-110738095D02*
X166367057Y-110776190D01*
X166367057Y-110776190D02*
X166290866Y-110814286D01*
X166290866Y-110814286D02*
X166214676Y-110814286D01*
X166214676Y-110814286D02*
X166138485Y-110776190D01*
X166138485Y-110776190D02*
X166100390Y-110738095D01*
X166100390Y-110738095D02*
X166062295Y-110661905D01*
X166062295Y-110661905D02*
X166062295Y-110471428D01*
X166062295Y-110471428D02*
X166100390Y-110357143D01*
X166062295Y-110128571D02*
X166062295Y-109671428D01*
X166862295Y-109900000D02*
X166062295Y-109900000D01*
X126860714Y-95936104D02*
X126822618Y-95974200D01*
X126822618Y-95974200D02*
X126708333Y-96012295D01*
X126708333Y-96012295D02*
X126632142Y-96012295D01*
X126632142Y-96012295D02*
X126517856Y-95974200D01*
X126517856Y-95974200D02*
X126441666Y-95898009D01*
X126441666Y-95898009D02*
X126403571Y-95821819D01*
X126403571Y-95821819D02*
X126365475Y-95669438D01*
X126365475Y-95669438D02*
X126365475Y-95555152D01*
X126365475Y-95555152D02*
X126403571Y-95402771D01*
X126403571Y-95402771D02*
X126441666Y-95326580D01*
X126441666Y-95326580D02*
X126517856Y-95250390D01*
X126517856Y-95250390D02*
X126632142Y-95212295D01*
X126632142Y-95212295D02*
X126708333Y-95212295D01*
X126708333Y-95212295D02*
X126822618Y-95250390D01*
X126822618Y-95250390D02*
X126860714Y-95288485D01*
X127622618Y-96012295D02*
X127165475Y-96012295D01*
X127394047Y-96012295D02*
X127394047Y-95212295D01*
X127394047Y-95212295D02*
X127317856Y-95326580D01*
X127317856Y-95326580D02*
X127241666Y-95402771D01*
X127241666Y-95402771D02*
X127165475Y-95440866D01*
X127889285Y-95212295D02*
X128384523Y-95212295D01*
X128384523Y-95212295D02*
X128117857Y-95517057D01*
X128117857Y-95517057D02*
X128232142Y-95517057D01*
X128232142Y-95517057D02*
X128308333Y-95555152D01*
X128308333Y-95555152D02*
X128346428Y-95593247D01*
X128346428Y-95593247D02*
X128384523Y-95669438D01*
X128384523Y-95669438D02*
X128384523Y-95859914D01*
X128384523Y-95859914D02*
X128346428Y-95936104D01*
X128346428Y-95936104D02*
X128308333Y-95974200D01*
X128308333Y-95974200D02*
X128232142Y-96012295D01*
X128232142Y-96012295D02*
X128003571Y-96012295D01*
X128003571Y-96012295D02*
X127927380Y-95974200D01*
X127927380Y-95974200D02*
X127889285Y-95936104D01*
X146366667Y-105986104D02*
X146328571Y-106024200D01*
X146328571Y-106024200D02*
X146214286Y-106062295D01*
X146214286Y-106062295D02*
X146138095Y-106062295D01*
X146138095Y-106062295D02*
X146023809Y-106024200D01*
X146023809Y-106024200D02*
X145947619Y-105948009D01*
X145947619Y-105948009D02*
X145909524Y-105871819D01*
X145909524Y-105871819D02*
X145871428Y-105719438D01*
X145871428Y-105719438D02*
X145871428Y-105605152D01*
X145871428Y-105605152D02*
X145909524Y-105452771D01*
X145909524Y-105452771D02*
X145947619Y-105376580D01*
X145947619Y-105376580D02*
X146023809Y-105300390D01*
X146023809Y-105300390D02*
X146138095Y-105262295D01*
X146138095Y-105262295D02*
X146214286Y-105262295D01*
X146214286Y-105262295D02*
X146328571Y-105300390D01*
X146328571Y-105300390D02*
X146366667Y-105338485D01*
X147128571Y-106062295D02*
X146671428Y-106062295D01*
X146900000Y-106062295D02*
X146900000Y-105262295D01*
X146900000Y-105262295D02*
X146823809Y-105376580D01*
X146823809Y-105376580D02*
X146747619Y-105452771D01*
X146747619Y-105452771D02*
X146671428Y-105490866D01*
X155490476Y-105312295D02*
X155490476Y-105959914D01*
X155490476Y-105959914D02*
X155528571Y-106036104D01*
X155528571Y-106036104D02*
X155566666Y-106074200D01*
X155566666Y-106074200D02*
X155642857Y-106112295D01*
X155642857Y-106112295D02*
X155795238Y-106112295D01*
X155795238Y-106112295D02*
X155871428Y-106074200D01*
X155871428Y-106074200D02*
X155909523Y-106036104D01*
X155909523Y-106036104D02*
X155947619Y-105959914D01*
X155947619Y-105959914D02*
X155947619Y-105312295D01*
X156747618Y-106112295D02*
X156290475Y-106112295D01*
X156519047Y-106112295D02*
X156519047Y-105312295D01*
X156519047Y-105312295D02*
X156442856Y-105426580D01*
X156442856Y-105426580D02*
X156366666Y-105502771D01*
X156366666Y-105502771D02*
X156290475Y-105540866D01*
X139916667Y-90136104D02*
X139878571Y-90174200D01*
X139878571Y-90174200D02*
X139764286Y-90212295D01*
X139764286Y-90212295D02*
X139688095Y-90212295D01*
X139688095Y-90212295D02*
X139573809Y-90174200D01*
X139573809Y-90174200D02*
X139497619Y-90098009D01*
X139497619Y-90098009D02*
X139459524Y-90021819D01*
X139459524Y-90021819D02*
X139421428Y-89869438D01*
X139421428Y-89869438D02*
X139421428Y-89755152D01*
X139421428Y-89755152D02*
X139459524Y-89602771D01*
X139459524Y-89602771D02*
X139497619Y-89526580D01*
X139497619Y-89526580D02*
X139573809Y-89450390D01*
X139573809Y-89450390D02*
X139688095Y-89412295D01*
X139688095Y-89412295D02*
X139764286Y-89412295D01*
X139764286Y-89412295D02*
X139878571Y-89450390D01*
X139878571Y-89450390D02*
X139916667Y-89488485D01*
X140602381Y-89678961D02*
X140602381Y-90212295D01*
X140411905Y-89374200D02*
X140221428Y-89945628D01*
X140221428Y-89945628D02*
X140716667Y-89945628D01*
X122809524Y-89912295D02*
X122809524Y-89112295D01*
X122809524Y-89112295D02*
X123000000Y-89112295D01*
X123000000Y-89112295D02*
X123114286Y-89150390D01*
X123114286Y-89150390D02*
X123190476Y-89226580D01*
X123190476Y-89226580D02*
X123228571Y-89302771D01*
X123228571Y-89302771D02*
X123266667Y-89455152D01*
X123266667Y-89455152D02*
X123266667Y-89569438D01*
X123266667Y-89569438D02*
X123228571Y-89721819D01*
X123228571Y-89721819D02*
X123190476Y-89798009D01*
X123190476Y-89798009D02*
X123114286Y-89874200D01*
X123114286Y-89874200D02*
X123000000Y-89912295D01*
X123000000Y-89912295D02*
X122809524Y-89912295D01*
X124028571Y-89912295D02*
X123571428Y-89912295D01*
X123800000Y-89912295D02*
X123800000Y-89112295D01*
X123800000Y-89112295D02*
X123723809Y-89226580D01*
X123723809Y-89226580D02*
X123647619Y-89302771D01*
X123647619Y-89302771D02*
X123571428Y-89340866D01*
X130166667Y-106286104D02*
X130128571Y-106324200D01*
X130128571Y-106324200D02*
X130014286Y-106362295D01*
X130014286Y-106362295D02*
X129938095Y-106362295D01*
X129938095Y-106362295D02*
X129823809Y-106324200D01*
X129823809Y-106324200D02*
X129747619Y-106248009D01*
X129747619Y-106248009D02*
X129709524Y-106171819D01*
X129709524Y-106171819D02*
X129671428Y-106019438D01*
X129671428Y-106019438D02*
X129671428Y-105905152D01*
X129671428Y-105905152D02*
X129709524Y-105752771D01*
X129709524Y-105752771D02*
X129747619Y-105676580D01*
X129747619Y-105676580D02*
X129823809Y-105600390D01*
X129823809Y-105600390D02*
X129938095Y-105562295D01*
X129938095Y-105562295D02*
X130014286Y-105562295D01*
X130014286Y-105562295D02*
X130128571Y-105600390D01*
X130128571Y-105600390D02*
X130166667Y-105638485D01*
X130547619Y-106362295D02*
X130700000Y-106362295D01*
X130700000Y-106362295D02*
X130776190Y-106324200D01*
X130776190Y-106324200D02*
X130814286Y-106286104D01*
X130814286Y-106286104D02*
X130890476Y-106171819D01*
X130890476Y-106171819D02*
X130928571Y-106019438D01*
X130928571Y-106019438D02*
X130928571Y-105714676D01*
X130928571Y-105714676D02*
X130890476Y-105638485D01*
X130890476Y-105638485D02*
X130852381Y-105600390D01*
X130852381Y-105600390D02*
X130776190Y-105562295D01*
X130776190Y-105562295D02*
X130623809Y-105562295D01*
X130623809Y-105562295D02*
X130547619Y-105600390D01*
X130547619Y-105600390D02*
X130509524Y-105638485D01*
X130509524Y-105638485D02*
X130471428Y-105714676D01*
X130471428Y-105714676D02*
X130471428Y-105905152D01*
X130471428Y-105905152D02*
X130509524Y-105981342D01*
X130509524Y-105981342D02*
X130547619Y-106019438D01*
X130547619Y-106019438D02*
X130623809Y-106057533D01*
X130623809Y-106057533D02*
X130776190Y-106057533D01*
X130776190Y-106057533D02*
X130852381Y-106019438D01*
X130852381Y-106019438D02*
X130890476Y-105981342D01*
X130890476Y-105981342D02*
X130928571Y-105905152D01*
X125609524Y-105562295D02*
X125609524Y-104762295D01*
X125609524Y-104762295D02*
X125800000Y-104762295D01*
X125800000Y-104762295D02*
X125914286Y-104800390D01*
X125914286Y-104800390D02*
X125990476Y-104876580D01*
X125990476Y-104876580D02*
X126028571Y-104952771D01*
X126028571Y-104952771D02*
X126066667Y-105105152D01*
X126066667Y-105105152D02*
X126066667Y-105219438D01*
X126066667Y-105219438D02*
X126028571Y-105371819D01*
X126028571Y-105371819D02*
X125990476Y-105448009D01*
X125990476Y-105448009D02*
X125914286Y-105524200D01*
X125914286Y-105524200D02*
X125800000Y-105562295D01*
X125800000Y-105562295D02*
X125609524Y-105562295D01*
X126752381Y-105028961D02*
X126752381Y-105562295D01*
X126561905Y-104724200D02*
X126371428Y-105295628D01*
X126371428Y-105295628D02*
X126866667Y-105295628D01*
X152416667Y-95912295D02*
X152150000Y-95531342D01*
X151959524Y-95912295D02*
X151959524Y-95112295D01*
X151959524Y-95112295D02*
X152264286Y-95112295D01*
X152264286Y-95112295D02*
X152340476Y-95150390D01*
X152340476Y-95150390D02*
X152378571Y-95188485D01*
X152378571Y-95188485D02*
X152416667Y-95264676D01*
X152416667Y-95264676D02*
X152416667Y-95378961D01*
X152416667Y-95378961D02*
X152378571Y-95455152D01*
X152378571Y-95455152D02*
X152340476Y-95493247D01*
X152340476Y-95493247D02*
X152264286Y-95531342D01*
X152264286Y-95531342D02*
X151959524Y-95531342D01*
X153102381Y-95378961D02*
X153102381Y-95912295D01*
X152911905Y-95074200D02*
X152721428Y-95645628D01*
X152721428Y-95645628D02*
X153216667Y-95645628D01*
X129816667Y-91836104D02*
X129778571Y-91874200D01*
X129778571Y-91874200D02*
X129664286Y-91912295D01*
X129664286Y-91912295D02*
X129588095Y-91912295D01*
X129588095Y-91912295D02*
X129473809Y-91874200D01*
X129473809Y-91874200D02*
X129397619Y-91798009D01*
X129397619Y-91798009D02*
X129359524Y-91721819D01*
X129359524Y-91721819D02*
X129321428Y-91569438D01*
X129321428Y-91569438D02*
X129321428Y-91455152D01*
X129321428Y-91455152D02*
X129359524Y-91302771D01*
X129359524Y-91302771D02*
X129397619Y-91226580D01*
X129397619Y-91226580D02*
X129473809Y-91150390D01*
X129473809Y-91150390D02*
X129588095Y-91112295D01*
X129588095Y-91112295D02*
X129664286Y-91112295D01*
X129664286Y-91112295D02*
X129778571Y-91150390D01*
X129778571Y-91150390D02*
X129816667Y-91188485D01*
X130083333Y-91112295D02*
X130578571Y-91112295D01*
X130578571Y-91112295D02*
X130311905Y-91417057D01*
X130311905Y-91417057D02*
X130426190Y-91417057D01*
X130426190Y-91417057D02*
X130502381Y-91455152D01*
X130502381Y-91455152D02*
X130540476Y-91493247D01*
X130540476Y-91493247D02*
X130578571Y-91569438D01*
X130578571Y-91569438D02*
X130578571Y-91759914D01*
X130578571Y-91759914D02*
X130540476Y-91836104D01*
X130540476Y-91836104D02*
X130502381Y-91874200D01*
X130502381Y-91874200D02*
X130426190Y-91912295D01*
X130426190Y-91912295D02*
X130197619Y-91912295D01*
X130197619Y-91912295D02*
X130121428Y-91874200D01*
X130121428Y-91874200D02*
X130083333Y-91836104D01*
X141291667Y-106386104D02*
X141253571Y-106424200D01*
X141253571Y-106424200D02*
X141139286Y-106462295D01*
X141139286Y-106462295D02*
X141063095Y-106462295D01*
X141063095Y-106462295D02*
X140948809Y-106424200D01*
X140948809Y-106424200D02*
X140872619Y-106348009D01*
X140872619Y-106348009D02*
X140834524Y-106271819D01*
X140834524Y-106271819D02*
X140796428Y-106119438D01*
X140796428Y-106119438D02*
X140796428Y-106005152D01*
X140796428Y-106005152D02*
X140834524Y-105852771D01*
X140834524Y-105852771D02*
X140872619Y-105776580D01*
X140872619Y-105776580D02*
X140948809Y-105700390D01*
X140948809Y-105700390D02*
X141063095Y-105662295D01*
X141063095Y-105662295D02*
X141139286Y-105662295D01*
X141139286Y-105662295D02*
X141253571Y-105700390D01*
X141253571Y-105700390D02*
X141291667Y-105738485D01*
X141748809Y-106005152D02*
X141672619Y-105967057D01*
X141672619Y-105967057D02*
X141634524Y-105928961D01*
X141634524Y-105928961D02*
X141596428Y-105852771D01*
X141596428Y-105852771D02*
X141596428Y-105814676D01*
X141596428Y-105814676D02*
X141634524Y-105738485D01*
X141634524Y-105738485D02*
X141672619Y-105700390D01*
X141672619Y-105700390D02*
X141748809Y-105662295D01*
X141748809Y-105662295D02*
X141901190Y-105662295D01*
X141901190Y-105662295D02*
X141977381Y-105700390D01*
X141977381Y-105700390D02*
X142015476Y-105738485D01*
X142015476Y-105738485D02*
X142053571Y-105814676D01*
X142053571Y-105814676D02*
X142053571Y-105852771D01*
X142053571Y-105852771D02*
X142015476Y-105928961D01*
X142015476Y-105928961D02*
X141977381Y-105967057D01*
X141977381Y-105967057D02*
X141901190Y-106005152D01*
X141901190Y-106005152D02*
X141748809Y-106005152D01*
X141748809Y-106005152D02*
X141672619Y-106043247D01*
X141672619Y-106043247D02*
X141634524Y-106081342D01*
X141634524Y-106081342D02*
X141596428Y-106157533D01*
X141596428Y-106157533D02*
X141596428Y-106309914D01*
X141596428Y-106309914D02*
X141634524Y-106386104D01*
X141634524Y-106386104D02*
X141672619Y-106424200D01*
X141672619Y-106424200D02*
X141748809Y-106462295D01*
X141748809Y-106462295D02*
X141901190Y-106462295D01*
X141901190Y-106462295D02*
X141977381Y-106424200D01*
X141977381Y-106424200D02*
X142015476Y-106386104D01*
X142015476Y-106386104D02*
X142053571Y-106309914D01*
X142053571Y-106309914D02*
X142053571Y-106157533D01*
X142053571Y-106157533D02*
X142015476Y-106081342D01*
X142015476Y-106081342D02*
X141977381Y-106043247D01*
X141977381Y-106043247D02*
X141901190Y-106005152D01*
X136866667Y-107636104D02*
X136828571Y-107674200D01*
X136828571Y-107674200D02*
X136714286Y-107712295D01*
X136714286Y-107712295D02*
X136638095Y-107712295D01*
X136638095Y-107712295D02*
X136523809Y-107674200D01*
X136523809Y-107674200D02*
X136447619Y-107598009D01*
X136447619Y-107598009D02*
X136409524Y-107521819D01*
X136409524Y-107521819D02*
X136371428Y-107369438D01*
X136371428Y-107369438D02*
X136371428Y-107255152D01*
X136371428Y-107255152D02*
X136409524Y-107102771D01*
X136409524Y-107102771D02*
X136447619Y-107026580D01*
X136447619Y-107026580D02*
X136523809Y-106950390D01*
X136523809Y-106950390D02*
X136638095Y-106912295D01*
X136638095Y-106912295D02*
X136714286Y-106912295D01*
X136714286Y-106912295D02*
X136828571Y-106950390D01*
X136828571Y-106950390D02*
X136866667Y-106988485D01*
X137133333Y-106912295D02*
X137666667Y-106912295D01*
X137666667Y-106912295D02*
X137323809Y-107712295D01*
X166385714Y-108536104D02*
X166347618Y-108574200D01*
X166347618Y-108574200D02*
X166233333Y-108612295D01*
X166233333Y-108612295D02*
X166157142Y-108612295D01*
X166157142Y-108612295D02*
X166042856Y-108574200D01*
X166042856Y-108574200D02*
X165966666Y-108498009D01*
X165966666Y-108498009D02*
X165928571Y-108421819D01*
X165928571Y-108421819D02*
X165890475Y-108269438D01*
X165890475Y-108269438D02*
X165890475Y-108155152D01*
X165890475Y-108155152D02*
X165928571Y-108002771D01*
X165928571Y-108002771D02*
X165966666Y-107926580D01*
X165966666Y-107926580D02*
X166042856Y-107850390D01*
X166042856Y-107850390D02*
X166157142Y-107812295D01*
X166157142Y-107812295D02*
X166233333Y-107812295D01*
X166233333Y-107812295D02*
X166347618Y-107850390D01*
X166347618Y-107850390D02*
X166385714Y-107888485D01*
X167147618Y-108612295D02*
X166690475Y-108612295D01*
X166919047Y-108612295D02*
X166919047Y-107812295D01*
X166919047Y-107812295D02*
X166842856Y-107926580D01*
X166842856Y-107926580D02*
X166766666Y-108002771D01*
X166766666Y-108002771D02*
X166690475Y-108040866D01*
X167833333Y-108078961D02*
X167833333Y-108612295D01*
X167642857Y-107774200D02*
X167452380Y-108345628D01*
X167452380Y-108345628D02*
X167947619Y-108345628D01*
X134285714Y-107586104D02*
X134247618Y-107624200D01*
X134247618Y-107624200D02*
X134133333Y-107662295D01*
X134133333Y-107662295D02*
X134057142Y-107662295D01*
X134057142Y-107662295D02*
X133942856Y-107624200D01*
X133942856Y-107624200D02*
X133866666Y-107548009D01*
X133866666Y-107548009D02*
X133828571Y-107471819D01*
X133828571Y-107471819D02*
X133790475Y-107319438D01*
X133790475Y-107319438D02*
X133790475Y-107205152D01*
X133790475Y-107205152D02*
X133828571Y-107052771D01*
X133828571Y-107052771D02*
X133866666Y-106976580D01*
X133866666Y-106976580D02*
X133942856Y-106900390D01*
X133942856Y-106900390D02*
X134057142Y-106862295D01*
X134057142Y-106862295D02*
X134133333Y-106862295D01*
X134133333Y-106862295D02*
X134247618Y-106900390D01*
X134247618Y-106900390D02*
X134285714Y-106938485D01*
X135047618Y-107662295D02*
X134590475Y-107662295D01*
X134819047Y-107662295D02*
X134819047Y-106862295D01*
X134819047Y-106862295D02*
X134742856Y-106976580D01*
X134742856Y-106976580D02*
X134666666Y-107052771D01*
X134666666Y-107052771D02*
X134590475Y-107090866D01*
X135542857Y-106862295D02*
X135619047Y-106862295D01*
X135619047Y-106862295D02*
X135695238Y-106900390D01*
X135695238Y-106900390D02*
X135733333Y-106938485D01*
X135733333Y-106938485D02*
X135771428Y-107014676D01*
X135771428Y-107014676D02*
X135809523Y-107167057D01*
X135809523Y-107167057D02*
X135809523Y-107357533D01*
X135809523Y-107357533D02*
X135771428Y-107509914D01*
X135771428Y-107509914D02*
X135733333Y-107586104D01*
X135733333Y-107586104D02*
X135695238Y-107624200D01*
X135695238Y-107624200D02*
X135619047Y-107662295D01*
X135619047Y-107662295D02*
X135542857Y-107662295D01*
X135542857Y-107662295D02*
X135466666Y-107624200D01*
X135466666Y-107624200D02*
X135428571Y-107586104D01*
X135428571Y-107586104D02*
X135390476Y-107509914D01*
X135390476Y-107509914D02*
X135352380Y-107357533D01*
X135352380Y-107357533D02*
X135352380Y-107167057D01*
X135352380Y-107167057D02*
X135390476Y-107014676D01*
X135390476Y-107014676D02*
X135428571Y-106938485D01*
X135428571Y-106938485D02*
X135466666Y-106900390D01*
X135466666Y-106900390D02*
X135542857Y-106862295D01*
X166493247Y-86485714D02*
X166531342Y-86371428D01*
X166531342Y-86371428D02*
X166569438Y-86333333D01*
X166569438Y-86333333D02*
X166645628Y-86295237D01*
X166645628Y-86295237D02*
X166759914Y-86295237D01*
X166759914Y-86295237D02*
X166836104Y-86333333D01*
X166836104Y-86333333D02*
X166874200Y-86371428D01*
X166874200Y-86371428D02*
X166912295Y-86447618D01*
X166912295Y-86447618D02*
X166912295Y-86752380D01*
X166912295Y-86752380D02*
X166112295Y-86752380D01*
X166112295Y-86752380D02*
X166112295Y-86485714D01*
X166112295Y-86485714D02*
X166150390Y-86409523D01*
X166150390Y-86409523D02*
X166188485Y-86371428D01*
X166188485Y-86371428D02*
X166264676Y-86333333D01*
X166264676Y-86333333D02*
X166340866Y-86333333D01*
X166340866Y-86333333D02*
X166417057Y-86371428D01*
X166417057Y-86371428D02*
X166455152Y-86409523D01*
X166455152Y-86409523D02*
X166493247Y-86485714D01*
X166493247Y-86485714D02*
X166493247Y-86752380D01*
X166112295Y-85799999D02*
X166112295Y-85647618D01*
X166112295Y-85647618D02*
X166150390Y-85571428D01*
X166150390Y-85571428D02*
X166226580Y-85495237D01*
X166226580Y-85495237D02*
X166378961Y-85457142D01*
X166378961Y-85457142D02*
X166645628Y-85457142D01*
X166645628Y-85457142D02*
X166798009Y-85495237D01*
X166798009Y-85495237D02*
X166874200Y-85571428D01*
X166874200Y-85571428D02*
X166912295Y-85647618D01*
X166912295Y-85647618D02*
X166912295Y-85799999D01*
X166912295Y-85799999D02*
X166874200Y-85876190D01*
X166874200Y-85876190D02*
X166798009Y-85952380D01*
X166798009Y-85952380D02*
X166645628Y-85990476D01*
X166645628Y-85990476D02*
X166378961Y-85990476D01*
X166378961Y-85990476D02*
X166226580Y-85952380D01*
X166226580Y-85952380D02*
X166150390Y-85876190D01*
X166150390Y-85876190D02*
X166112295Y-85799999D01*
X166112295Y-84961904D02*
X166112295Y-84809523D01*
X166112295Y-84809523D02*
X166150390Y-84733333D01*
X166150390Y-84733333D02*
X166226580Y-84657142D01*
X166226580Y-84657142D02*
X166378961Y-84619047D01*
X166378961Y-84619047D02*
X166645628Y-84619047D01*
X166645628Y-84619047D02*
X166798009Y-84657142D01*
X166798009Y-84657142D02*
X166874200Y-84733333D01*
X166874200Y-84733333D02*
X166912295Y-84809523D01*
X166912295Y-84809523D02*
X166912295Y-84961904D01*
X166912295Y-84961904D02*
X166874200Y-85038095D01*
X166874200Y-85038095D02*
X166798009Y-85114285D01*
X166798009Y-85114285D02*
X166645628Y-85152381D01*
X166645628Y-85152381D02*
X166378961Y-85152381D01*
X166378961Y-85152381D02*
X166226580Y-85114285D01*
X166226580Y-85114285D02*
X166150390Y-85038095D01*
X166150390Y-85038095D02*
X166112295Y-84961904D01*
X166112295Y-84390476D02*
X166112295Y-83933333D01*
X166912295Y-84161905D02*
X166112295Y-84161905D01*
X163366667Y-104362295D02*
X163100000Y-103981342D01*
X162909524Y-104362295D02*
X162909524Y-103562295D01*
X162909524Y-103562295D02*
X163214286Y-103562295D01*
X163214286Y-103562295D02*
X163290476Y-103600390D01*
X163290476Y-103600390D02*
X163328571Y-103638485D01*
X163328571Y-103638485D02*
X163366667Y-103714676D01*
X163366667Y-103714676D02*
X163366667Y-103828961D01*
X163366667Y-103828961D02*
X163328571Y-103905152D01*
X163328571Y-103905152D02*
X163290476Y-103943247D01*
X163290476Y-103943247D02*
X163214286Y-103981342D01*
X163214286Y-103981342D02*
X162909524Y-103981342D01*
X163633333Y-103562295D02*
X164128571Y-103562295D01*
X164128571Y-103562295D02*
X163861905Y-103867057D01*
X163861905Y-103867057D02*
X163976190Y-103867057D01*
X163976190Y-103867057D02*
X164052381Y-103905152D01*
X164052381Y-103905152D02*
X164090476Y-103943247D01*
X164090476Y-103943247D02*
X164128571Y-104019438D01*
X164128571Y-104019438D02*
X164128571Y-104209914D01*
X164128571Y-104209914D02*
X164090476Y-104286104D01*
X164090476Y-104286104D02*
X164052381Y-104324200D01*
X164052381Y-104324200D02*
X163976190Y-104362295D01*
X163976190Y-104362295D02*
X163747619Y-104362295D01*
X163747619Y-104362295D02*
X163671428Y-104324200D01*
X163671428Y-104324200D02*
X163633333Y-104286104D01*
X128783333Y-104093247D02*
X128516667Y-104093247D01*
X128516667Y-104512295D02*
X128516667Y-103712295D01*
X128516667Y-103712295D02*
X128897619Y-103712295D01*
X129469047Y-104093247D02*
X129583333Y-104131342D01*
X129583333Y-104131342D02*
X129621428Y-104169438D01*
X129621428Y-104169438D02*
X129659524Y-104245628D01*
X129659524Y-104245628D02*
X129659524Y-104359914D01*
X129659524Y-104359914D02*
X129621428Y-104436104D01*
X129621428Y-104436104D02*
X129583333Y-104474200D01*
X129583333Y-104474200D02*
X129507143Y-104512295D01*
X129507143Y-104512295D02*
X129202381Y-104512295D01*
X129202381Y-104512295D02*
X129202381Y-103712295D01*
X129202381Y-103712295D02*
X129469047Y-103712295D01*
X129469047Y-103712295D02*
X129545238Y-103750390D01*
X129545238Y-103750390D02*
X129583333Y-103788485D01*
X129583333Y-103788485D02*
X129621428Y-103864676D01*
X129621428Y-103864676D02*
X129621428Y-103940866D01*
X129621428Y-103940866D02*
X129583333Y-104017057D01*
X129583333Y-104017057D02*
X129545238Y-104055152D01*
X129545238Y-104055152D02*
X129469047Y-104093247D01*
X129469047Y-104093247D02*
X129202381Y-104093247D01*
X129964285Y-103788485D02*
X130002381Y-103750390D01*
X130002381Y-103750390D02*
X130078571Y-103712295D01*
X130078571Y-103712295D02*
X130269047Y-103712295D01*
X130269047Y-103712295D02*
X130345238Y-103750390D01*
X130345238Y-103750390D02*
X130383333Y-103788485D01*
X130383333Y-103788485D02*
X130421428Y-103864676D01*
X130421428Y-103864676D02*
X130421428Y-103940866D01*
X130421428Y-103940866D02*
X130383333Y-104055152D01*
X130383333Y-104055152D02*
X129926190Y-104512295D01*
X129926190Y-104512295D02*
X130421428Y-104512295D01*
X142466667Y-102836104D02*
X142428571Y-102874200D01*
X142428571Y-102874200D02*
X142314286Y-102912295D01*
X142314286Y-102912295D02*
X142238095Y-102912295D01*
X142238095Y-102912295D02*
X142123809Y-102874200D01*
X142123809Y-102874200D02*
X142047619Y-102798009D01*
X142047619Y-102798009D02*
X142009524Y-102721819D01*
X142009524Y-102721819D02*
X141971428Y-102569438D01*
X141971428Y-102569438D02*
X141971428Y-102455152D01*
X141971428Y-102455152D02*
X142009524Y-102302771D01*
X142009524Y-102302771D02*
X142047619Y-102226580D01*
X142047619Y-102226580D02*
X142123809Y-102150390D01*
X142123809Y-102150390D02*
X142238095Y-102112295D01*
X142238095Y-102112295D02*
X142314286Y-102112295D01*
X142314286Y-102112295D02*
X142428571Y-102150390D01*
X142428571Y-102150390D02*
X142466667Y-102188485D01*
X143190476Y-102112295D02*
X142809524Y-102112295D01*
X142809524Y-102112295D02*
X142771428Y-102493247D01*
X142771428Y-102493247D02*
X142809524Y-102455152D01*
X142809524Y-102455152D02*
X142885714Y-102417057D01*
X142885714Y-102417057D02*
X143076190Y-102417057D01*
X143076190Y-102417057D02*
X143152381Y-102455152D01*
X143152381Y-102455152D02*
X143190476Y-102493247D01*
X143190476Y-102493247D02*
X143228571Y-102569438D01*
X143228571Y-102569438D02*
X143228571Y-102759914D01*
X143228571Y-102759914D02*
X143190476Y-102836104D01*
X143190476Y-102836104D02*
X143152381Y-102874200D01*
X143152381Y-102874200D02*
X143076190Y-102912295D01*
X143076190Y-102912295D02*
X142885714Y-102912295D01*
X142885714Y-102912295D02*
X142809524Y-102874200D01*
X142809524Y-102874200D02*
X142771428Y-102836104D01*
X148609524Y-95812295D02*
X148609524Y-95012295D01*
X148609524Y-95012295D02*
X148800000Y-95012295D01*
X148800000Y-95012295D02*
X148914286Y-95050390D01*
X148914286Y-95050390D02*
X148990476Y-95126580D01*
X148990476Y-95126580D02*
X149028571Y-95202771D01*
X149028571Y-95202771D02*
X149066667Y-95355152D01*
X149066667Y-95355152D02*
X149066667Y-95469438D01*
X149066667Y-95469438D02*
X149028571Y-95621819D01*
X149028571Y-95621819D02*
X148990476Y-95698009D01*
X148990476Y-95698009D02*
X148914286Y-95774200D01*
X148914286Y-95774200D02*
X148800000Y-95812295D01*
X148800000Y-95812295D02*
X148609524Y-95812295D01*
X149333333Y-95012295D02*
X149828571Y-95012295D01*
X149828571Y-95012295D02*
X149561905Y-95317057D01*
X149561905Y-95317057D02*
X149676190Y-95317057D01*
X149676190Y-95317057D02*
X149752381Y-95355152D01*
X149752381Y-95355152D02*
X149790476Y-95393247D01*
X149790476Y-95393247D02*
X149828571Y-95469438D01*
X149828571Y-95469438D02*
X149828571Y-95659914D01*
X149828571Y-95659914D02*
X149790476Y-95736104D01*
X149790476Y-95736104D02*
X149752381Y-95774200D01*
X149752381Y-95774200D02*
X149676190Y-95812295D01*
X149676190Y-95812295D02*
X149447619Y-95812295D01*
X149447619Y-95812295D02*
X149371428Y-95774200D01*
X149371428Y-95774200D02*
X149333333Y-95736104D01*
X152133333Y-114662295D02*
X152133333Y-115233723D01*
X152133333Y-115233723D02*
X152095238Y-115348009D01*
X152095238Y-115348009D02*
X152019047Y-115424200D01*
X152019047Y-115424200D02*
X151904762Y-115462295D01*
X151904762Y-115462295D02*
X151828571Y-115462295D01*
X152476190Y-114738485D02*
X152514286Y-114700390D01*
X152514286Y-114700390D02*
X152590476Y-114662295D01*
X152590476Y-114662295D02*
X152780952Y-114662295D01*
X152780952Y-114662295D02*
X152857143Y-114700390D01*
X152857143Y-114700390D02*
X152895238Y-114738485D01*
X152895238Y-114738485D02*
X152933333Y-114814676D01*
X152933333Y-114814676D02*
X152933333Y-114890866D01*
X152933333Y-114890866D02*
X152895238Y-115005152D01*
X152895238Y-115005152D02*
X152438095Y-115462295D01*
X152438095Y-115462295D02*
X152933333Y-115462295D01*
X156552976Y-91012295D02*
X156552976Y-91659914D01*
X156552976Y-91659914D02*
X156591071Y-91736104D01*
X156591071Y-91736104D02*
X156629166Y-91774200D01*
X156629166Y-91774200D02*
X156705357Y-91812295D01*
X156705357Y-91812295D02*
X156857738Y-91812295D01*
X156857738Y-91812295D02*
X156933928Y-91774200D01*
X156933928Y-91774200D02*
X156972023Y-91736104D01*
X156972023Y-91736104D02*
X157010119Y-91659914D01*
X157010119Y-91659914D02*
X157010119Y-91012295D01*
X157314880Y-91012295D02*
X157810118Y-91012295D01*
X157810118Y-91012295D02*
X157543452Y-91317057D01*
X157543452Y-91317057D02*
X157657737Y-91317057D01*
X157657737Y-91317057D02*
X157733928Y-91355152D01*
X157733928Y-91355152D02*
X157772023Y-91393247D01*
X157772023Y-91393247D02*
X157810118Y-91469438D01*
X157810118Y-91469438D02*
X157810118Y-91659914D01*
X157810118Y-91659914D02*
X157772023Y-91736104D01*
X157772023Y-91736104D02*
X157733928Y-91774200D01*
X157733928Y-91774200D02*
X157657737Y-91812295D01*
X157657737Y-91812295D02*
X157429166Y-91812295D01*
X157429166Y-91812295D02*
X157352975Y-91774200D01*
X157352975Y-91774200D02*
X157314880Y-91736104D01*
X122269048Y-98352634D02*
X122269048Y-98733587D01*
X122002381Y-97933587D02*
X122269048Y-98352634D01*
X122269048Y-98352634D02*
X122535714Y-97933587D01*
X123221428Y-98733587D02*
X122764285Y-98733587D01*
X122992857Y-98733587D02*
X122992857Y-97933587D01*
X122992857Y-97933587D02*
X122916666Y-98047872D01*
X122916666Y-98047872D02*
X122840476Y-98124063D01*
X122840476Y-98124063D02*
X122764285Y-98162158D01*
D12*
%TO.C,U2*%
X131790000Y-93240000D02*
X132240000Y-93240000D01*
X131790000Y-93690000D02*
X131790000Y-93240000D01*
X131790000Y-100460000D02*
X131790000Y-100010000D01*
X132240000Y-100460000D02*
X131790000Y-100460000D01*
X138560000Y-93240000D02*
X139010000Y-93240000D01*
X139010000Y-93240000D02*
X139010000Y-93690000D01*
X139010000Y-100010000D02*
X139010000Y-100460000D01*
X139010000Y-100460000D02*
X138560000Y-100460000D01*
X131150000Y-93690000D02*
X130810000Y-93220000D01*
X131490000Y-93220000D01*
X131150000Y-93690000D01*
G36*
X131150000Y-93690000D02*
G01*
X130810000Y-93220000D01*
X131490000Y-93220000D01*
X131150000Y-93690000D01*
G37*
%TO.C,J3*%
X165850000Y-92920000D02*
X163930000Y-92920000D01*
X160215000Y-92920000D02*
X161920000Y-92920000D01*
X163930000Y-102080000D02*
X165850000Y-102080000D01*
X161920000Y-102080000D02*
X160215000Y-102080000D01*
X160215000Y-102080000D02*
X160215000Y-92920000D01*
%TO.C,C12*%
X124807836Y-101031292D02*
X124592164Y-101031292D01*
X124807836Y-100311292D02*
X124592164Y-100311292D01*
%TO.C,C11*%
X124757836Y-96481292D02*
X124542164Y-96481292D01*
X124757836Y-95761292D02*
X124542164Y-95761292D01*
%TO.C,R5*%
X124087258Y-102877500D02*
X123612742Y-102877500D01*
X124087258Y-103922500D02*
X123612742Y-103922500D01*
%TO.C,FB1*%
X139799622Y-103640000D02*
X139000378Y-103640000D01*
X139799622Y-104760000D02*
X139000378Y-104760000D01*
%TO.C,J1*%
X122180000Y-82620000D02*
X122180000Y-87920000D01*
X150230000Y-82620000D02*
X122180000Y-82620000D01*
X150230000Y-82620000D02*
X150230000Y-85270000D01*
X150230000Y-85270000D02*
X152880000Y-85270000D01*
X151500000Y-82620000D02*
X152880000Y-82620000D01*
X152880000Y-82620000D02*
X152880000Y-84000000D01*
X152880000Y-85270000D02*
X152880000Y-87920000D01*
X152880000Y-87920000D02*
X122180000Y-87920000D01*
%TO.C,R1*%
X166537258Y-89977500D02*
X166062742Y-89977500D01*
X166537258Y-91022500D02*
X166062742Y-91022500D01*
%TO.C,R6*%
X160762742Y-89877500D02*
X161237258Y-89877500D01*
X160762742Y-90922500D02*
X161237258Y-90922500D01*
%TO.C,C2*%
X145765000Y-99861252D02*
X145765000Y-99338748D01*
X147235000Y-99861252D02*
X147235000Y-99338748D01*
%TO.C,D2*%
X157090000Y-100400000D02*
X157090000Y-103710000D01*
X159110000Y-103710000D02*
X157090000Y-103710000D01*
X159110000Y-103710000D02*
X159110000Y-100400000D01*
%TO.C,R2*%
X166537258Y-103977500D02*
X166062742Y-103977500D01*
X166537258Y-105022500D02*
X166062742Y-105022500D01*
%TO.C,NRST*%
X156800000Y-108000000D02*
X156800000Y-108100000D01*
X156800000Y-108000000D02*
X163000000Y-108000000D01*
X156800000Y-109600000D02*
X156800000Y-112600000D01*
X156800000Y-114200000D02*
X156800000Y-114100000D01*
X156800000Y-114200000D02*
X163000000Y-114200000D01*
X163000000Y-108100000D02*
X163000000Y-108000000D01*
X163000000Y-109600000D02*
X163000000Y-112600000D01*
X163000000Y-114200000D02*
X163000000Y-114100000D01*
%TO.C,C13*%
X127390580Y-93840000D02*
X127109420Y-93840000D01*
X127390580Y-94860000D02*
X127109420Y-94860000D01*
%TO.C,C1*%
X145765000Y-103661252D02*
X145765000Y-103138748D01*
X147235000Y-103661252D02*
X147235000Y-103138748D01*
%TO.C,U1*%
X150450000Y-98090000D02*
X154210000Y-98090000D01*
X150450000Y-104910000D02*
X154210000Y-104910000D01*
X154210000Y-98090000D02*
X154210000Y-99350000D01*
X154210000Y-104910000D02*
X154210000Y-103650000D01*
X149170000Y-98190000D02*
X148930000Y-97860000D01*
X149410000Y-97860000D01*
X149170000Y-98190000D01*
G36*
X149170000Y-98190000D02*
G01*
X148930000Y-97860000D01*
X149410000Y-97860000D01*
X149170000Y-98190000D01*
G37*
%TO.C,C4*%
X139490000Y-92090580D02*
X139490000Y-91809420D01*
X140510000Y-92090580D02*
X140510000Y-91809420D01*
%TO.C,D1*%
X124345000Y-92490000D02*
X124345000Y-93380000D01*
X124345000Y-93380000D02*
X122495000Y-93380000D01*
X124360000Y-90260000D02*
X122510000Y-90260000D01*
X124360000Y-90260000D02*
X124360000Y-91150000D01*
X122120000Y-90250000D02*
X121880000Y-89920000D01*
X122360000Y-89920000D01*
X122120000Y-90250000D01*
G36*
X122120000Y-90250000D02*
G01*
X121880000Y-89920000D01*
X122360000Y-89920000D01*
X122120000Y-90250000D01*
G37*
%TO.C,C9*%
X132459420Y-105490000D02*
X132740580Y-105490000D01*
X132459420Y-106510000D02*
X132740580Y-106510000D01*
%TO.C,D4*%
X123050000Y-105935000D02*
X125335000Y-105935000D01*
X125335000Y-104465000D02*
X123050000Y-104465000D01*
X125335000Y-105935000D02*
X125335000Y-104465000D01*
%TO.C,R4*%
X152262742Y-96277500D02*
X152737258Y-96277500D01*
X152262742Y-97322500D02*
X152737258Y-97322500D01*
%TO.C,C3*%
X130065580Y-92290000D02*
X129784420Y-92290000D01*
X130065580Y-93310000D02*
X129784420Y-93310000D01*
%TO.C,C8*%
X139265580Y-105490000D02*
X138984420Y-105490000D01*
X139265580Y-106510000D02*
X138984420Y-106510000D01*
%TO.C,C7*%
X136190000Y-104934420D02*
X136190000Y-105215580D01*
X137210000Y-104934420D02*
X137210000Y-105215580D01*
%TO.C,C14*%
X166159420Y-106390000D02*
X166440580Y-106390000D01*
X166159420Y-107410000D02*
X166440580Y-107410000D01*
%TO.C,C10*%
X134490000Y-104934420D02*
X134490000Y-105215580D01*
X135510000Y-104934420D02*
X135510000Y-105215580D01*
%TO.C,BOOT*%
X156800000Y-82300000D02*
X156800000Y-82400000D01*
X156800000Y-86900000D02*
X156800000Y-83900000D01*
X156800000Y-88400000D02*
X156800000Y-88500000D01*
X163000000Y-82300000D02*
X156800000Y-82300000D01*
X163000000Y-82300000D02*
X163000000Y-82400000D01*
X163000000Y-86900000D02*
X163000000Y-83900000D01*
X163000000Y-88500000D02*
X156800000Y-88500000D01*
X163000000Y-88500000D02*
X163000000Y-88400000D01*
%TO.C,R3*%
X162977500Y-105762742D02*
X162977500Y-106237258D01*
X164022500Y-105762742D02*
X164022500Y-106237258D01*
%TO.C,FB2*%
X131912878Y-103640000D02*
X132712122Y-103640000D01*
X131912878Y-104760000D02*
X132712122Y-104760000D01*
%TO.C,C5*%
X140159420Y-101140000D02*
X140440580Y-101140000D01*
X140159420Y-102160000D02*
X140440580Y-102160000D01*
%TO.C,D3*%
X148400000Y-97535000D02*
X150685000Y-97535000D01*
X150685000Y-96065000D02*
X148400000Y-96065000D01*
X150685000Y-97535000D02*
X150685000Y-96065000D01*
%TO.C,J2*%
X122180000Y-108620000D02*
X122180000Y-113920000D01*
X150230000Y-108620000D02*
X122180000Y-108620000D01*
X150230000Y-108620000D02*
X150230000Y-111270000D01*
X150230000Y-111270000D02*
X152880000Y-111270000D01*
X151500000Y-108620000D02*
X152880000Y-108620000D01*
X152880000Y-108620000D02*
X152880000Y-110000000D01*
X152880000Y-111270000D02*
X152880000Y-113920000D01*
X152880000Y-113920000D02*
X122180000Y-113920000D01*
%TO.C,U3*%
X156252500Y-92290000D02*
X158072500Y-92290000D01*
X156252500Y-92340000D02*
X156252500Y-92290000D01*
X156252500Y-95410000D02*
X156252500Y-95360000D01*
X158072500Y-92290000D02*
X158072500Y-92340000D01*
X158072500Y-95360000D02*
X158072500Y-95410000D01*
X158072500Y-95410000D02*
X156252500Y-95410000D01*
X155712500Y-92340000D02*
X155472500Y-92010000D01*
X155952500Y-92010000D01*
X155712500Y-92340000D01*
G36*
X155712500Y-92340000D02*
G01*
X155472500Y-92010000D01*
X155952500Y-92010000D01*
X155712500Y-92340000D01*
G37*
%TO.C,Y1*%
X123440000Y-96961292D02*
X123440000Y-99781292D01*
X125860000Y-96961292D02*
X123440000Y-96961292D01*
%TD*%
M02*
